<?xml version="1.0" encoding="utf-8" standalone="no"?>
<!DOCTYPE svg PUBLIC "-//W3C//DTD SVG 1.1//EN"
  "http://www.w3.org/Graphics/SVG/1.1/DTD/svg11.dtd">
<svg height="928.334937pt" version="1.1" viewBox="0 0 1170.165625 928.334937" width="1170.165625pt" xmlns="http://www.w3.org/2000/svg" xmlns:xlink="http://www.w3.org/1999/xlink">
 <metadata>
  <rdf:RDF xmlns:cc="http://creativecommons.org/ns#" xmlns:dc="http://purl.org/dc/elements/1.1/" xmlns:rdf="http://www.w3.org/1999/02/22-rdf-syntax-ns#">
   <cc:Work>
    <dc:type rdf:resource="http://purl.org/dc/dcmitype/StillImage"/>
    <dc:date>2021-12-23T15:06:59.243445</dc:date>
    <dc:format>image/svg+xml</dc:format>
    <dc:creator>
     <cc:Agent>
      <dc:title>Matplotlib v3.4.2, https://matplotlib.org/</dc:title>
     </cc:Agent>
    </dc:creator>
   </cc:Work>
  </rdf:RDF>
 </metadata>
 <defs>
  <style type="text/css">*{stroke-linecap:butt;stroke-linejoin:round;}</style>
 </defs>
 <g id="figure_1">
  <g id="patch_1">
   <path d="M 0 928.334937 
L 1170.165625 928.334937 
L 1170.165625 0 
L 0 0 
z
" style="fill:none;"/>
  </g>
  <g id="axes_1">
   <g id="patch_2">
    <path d="M 46.965625 858.674 
L 1162.965625 858.674 
L 1162.965625 43.274 
L 46.965625 43.274 
z
" style="fill:#ffffff;"/>
   </g>
   <g id="matplotlib.axis_1">
    <g id="xtick_1">
     <g id="line2d_1">
      <defs>
       <path d="M 0 0 
L 0 3.5 
" id="m5c3b67fd8b" style="stroke:#000000;stroke-width:0.8;"/>
      </defs>
      <g>
       <use style="stroke:#000000;stroke-width:0.8;" x="60.217159" xlink:href="#m5c3b67fd8b" y="858.674"/>
      </g>
     </g>
     <g id="text_1">
      <!-- 2008-03 -->
      <g transform="translate(62.976534 907.456812)rotate(-90)scale(0.1 -0.1)">
       <defs>
        <path d="M 1228 531 
L 3431 531 
L 3431 0 
L 469 0 
L 469 531 
Q 828 903 1448 1529 
Q 2069 2156 2228 2338 
Q 2531 2678 2651 2914 
Q 2772 3150 2772 3378 
Q 2772 3750 2511 3984 
Q 2250 4219 1831 4219 
Q 1534 4219 1204 4116 
Q 875 4013 500 3803 
L 500 4441 
Q 881 4594 1212 4672 
Q 1544 4750 1819 4750 
Q 2544 4750 2975 4387 
Q 3406 4025 3406 3419 
Q 3406 3131 3298 2873 
Q 3191 2616 2906 2266 
Q 2828 2175 2409 1742 
Q 1991 1309 1228 531 
z
" id="DejaVuSans-32" transform="scale(0.015625)"/>
        <path d="M 2034 4250 
Q 1547 4250 1301 3770 
Q 1056 3291 1056 2328 
Q 1056 1369 1301 889 
Q 1547 409 2034 409 
Q 2525 409 2770 889 
Q 3016 1369 3016 2328 
Q 3016 3291 2770 3770 
Q 2525 4250 2034 4250 
z
M 2034 4750 
Q 2819 4750 3233 4129 
Q 3647 3509 3647 2328 
Q 3647 1150 3233 529 
Q 2819 -91 2034 -91 
Q 1250 -91 836 529 
Q 422 1150 422 2328 
Q 422 3509 836 4129 
Q 1250 4750 2034 4750 
z
" id="DejaVuSans-30" transform="scale(0.015625)"/>
        <path d="M 2034 2216 
Q 1584 2216 1326 1975 
Q 1069 1734 1069 1313 
Q 1069 891 1326 650 
Q 1584 409 2034 409 
Q 2484 409 2743 651 
Q 3003 894 3003 1313 
Q 3003 1734 2745 1975 
Q 2488 2216 2034 2216 
z
M 1403 2484 
Q 997 2584 770 2862 
Q 544 3141 544 3541 
Q 544 4100 942 4425 
Q 1341 4750 2034 4750 
Q 2731 4750 3128 4425 
Q 3525 4100 3525 3541 
Q 3525 3141 3298 2862 
Q 3072 2584 2669 2484 
Q 3125 2378 3379 2068 
Q 3634 1759 3634 1313 
Q 3634 634 3220 271 
Q 2806 -91 2034 -91 
Q 1263 -91 848 271 
Q 434 634 434 1313 
Q 434 1759 690 2068 
Q 947 2378 1403 2484 
z
M 1172 3481 
Q 1172 3119 1398 2916 
Q 1625 2713 2034 2713 
Q 2441 2713 2670 2916 
Q 2900 3119 2900 3481 
Q 2900 3844 2670 4047 
Q 2441 4250 2034 4250 
Q 1625 4250 1398 4047 
Q 1172 3844 1172 3481 
z
" id="DejaVuSans-38" transform="scale(0.015625)"/>
        <path d="M 313 2009 
L 1997 2009 
L 1997 1497 
L 313 1497 
L 313 2009 
z
" id="DejaVuSans-2d" transform="scale(0.015625)"/>
        <path d="M 2597 2516 
Q 3050 2419 3304 2112 
Q 3559 1806 3559 1356 
Q 3559 666 3084 287 
Q 2609 -91 1734 -91 
Q 1441 -91 1130 -33 
Q 819 25 488 141 
L 488 750 
Q 750 597 1062 519 
Q 1375 441 1716 441 
Q 2309 441 2620 675 
Q 2931 909 2931 1356 
Q 2931 1769 2642 2001 
Q 2353 2234 1838 2234 
L 1294 2234 
L 1294 2753 
L 1863 2753 
Q 2328 2753 2575 2939 
Q 2822 3125 2822 3475 
Q 2822 3834 2567 4026 
Q 2313 4219 1838 4219 
Q 1578 4219 1281 4162 
Q 984 4106 628 3988 
L 628 4550 
Q 988 4650 1302 4700 
Q 1616 4750 1894 4750 
Q 2613 4750 3031 4423 
Q 3450 4097 3450 3541 
Q 3450 3153 3228 2886 
Q 3006 2619 2597 2516 
z
" id="DejaVuSans-33" transform="scale(0.015625)"/>
       </defs>
       <use xlink:href="#DejaVuSans-32"/>
       <use x="63.623047" xlink:href="#DejaVuSans-30"/>
       <use x="127.246094" xlink:href="#DejaVuSans-30"/>
       <use x="190.869141" xlink:href="#DejaVuSans-38"/>
       <use x="254.492188" xlink:href="#DejaVuSans-2d"/>
       <use x="290.576172" xlink:href="#DejaVuSans-30"/>
       <use x="354.199219" xlink:href="#DejaVuSans-33"/>
      </g>
     </g>
    </g>
    <g id="xtick_2">
     <g id="line2d_2">
      <g>
       <use style="stroke:#000000;stroke-width:0.8;" x="80.536177" xlink:href="#m5c3b67fd8b" y="858.674"/>
      </g>
     </g>
     <g id="text_2">
      <!-- 2008-06 -->
      <g transform="translate(83.295552 907.456812)rotate(-90)scale(0.1 -0.1)">
       <defs>
        <path d="M 2113 2584 
Q 1688 2584 1439 2293 
Q 1191 2003 1191 1497 
Q 1191 994 1439 701 
Q 1688 409 2113 409 
Q 2538 409 2786 701 
Q 3034 994 3034 1497 
Q 3034 2003 2786 2293 
Q 2538 2584 2113 2584 
z
M 3366 4563 
L 3366 3988 
Q 3128 4100 2886 4159 
Q 2644 4219 2406 4219 
Q 1781 4219 1451 3797 
Q 1122 3375 1075 2522 
Q 1259 2794 1537 2939 
Q 1816 3084 2150 3084 
Q 2853 3084 3261 2657 
Q 3669 2231 3669 1497 
Q 3669 778 3244 343 
Q 2819 -91 2113 -91 
Q 1303 -91 875 529 
Q 447 1150 447 2328 
Q 447 3434 972 4092 
Q 1497 4750 2381 4750 
Q 2619 4750 2861 4703 
Q 3103 4656 3366 4563 
z
" id="DejaVuSans-36" transform="scale(0.015625)"/>
       </defs>
       <use xlink:href="#DejaVuSans-32"/>
       <use x="63.623047" xlink:href="#DejaVuSans-30"/>
       <use x="127.246094" xlink:href="#DejaVuSans-30"/>
       <use x="190.869141" xlink:href="#DejaVuSans-38"/>
       <use x="254.492188" xlink:href="#DejaVuSans-2d"/>
       <use x="290.576172" xlink:href="#DejaVuSans-30"/>
       <use x="354.199219" xlink:href="#DejaVuSans-36"/>
      </g>
     </g>
    </g>
    <g id="xtick_3">
     <g id="line2d_3">
      <g>
       <use style="stroke:#000000;stroke-width:0.8;" x="100.855196" xlink:href="#m5c3b67fd8b" y="858.674"/>
      </g>
     </g>
     <g id="text_3">
      <!-- 2008-09 -->
      <g transform="translate(103.614571 907.456812)rotate(-90)scale(0.1 -0.1)">
       <defs>
        <path d="M 703 97 
L 703 672 
Q 941 559 1184 500 
Q 1428 441 1663 441 
Q 2288 441 2617 861 
Q 2947 1281 2994 2138 
Q 2813 1869 2534 1725 
Q 2256 1581 1919 1581 
Q 1219 1581 811 2004 
Q 403 2428 403 3163 
Q 403 3881 828 4315 
Q 1253 4750 1959 4750 
Q 2769 4750 3195 4129 
Q 3622 3509 3622 2328 
Q 3622 1225 3098 567 
Q 2575 -91 1691 -91 
Q 1453 -91 1209 -44 
Q 966 3 703 97 
z
M 1959 2075 
Q 2384 2075 2632 2365 
Q 2881 2656 2881 3163 
Q 2881 3666 2632 3958 
Q 2384 4250 1959 4250 
Q 1534 4250 1286 3958 
Q 1038 3666 1038 3163 
Q 1038 2656 1286 2365 
Q 1534 2075 1959 2075 
z
" id="DejaVuSans-39" transform="scale(0.015625)"/>
       </defs>
       <use xlink:href="#DejaVuSans-32"/>
       <use x="63.623047" xlink:href="#DejaVuSans-30"/>
       <use x="127.246094" xlink:href="#DejaVuSans-30"/>
       <use x="190.869141" xlink:href="#DejaVuSans-38"/>
       <use x="254.492188" xlink:href="#DejaVuSans-2d"/>
       <use x="290.576172" xlink:href="#DejaVuSans-30"/>
       <use x="354.199219" xlink:href="#DejaVuSans-39"/>
      </g>
     </g>
    </g>
    <g id="xtick_4">
     <g id="line2d_4">
      <g>
       <use style="stroke:#000000;stroke-width:0.8;" x="120.953355" xlink:href="#m5c3b67fd8b" y="858.674"/>
      </g>
     </g>
     <g id="text_4">
      <!-- 2008-12 -->
      <g transform="translate(123.71273 907.456812)rotate(-90)scale(0.1 -0.1)">
       <defs>
        <path d="M 794 531 
L 1825 531 
L 1825 4091 
L 703 3866 
L 703 4441 
L 1819 4666 
L 2450 4666 
L 2450 531 
L 3481 531 
L 3481 0 
L 794 0 
L 794 531 
z
" id="DejaVuSans-31" transform="scale(0.015625)"/>
       </defs>
       <use xlink:href="#DejaVuSans-32"/>
       <use x="63.623047" xlink:href="#DejaVuSans-30"/>
       <use x="127.246094" xlink:href="#DejaVuSans-30"/>
       <use x="190.869141" xlink:href="#DejaVuSans-38"/>
       <use x="254.492188" xlink:href="#DejaVuSans-2d"/>
       <use x="290.576172" xlink:href="#DejaVuSans-31"/>
       <use x="354.199219" xlink:href="#DejaVuSans-32"/>
      </g>
     </g>
    </g>
    <g id="xtick_5">
     <g id="line2d_5">
      <g>
       <use style="stroke:#000000;stroke-width:0.8;" x="140.830656" xlink:href="#m5c3b67fd8b" y="858.674"/>
      </g>
     </g>
     <g id="text_5">
      <!-- 2009-03 -->
      <g transform="translate(143.590031 907.456812)rotate(-90)scale(0.1 -0.1)">
       <use xlink:href="#DejaVuSans-32"/>
       <use x="63.623047" xlink:href="#DejaVuSans-30"/>
       <use x="127.246094" xlink:href="#DejaVuSans-30"/>
       <use x="190.869141" xlink:href="#DejaVuSans-39"/>
       <use x="254.492188" xlink:href="#DejaVuSans-2d"/>
       <use x="290.576172" xlink:href="#DejaVuSans-30"/>
       <use x="354.199219" xlink:href="#DejaVuSans-33"/>
      </g>
     </g>
    </g>
    <g id="xtick_6">
     <g id="line2d_6">
      <g>
       <use style="stroke:#000000;stroke-width:0.8;" x="161.149674" xlink:href="#m5c3b67fd8b" y="858.674"/>
      </g>
     </g>
     <g id="text_6">
      <!-- 2009-06 -->
      <g transform="translate(163.909049 907.456812)rotate(-90)scale(0.1 -0.1)">
       <use xlink:href="#DejaVuSans-32"/>
       <use x="63.623047" xlink:href="#DejaVuSans-30"/>
       <use x="127.246094" xlink:href="#DejaVuSans-30"/>
       <use x="190.869141" xlink:href="#DejaVuSans-39"/>
       <use x="254.492188" xlink:href="#DejaVuSans-2d"/>
       <use x="290.576172" xlink:href="#DejaVuSans-30"/>
       <use x="354.199219" xlink:href="#DejaVuSans-36"/>
      </g>
     </g>
    </g>
    <g id="xtick_7">
     <g id="line2d_7">
      <g>
       <use style="stroke:#000000;stroke-width:0.8;" x="181.468692" xlink:href="#m5c3b67fd8b" y="858.674"/>
      </g>
     </g>
     <g id="text_7">
      <!-- 2009-09 -->
      <g transform="translate(184.228067 907.456812)rotate(-90)scale(0.1 -0.1)">
       <use xlink:href="#DejaVuSans-32"/>
       <use x="63.623047" xlink:href="#DejaVuSans-30"/>
       <use x="127.246094" xlink:href="#DejaVuSans-30"/>
       <use x="190.869141" xlink:href="#DejaVuSans-39"/>
       <use x="254.492188" xlink:href="#DejaVuSans-2d"/>
       <use x="290.576172" xlink:href="#DejaVuSans-30"/>
       <use x="354.199219" xlink:href="#DejaVuSans-39"/>
      </g>
     </g>
    </g>
    <g id="xtick_8">
     <g id="line2d_8">
      <g>
       <use style="stroke:#000000;stroke-width:0.8;" x="201.566852" xlink:href="#m5c3b67fd8b" y="858.674"/>
      </g>
     </g>
     <g id="text_8">
      <!-- 2009-12 -->
      <g transform="translate(204.326227 907.456812)rotate(-90)scale(0.1 -0.1)">
       <use xlink:href="#DejaVuSans-32"/>
       <use x="63.623047" xlink:href="#DejaVuSans-30"/>
       <use x="127.246094" xlink:href="#DejaVuSans-30"/>
       <use x="190.869141" xlink:href="#DejaVuSans-39"/>
       <use x="254.492188" xlink:href="#DejaVuSans-2d"/>
       <use x="290.576172" xlink:href="#DejaVuSans-31"/>
       <use x="354.199219" xlink:href="#DejaVuSans-32"/>
      </g>
     </g>
    </g>
    <g id="xtick_9">
     <g id="line2d_9">
      <g>
       <use style="stroke:#000000;stroke-width:0.8;" x="221.444153" xlink:href="#m5c3b67fd8b" y="858.674"/>
      </g>
     </g>
     <g id="text_9">
      <!-- 2010-03 -->
      <g transform="translate(224.203528 907.456812)rotate(-90)scale(0.1 -0.1)">
       <use xlink:href="#DejaVuSans-32"/>
       <use x="63.623047" xlink:href="#DejaVuSans-30"/>
       <use x="127.246094" xlink:href="#DejaVuSans-31"/>
       <use x="190.869141" xlink:href="#DejaVuSans-30"/>
       <use x="254.492188" xlink:href="#DejaVuSans-2d"/>
       <use x="290.576172" xlink:href="#DejaVuSans-30"/>
       <use x="354.199219" xlink:href="#DejaVuSans-33"/>
      </g>
     </g>
    </g>
    <g id="xtick_10">
     <g id="line2d_10">
      <g>
       <use style="stroke:#000000;stroke-width:0.8;" x="241.763171" xlink:href="#m5c3b67fd8b" y="858.674"/>
      </g>
     </g>
     <g id="text_10">
      <!-- 2010-06 -->
      <g transform="translate(244.522546 907.456812)rotate(-90)scale(0.1 -0.1)">
       <use xlink:href="#DejaVuSans-32"/>
       <use x="63.623047" xlink:href="#DejaVuSans-30"/>
       <use x="127.246094" xlink:href="#DejaVuSans-31"/>
       <use x="190.869141" xlink:href="#DejaVuSans-30"/>
       <use x="254.492188" xlink:href="#DejaVuSans-2d"/>
       <use x="290.576172" xlink:href="#DejaVuSans-30"/>
       <use x="354.199219" xlink:href="#DejaVuSans-36"/>
      </g>
     </g>
    </g>
    <g id="xtick_11">
     <g id="line2d_11">
      <g>
       <use style="stroke:#000000;stroke-width:0.8;" x="262.082189" xlink:href="#m5c3b67fd8b" y="858.674"/>
      </g>
     </g>
     <g id="text_11">
      <!-- 2010-09 -->
      <g transform="translate(264.841564 907.456812)rotate(-90)scale(0.1 -0.1)">
       <use xlink:href="#DejaVuSans-32"/>
       <use x="63.623047" xlink:href="#DejaVuSans-30"/>
       <use x="127.246094" xlink:href="#DejaVuSans-31"/>
       <use x="190.869141" xlink:href="#DejaVuSans-30"/>
       <use x="254.492188" xlink:href="#DejaVuSans-2d"/>
       <use x="290.576172" xlink:href="#DejaVuSans-30"/>
       <use x="354.199219" xlink:href="#DejaVuSans-39"/>
      </g>
     </g>
    </g>
    <g id="xtick_12">
     <g id="line2d_12">
      <g>
       <use style="stroke:#000000;stroke-width:0.8;" x="282.180349" xlink:href="#m5c3b67fd8b" y="858.674"/>
      </g>
     </g>
     <g id="text_12">
      <!-- 2010-12 -->
      <g transform="translate(284.939724 907.456812)rotate(-90)scale(0.1 -0.1)">
       <use xlink:href="#DejaVuSans-32"/>
       <use x="63.623047" xlink:href="#DejaVuSans-30"/>
       <use x="127.246094" xlink:href="#DejaVuSans-31"/>
       <use x="190.869141" xlink:href="#DejaVuSans-30"/>
       <use x="254.492188" xlink:href="#DejaVuSans-2d"/>
       <use x="290.576172" xlink:href="#DejaVuSans-31"/>
       <use x="354.199219" xlink:href="#DejaVuSans-32"/>
      </g>
     </g>
    </g>
    <g id="xtick_13">
     <g id="line2d_13">
      <g>
       <use style="stroke:#000000;stroke-width:0.8;" x="302.05765" xlink:href="#m5c3b67fd8b" y="858.674"/>
      </g>
     </g>
     <g id="text_13">
      <!-- 2011-03 -->
      <g transform="translate(304.817025 907.456812)rotate(-90)scale(0.1 -0.1)">
       <use xlink:href="#DejaVuSans-32"/>
       <use x="63.623047" xlink:href="#DejaVuSans-30"/>
       <use x="127.246094" xlink:href="#DejaVuSans-31"/>
       <use x="190.869141" xlink:href="#DejaVuSans-31"/>
       <use x="254.492188" xlink:href="#DejaVuSans-2d"/>
       <use x="290.576172" xlink:href="#DejaVuSans-30"/>
       <use x="354.199219" xlink:href="#DejaVuSans-33"/>
      </g>
     </g>
    </g>
    <g id="xtick_14">
     <g id="line2d_14">
      <g>
       <use style="stroke:#000000;stroke-width:0.8;" x="322.376668" xlink:href="#m5c3b67fd8b" y="858.674"/>
      </g>
     </g>
     <g id="text_14">
      <!-- 2011-06 -->
      <g transform="translate(325.136043 907.456812)rotate(-90)scale(0.1 -0.1)">
       <use xlink:href="#DejaVuSans-32"/>
       <use x="63.623047" xlink:href="#DejaVuSans-30"/>
       <use x="127.246094" xlink:href="#DejaVuSans-31"/>
       <use x="190.869141" xlink:href="#DejaVuSans-31"/>
       <use x="254.492188" xlink:href="#DejaVuSans-2d"/>
       <use x="290.576172" xlink:href="#DejaVuSans-30"/>
       <use x="354.199219" xlink:href="#DejaVuSans-36"/>
      </g>
     </g>
    </g>
    <g id="xtick_15">
     <g id="line2d_15">
      <g>
       <use style="stroke:#000000;stroke-width:0.8;" x="342.695686" xlink:href="#m5c3b67fd8b" y="858.674"/>
      </g>
     </g>
     <g id="text_15">
      <!-- 2011-09 -->
      <g transform="translate(345.455061 907.456812)rotate(-90)scale(0.1 -0.1)">
       <use xlink:href="#DejaVuSans-32"/>
       <use x="63.623047" xlink:href="#DejaVuSans-30"/>
       <use x="127.246094" xlink:href="#DejaVuSans-31"/>
       <use x="190.869141" xlink:href="#DejaVuSans-31"/>
       <use x="254.492188" xlink:href="#DejaVuSans-2d"/>
       <use x="290.576172" xlink:href="#DejaVuSans-30"/>
       <use x="354.199219" xlink:href="#DejaVuSans-39"/>
      </g>
     </g>
    </g>
    <g id="xtick_16">
     <g id="line2d_16">
      <g>
       <use style="stroke:#000000;stroke-width:0.8;" x="362.793846" xlink:href="#m5c3b67fd8b" y="858.674"/>
      </g>
     </g>
     <g id="text_16">
      <!-- 2011-12 -->
      <g transform="translate(365.553221 907.456812)rotate(-90)scale(0.1 -0.1)">
       <use xlink:href="#DejaVuSans-32"/>
       <use x="63.623047" xlink:href="#DejaVuSans-30"/>
       <use x="127.246094" xlink:href="#DejaVuSans-31"/>
       <use x="190.869141" xlink:href="#DejaVuSans-31"/>
       <use x="254.492188" xlink:href="#DejaVuSans-2d"/>
       <use x="290.576172" xlink:href="#DejaVuSans-31"/>
       <use x="354.199219" xlink:href="#DejaVuSans-32"/>
      </g>
     </g>
    </g>
    <g id="xtick_17">
     <g id="line2d_17">
      <g>
       <use style="stroke:#000000;stroke-width:0.8;" x="382.892005" xlink:href="#m5c3b67fd8b" y="858.674"/>
      </g>
     </g>
     <g id="text_17">
      <!-- 2012-03 -->
      <g transform="translate(385.65138 907.456812)rotate(-90)scale(0.1 -0.1)">
       <use xlink:href="#DejaVuSans-32"/>
       <use x="63.623047" xlink:href="#DejaVuSans-30"/>
       <use x="127.246094" xlink:href="#DejaVuSans-31"/>
       <use x="190.869141" xlink:href="#DejaVuSans-32"/>
       <use x="254.492188" xlink:href="#DejaVuSans-2d"/>
       <use x="290.576172" xlink:href="#DejaVuSans-30"/>
       <use x="354.199219" xlink:href="#DejaVuSans-33"/>
      </g>
     </g>
    </g>
    <g id="xtick_18">
     <g id="line2d_18">
      <g>
       <use style="stroke:#000000;stroke-width:0.8;" x="403.211024" xlink:href="#m5c3b67fd8b" y="858.674"/>
      </g>
     </g>
     <g id="text_18">
      <!-- 2012-06 -->
      <g transform="translate(405.970399 907.456812)rotate(-90)scale(0.1 -0.1)">
       <use xlink:href="#DejaVuSans-32"/>
       <use x="63.623047" xlink:href="#DejaVuSans-30"/>
       <use x="127.246094" xlink:href="#DejaVuSans-31"/>
       <use x="190.869141" xlink:href="#DejaVuSans-32"/>
       <use x="254.492188" xlink:href="#DejaVuSans-2d"/>
       <use x="290.576172" xlink:href="#DejaVuSans-30"/>
       <use x="354.199219" xlink:href="#DejaVuSans-36"/>
      </g>
     </g>
    </g>
    <g id="xtick_19">
     <g id="line2d_19">
      <g>
       <use style="stroke:#000000;stroke-width:0.8;" x="423.530042" xlink:href="#m5c3b67fd8b" y="858.674"/>
      </g>
     </g>
     <g id="text_19">
      <!-- 2012-09 -->
      <g transform="translate(426.289417 907.456812)rotate(-90)scale(0.1 -0.1)">
       <use xlink:href="#DejaVuSans-32"/>
       <use x="63.623047" xlink:href="#DejaVuSans-30"/>
       <use x="127.246094" xlink:href="#DejaVuSans-31"/>
       <use x="190.869141" xlink:href="#DejaVuSans-32"/>
       <use x="254.492188" xlink:href="#DejaVuSans-2d"/>
       <use x="290.576172" xlink:href="#DejaVuSans-30"/>
       <use x="354.199219" xlink:href="#DejaVuSans-39"/>
      </g>
     </g>
    </g>
    <g id="xtick_20">
     <g id="line2d_20">
      <g>
       <use style="stroke:#000000;stroke-width:0.8;" x="443.628202" xlink:href="#m5c3b67fd8b" y="858.674"/>
      </g>
     </g>
     <g id="text_20">
      <!-- 2012-12 -->
      <g transform="translate(446.387577 907.456812)rotate(-90)scale(0.1 -0.1)">
       <use xlink:href="#DejaVuSans-32"/>
       <use x="63.623047" xlink:href="#DejaVuSans-30"/>
       <use x="127.246094" xlink:href="#DejaVuSans-31"/>
       <use x="190.869141" xlink:href="#DejaVuSans-32"/>
       <use x="254.492188" xlink:href="#DejaVuSans-2d"/>
       <use x="290.576172" xlink:href="#DejaVuSans-31"/>
       <use x="354.199219" xlink:href="#DejaVuSans-32"/>
      </g>
     </g>
    </g>
    <g id="xtick_21">
     <g id="line2d_21">
      <g>
       <use style="stroke:#000000;stroke-width:0.8;" x="463.505502" xlink:href="#m5c3b67fd8b" y="858.674"/>
      </g>
     </g>
     <g id="text_21">
      <!-- 2013-03 -->
      <g transform="translate(466.264877 907.456812)rotate(-90)scale(0.1 -0.1)">
       <use xlink:href="#DejaVuSans-32"/>
       <use x="63.623047" xlink:href="#DejaVuSans-30"/>
       <use x="127.246094" xlink:href="#DejaVuSans-31"/>
       <use x="190.869141" xlink:href="#DejaVuSans-33"/>
       <use x="254.492188" xlink:href="#DejaVuSans-2d"/>
       <use x="290.576172" xlink:href="#DejaVuSans-30"/>
       <use x="354.199219" xlink:href="#DejaVuSans-33"/>
      </g>
     </g>
    </g>
    <g id="xtick_22">
     <g id="line2d_22">
      <g>
       <use style="stroke:#000000;stroke-width:0.8;" x="483.824521" xlink:href="#m5c3b67fd8b" y="858.674"/>
      </g>
     </g>
     <g id="text_22">
      <!-- 2013-06 -->
      <g transform="translate(486.583896 907.456812)rotate(-90)scale(0.1 -0.1)">
       <use xlink:href="#DejaVuSans-32"/>
       <use x="63.623047" xlink:href="#DejaVuSans-30"/>
       <use x="127.246094" xlink:href="#DejaVuSans-31"/>
       <use x="190.869141" xlink:href="#DejaVuSans-33"/>
       <use x="254.492188" xlink:href="#DejaVuSans-2d"/>
       <use x="290.576172" xlink:href="#DejaVuSans-30"/>
       <use x="354.199219" xlink:href="#DejaVuSans-36"/>
      </g>
     </g>
    </g>
    <g id="xtick_23">
     <g id="line2d_23">
      <g>
       <use style="stroke:#000000;stroke-width:0.8;" x="504.143539" xlink:href="#m5c3b67fd8b" y="858.674"/>
      </g>
     </g>
     <g id="text_23">
      <!-- 2013-09 -->
      <g transform="translate(506.902914 907.456812)rotate(-90)scale(0.1 -0.1)">
       <use xlink:href="#DejaVuSans-32"/>
       <use x="63.623047" xlink:href="#DejaVuSans-30"/>
       <use x="127.246094" xlink:href="#DejaVuSans-31"/>
       <use x="190.869141" xlink:href="#DejaVuSans-33"/>
       <use x="254.492188" xlink:href="#DejaVuSans-2d"/>
       <use x="290.576172" xlink:href="#DejaVuSans-30"/>
       <use x="354.199219" xlink:href="#DejaVuSans-39"/>
      </g>
     </g>
    </g>
    <g id="xtick_24">
     <g id="line2d_24">
      <g>
       <use style="stroke:#000000;stroke-width:0.8;" x="524.241699" xlink:href="#m5c3b67fd8b" y="858.674"/>
      </g>
     </g>
     <g id="text_24">
      <!-- 2013-12 -->
      <g transform="translate(527.001074 907.456812)rotate(-90)scale(0.1 -0.1)">
       <use xlink:href="#DejaVuSans-32"/>
       <use x="63.623047" xlink:href="#DejaVuSans-30"/>
       <use x="127.246094" xlink:href="#DejaVuSans-31"/>
       <use x="190.869141" xlink:href="#DejaVuSans-33"/>
       <use x="254.492188" xlink:href="#DejaVuSans-2d"/>
       <use x="290.576172" xlink:href="#DejaVuSans-31"/>
       <use x="354.199219" xlink:href="#DejaVuSans-32"/>
      </g>
     </g>
    </g>
    <g id="xtick_25">
     <g id="line2d_25">
      <g>
       <use style="stroke:#000000;stroke-width:0.8;" x="544.118999" xlink:href="#m5c3b67fd8b" y="858.674"/>
      </g>
     </g>
     <g id="text_25">
      <!-- 2014-03 -->
      <g transform="translate(546.878374 907.456812)rotate(-90)scale(0.1 -0.1)">
       <defs>
        <path d="M 2419 4116 
L 825 1625 
L 2419 1625 
L 2419 4116 
z
M 2253 4666 
L 3047 4666 
L 3047 1625 
L 3713 1625 
L 3713 1100 
L 3047 1100 
L 3047 0 
L 2419 0 
L 2419 1100 
L 313 1100 
L 313 1709 
L 2253 4666 
z
" id="DejaVuSans-34" transform="scale(0.015625)"/>
       </defs>
       <use xlink:href="#DejaVuSans-32"/>
       <use x="63.623047" xlink:href="#DejaVuSans-30"/>
       <use x="127.246094" xlink:href="#DejaVuSans-31"/>
       <use x="190.869141" xlink:href="#DejaVuSans-34"/>
       <use x="254.492188" xlink:href="#DejaVuSans-2d"/>
       <use x="290.576172" xlink:href="#DejaVuSans-30"/>
       <use x="354.199219" xlink:href="#DejaVuSans-33"/>
      </g>
     </g>
    </g>
    <g id="xtick_26">
     <g id="line2d_26">
      <g>
       <use style="stroke:#000000;stroke-width:0.8;" x="564.438018" xlink:href="#m5c3b67fd8b" y="858.674"/>
      </g>
     </g>
     <g id="text_26">
      <!-- 2014-06 -->
      <g transform="translate(567.197393 907.456812)rotate(-90)scale(0.1 -0.1)">
       <use xlink:href="#DejaVuSans-32"/>
       <use x="63.623047" xlink:href="#DejaVuSans-30"/>
       <use x="127.246094" xlink:href="#DejaVuSans-31"/>
       <use x="190.869141" xlink:href="#DejaVuSans-34"/>
       <use x="254.492188" xlink:href="#DejaVuSans-2d"/>
       <use x="290.576172" xlink:href="#DejaVuSans-30"/>
       <use x="354.199219" xlink:href="#DejaVuSans-36"/>
      </g>
     </g>
    </g>
    <g id="xtick_27">
     <g id="line2d_27">
      <g>
       <use style="stroke:#000000;stroke-width:0.8;" x="584.757036" xlink:href="#m5c3b67fd8b" y="858.674"/>
      </g>
     </g>
     <g id="text_27">
      <!-- 2014-09 -->
      <g transform="translate(587.516411 907.456812)rotate(-90)scale(0.1 -0.1)">
       <use xlink:href="#DejaVuSans-32"/>
       <use x="63.623047" xlink:href="#DejaVuSans-30"/>
       <use x="127.246094" xlink:href="#DejaVuSans-31"/>
       <use x="190.869141" xlink:href="#DejaVuSans-34"/>
       <use x="254.492188" xlink:href="#DejaVuSans-2d"/>
       <use x="290.576172" xlink:href="#DejaVuSans-30"/>
       <use x="354.199219" xlink:href="#DejaVuSans-39"/>
      </g>
     </g>
    </g>
    <g id="xtick_28">
     <g id="line2d_28">
      <g>
       <use style="stroke:#000000;stroke-width:0.8;" x="604.855196" xlink:href="#m5c3b67fd8b" y="858.674"/>
      </g>
     </g>
     <g id="text_28">
      <!-- 2014-12 -->
      <g transform="translate(607.614571 907.456812)rotate(-90)scale(0.1 -0.1)">
       <use xlink:href="#DejaVuSans-32"/>
       <use x="63.623047" xlink:href="#DejaVuSans-30"/>
       <use x="127.246094" xlink:href="#DejaVuSans-31"/>
       <use x="190.869141" xlink:href="#DejaVuSans-34"/>
       <use x="254.492188" xlink:href="#DejaVuSans-2d"/>
       <use x="290.576172" xlink:href="#DejaVuSans-31"/>
       <use x="354.199219" xlink:href="#DejaVuSans-32"/>
      </g>
     </g>
    </g>
    <g id="xtick_29">
     <g id="line2d_29">
      <g>
       <use style="stroke:#000000;stroke-width:0.8;" x="624.732496" xlink:href="#m5c3b67fd8b" y="858.674"/>
      </g>
     </g>
     <g id="text_29">
      <!-- 2015-03 -->
      <g transform="translate(627.491871 907.456812)rotate(-90)scale(0.1 -0.1)">
       <defs>
        <path d="M 691 4666 
L 3169 4666 
L 3169 4134 
L 1269 4134 
L 1269 2991 
Q 1406 3038 1543 3061 
Q 1681 3084 1819 3084 
Q 2600 3084 3056 2656 
Q 3513 2228 3513 1497 
Q 3513 744 3044 326 
Q 2575 -91 1722 -91 
Q 1428 -91 1123 -41 
Q 819 9 494 109 
L 494 744 
Q 775 591 1075 516 
Q 1375 441 1709 441 
Q 2250 441 2565 725 
Q 2881 1009 2881 1497 
Q 2881 1984 2565 2268 
Q 2250 2553 1709 2553 
Q 1456 2553 1204 2497 
Q 953 2441 691 2322 
L 691 4666 
z
" id="DejaVuSans-35" transform="scale(0.015625)"/>
       </defs>
       <use xlink:href="#DejaVuSans-32"/>
       <use x="63.623047" xlink:href="#DejaVuSans-30"/>
       <use x="127.246094" xlink:href="#DejaVuSans-31"/>
       <use x="190.869141" xlink:href="#DejaVuSans-35"/>
       <use x="254.492188" xlink:href="#DejaVuSans-2d"/>
       <use x="290.576172" xlink:href="#DejaVuSans-30"/>
       <use x="354.199219" xlink:href="#DejaVuSans-33"/>
      </g>
     </g>
    </g>
    <g id="xtick_30">
     <g id="line2d_30">
      <g>
       <use style="stroke:#000000;stroke-width:0.8;" x="645.051515" xlink:href="#m5c3b67fd8b" y="858.674"/>
      </g>
     </g>
     <g id="text_30">
      <!-- 2015-06 -->
      <g transform="translate(647.81089 907.456812)rotate(-90)scale(0.1 -0.1)">
       <use xlink:href="#DejaVuSans-32"/>
       <use x="63.623047" xlink:href="#DejaVuSans-30"/>
       <use x="127.246094" xlink:href="#DejaVuSans-31"/>
       <use x="190.869141" xlink:href="#DejaVuSans-35"/>
       <use x="254.492188" xlink:href="#DejaVuSans-2d"/>
       <use x="290.576172" xlink:href="#DejaVuSans-30"/>
       <use x="354.199219" xlink:href="#DejaVuSans-36"/>
      </g>
     </g>
    </g>
    <g id="xtick_31">
     <g id="line2d_31">
      <g>
       <use style="stroke:#000000;stroke-width:0.8;" x="665.370533" xlink:href="#m5c3b67fd8b" y="858.674"/>
      </g>
     </g>
     <g id="text_31">
      <!-- 2015-09 -->
      <g transform="translate(668.129908 907.456812)rotate(-90)scale(0.1 -0.1)">
       <use xlink:href="#DejaVuSans-32"/>
       <use x="63.623047" xlink:href="#DejaVuSans-30"/>
       <use x="127.246094" xlink:href="#DejaVuSans-31"/>
       <use x="190.869141" xlink:href="#DejaVuSans-35"/>
       <use x="254.492188" xlink:href="#DejaVuSans-2d"/>
       <use x="290.576172" xlink:href="#DejaVuSans-30"/>
       <use x="354.199219" xlink:href="#DejaVuSans-39"/>
      </g>
     </g>
    </g>
    <g id="xtick_32">
     <g id="line2d_32">
      <g>
       <use style="stroke:#000000;stroke-width:0.8;" x="685.468692" xlink:href="#m5c3b67fd8b" y="858.674"/>
      </g>
     </g>
     <g id="text_32">
      <!-- 2015-12 -->
      <g transform="translate(688.228067 907.456812)rotate(-90)scale(0.1 -0.1)">
       <use xlink:href="#DejaVuSans-32"/>
       <use x="63.623047" xlink:href="#DejaVuSans-30"/>
       <use x="127.246094" xlink:href="#DejaVuSans-31"/>
       <use x="190.869141" xlink:href="#DejaVuSans-35"/>
       <use x="254.492188" xlink:href="#DejaVuSans-2d"/>
       <use x="290.576172" xlink:href="#DejaVuSans-31"/>
       <use x="354.199219" xlink:href="#DejaVuSans-32"/>
      </g>
     </g>
    </g>
    <g id="xtick_33">
     <g id="line2d_33">
      <g>
       <use style="stroke:#000000;stroke-width:0.8;" x="705.566852" xlink:href="#m5c3b67fd8b" y="858.674"/>
      </g>
     </g>
     <g id="text_33">
      <!-- 2016-03 -->
      <g transform="translate(708.326227 907.456812)rotate(-90)scale(0.1 -0.1)">
       <use xlink:href="#DejaVuSans-32"/>
       <use x="63.623047" xlink:href="#DejaVuSans-30"/>
       <use x="127.246094" xlink:href="#DejaVuSans-31"/>
       <use x="190.869141" xlink:href="#DejaVuSans-36"/>
       <use x="254.492188" xlink:href="#DejaVuSans-2d"/>
       <use x="290.576172" xlink:href="#DejaVuSans-30"/>
       <use x="354.199219" xlink:href="#DejaVuSans-33"/>
      </g>
     </g>
    </g>
    <g id="xtick_34">
     <g id="line2d_34">
      <g>
       <use style="stroke:#000000;stroke-width:0.8;" x="725.88587" xlink:href="#m5c3b67fd8b" y="858.674"/>
      </g>
     </g>
     <g id="text_34">
      <!-- 2016-06 -->
      <g transform="translate(728.645245 907.456812)rotate(-90)scale(0.1 -0.1)">
       <use xlink:href="#DejaVuSans-32"/>
       <use x="63.623047" xlink:href="#DejaVuSans-30"/>
       <use x="127.246094" xlink:href="#DejaVuSans-31"/>
       <use x="190.869141" xlink:href="#DejaVuSans-36"/>
       <use x="254.492188" xlink:href="#DejaVuSans-2d"/>
       <use x="290.576172" xlink:href="#DejaVuSans-30"/>
       <use x="354.199219" xlink:href="#DejaVuSans-36"/>
      </g>
     </g>
    </g>
    <g id="xtick_35">
     <g id="line2d_35">
      <g>
       <use style="stroke:#000000;stroke-width:0.8;" x="746.204889" xlink:href="#m5c3b67fd8b" y="858.674"/>
      </g>
     </g>
     <g id="text_35">
      <!-- 2016-09 -->
      <g transform="translate(748.964264 907.456812)rotate(-90)scale(0.1 -0.1)">
       <use xlink:href="#DejaVuSans-32"/>
       <use x="63.623047" xlink:href="#DejaVuSans-30"/>
       <use x="127.246094" xlink:href="#DejaVuSans-31"/>
       <use x="190.869141" xlink:href="#DejaVuSans-36"/>
       <use x="254.492188" xlink:href="#DejaVuSans-2d"/>
       <use x="290.576172" xlink:href="#DejaVuSans-30"/>
       <use x="354.199219" xlink:href="#DejaVuSans-39"/>
      </g>
     </g>
    </g>
    <g id="xtick_36">
     <g id="line2d_36">
      <g>
       <use style="stroke:#000000;stroke-width:0.8;" x="766.303048" xlink:href="#m5c3b67fd8b" y="858.674"/>
      </g>
     </g>
     <g id="text_36">
      <!-- 2016-12 -->
      <g transform="translate(769.062423 907.456812)rotate(-90)scale(0.1 -0.1)">
       <use xlink:href="#DejaVuSans-32"/>
       <use x="63.623047" xlink:href="#DejaVuSans-30"/>
       <use x="127.246094" xlink:href="#DejaVuSans-31"/>
       <use x="190.869141" xlink:href="#DejaVuSans-36"/>
       <use x="254.492188" xlink:href="#DejaVuSans-2d"/>
       <use x="290.576172" xlink:href="#DejaVuSans-31"/>
       <use x="354.199219" xlink:href="#DejaVuSans-32"/>
      </g>
     </g>
    </g>
    <g id="xtick_37">
     <g id="line2d_37">
      <g>
       <use style="stroke:#000000;stroke-width:0.8;" x="786.180349" xlink:href="#m5c3b67fd8b" y="858.674"/>
      </g>
     </g>
     <g id="text_37">
      <!-- 2017-03 -->
      <g transform="translate(788.939724 907.456812)rotate(-90)scale(0.1 -0.1)">
       <defs>
        <path d="M 525 4666 
L 3525 4666 
L 3525 4397 
L 1831 0 
L 1172 0 
L 2766 4134 
L 525 4134 
L 525 4666 
z
" id="DejaVuSans-37" transform="scale(0.015625)"/>
       </defs>
       <use xlink:href="#DejaVuSans-32"/>
       <use x="63.623047" xlink:href="#DejaVuSans-30"/>
       <use x="127.246094" xlink:href="#DejaVuSans-31"/>
       <use x="190.869141" xlink:href="#DejaVuSans-37"/>
       <use x="254.492188" xlink:href="#DejaVuSans-2d"/>
       <use x="290.576172" xlink:href="#DejaVuSans-30"/>
       <use x="354.199219" xlink:href="#DejaVuSans-33"/>
      </g>
     </g>
    </g>
    <g id="xtick_38">
     <g id="line2d_38">
      <g>
       <use style="stroke:#000000;stroke-width:0.8;" x="806.499367" xlink:href="#m5c3b67fd8b" y="858.674"/>
      </g>
     </g>
     <g id="text_38">
      <!-- 2017-06 -->
      <g transform="translate(809.258742 907.456812)rotate(-90)scale(0.1 -0.1)">
       <use xlink:href="#DejaVuSans-32"/>
       <use x="63.623047" xlink:href="#DejaVuSans-30"/>
       <use x="127.246094" xlink:href="#DejaVuSans-31"/>
       <use x="190.869141" xlink:href="#DejaVuSans-37"/>
       <use x="254.492188" xlink:href="#DejaVuSans-2d"/>
       <use x="290.576172" xlink:href="#DejaVuSans-30"/>
       <use x="354.199219" xlink:href="#DejaVuSans-36"/>
      </g>
     </g>
    </g>
    <g id="xtick_39">
     <g id="line2d_39">
      <g>
       <use style="stroke:#000000;stroke-width:0.8;" x="826.818386" xlink:href="#m5c3b67fd8b" y="858.674"/>
      </g>
     </g>
     <g id="text_39">
      <!-- 2017-09 -->
      <g transform="translate(829.577761 907.456812)rotate(-90)scale(0.1 -0.1)">
       <use xlink:href="#DejaVuSans-32"/>
       <use x="63.623047" xlink:href="#DejaVuSans-30"/>
       <use x="127.246094" xlink:href="#DejaVuSans-31"/>
       <use x="190.869141" xlink:href="#DejaVuSans-37"/>
       <use x="254.492188" xlink:href="#DejaVuSans-2d"/>
       <use x="290.576172" xlink:href="#DejaVuSans-30"/>
       <use x="354.199219" xlink:href="#DejaVuSans-39"/>
      </g>
     </g>
    </g>
    <g id="xtick_40">
     <g id="line2d_40">
      <g>
       <use style="stroke:#000000;stroke-width:0.8;" x="846.916545" xlink:href="#m5c3b67fd8b" y="858.674"/>
      </g>
     </g>
     <g id="text_40">
      <!-- 2017-12 -->
      <g transform="translate(849.67592 907.456812)rotate(-90)scale(0.1 -0.1)">
       <use xlink:href="#DejaVuSans-32"/>
       <use x="63.623047" xlink:href="#DejaVuSans-30"/>
       <use x="127.246094" xlink:href="#DejaVuSans-31"/>
       <use x="190.869141" xlink:href="#DejaVuSans-37"/>
       <use x="254.492188" xlink:href="#DejaVuSans-2d"/>
       <use x="290.576172" xlink:href="#DejaVuSans-31"/>
       <use x="354.199219" xlink:href="#DejaVuSans-32"/>
      </g>
     </g>
    </g>
    <g id="xtick_41">
     <g id="line2d_41">
      <g>
       <use style="stroke:#000000;stroke-width:0.8;" x="866.793846" xlink:href="#m5c3b67fd8b" y="858.674"/>
      </g>
     </g>
     <g id="text_41">
      <!-- 2018-03 -->
      <g transform="translate(869.553221 907.456812)rotate(-90)scale(0.1 -0.1)">
       <use xlink:href="#DejaVuSans-32"/>
       <use x="63.623047" xlink:href="#DejaVuSans-30"/>
       <use x="127.246094" xlink:href="#DejaVuSans-31"/>
       <use x="190.869141" xlink:href="#DejaVuSans-38"/>
       <use x="254.492188" xlink:href="#DejaVuSans-2d"/>
       <use x="290.576172" xlink:href="#DejaVuSans-30"/>
       <use x="354.199219" xlink:href="#DejaVuSans-33"/>
      </g>
     </g>
    </g>
    <g id="xtick_42">
     <g id="line2d_42">
      <g>
       <use style="stroke:#000000;stroke-width:0.8;" x="887.112864" xlink:href="#m5c3b67fd8b" y="858.674"/>
      </g>
     </g>
     <g id="text_42">
      <!-- 2018-06 -->
      <g transform="translate(889.872239 907.456812)rotate(-90)scale(0.1 -0.1)">
       <use xlink:href="#DejaVuSans-32"/>
       <use x="63.623047" xlink:href="#DejaVuSans-30"/>
       <use x="127.246094" xlink:href="#DejaVuSans-31"/>
       <use x="190.869141" xlink:href="#DejaVuSans-38"/>
       <use x="254.492188" xlink:href="#DejaVuSans-2d"/>
       <use x="290.576172" xlink:href="#DejaVuSans-30"/>
       <use x="354.199219" xlink:href="#DejaVuSans-36"/>
      </g>
     </g>
    </g>
    <g id="xtick_43">
     <g id="line2d_43">
      <g>
       <use style="stroke:#000000;stroke-width:0.8;" x="907.431883" xlink:href="#m5c3b67fd8b" y="858.674"/>
      </g>
     </g>
     <g id="text_43">
      <!-- 2018-09 -->
      <g transform="translate(910.191258 907.456812)rotate(-90)scale(0.1 -0.1)">
       <use xlink:href="#DejaVuSans-32"/>
       <use x="63.623047" xlink:href="#DejaVuSans-30"/>
       <use x="127.246094" xlink:href="#DejaVuSans-31"/>
       <use x="190.869141" xlink:href="#DejaVuSans-38"/>
       <use x="254.492188" xlink:href="#DejaVuSans-2d"/>
       <use x="290.576172" xlink:href="#DejaVuSans-30"/>
       <use x="354.199219" xlink:href="#DejaVuSans-39"/>
      </g>
     </g>
    </g>
    <g id="xtick_44">
     <g id="line2d_44">
      <g>
       <use style="stroke:#000000;stroke-width:0.8;" x="927.530042" xlink:href="#m5c3b67fd8b" y="858.674"/>
      </g>
     </g>
     <g id="text_44">
      <!-- 2018-12 -->
      <g transform="translate(930.289417 907.456812)rotate(-90)scale(0.1 -0.1)">
       <use xlink:href="#DejaVuSans-32"/>
       <use x="63.623047" xlink:href="#DejaVuSans-30"/>
       <use x="127.246094" xlink:href="#DejaVuSans-31"/>
       <use x="190.869141" xlink:href="#DejaVuSans-38"/>
       <use x="254.492188" xlink:href="#DejaVuSans-2d"/>
       <use x="290.576172" xlink:href="#DejaVuSans-31"/>
       <use x="354.199219" xlink:href="#DejaVuSans-32"/>
      </g>
     </g>
    </g>
    <g id="xtick_45">
     <g id="line2d_45">
      <g>
       <use style="stroke:#000000;stroke-width:0.8;" x="947.407343" xlink:href="#m5c3b67fd8b" y="858.674"/>
      </g>
     </g>
     <g id="text_45">
      <!-- 2019-03 -->
      <g transform="translate(950.166718 907.456812)rotate(-90)scale(0.1 -0.1)">
       <use xlink:href="#DejaVuSans-32"/>
       <use x="63.623047" xlink:href="#DejaVuSans-30"/>
       <use x="127.246094" xlink:href="#DejaVuSans-31"/>
       <use x="190.869141" xlink:href="#DejaVuSans-39"/>
       <use x="254.492188" xlink:href="#DejaVuSans-2d"/>
       <use x="290.576172" xlink:href="#DejaVuSans-30"/>
       <use x="354.199219" xlink:href="#DejaVuSans-33"/>
      </g>
     </g>
    </g>
    <g id="xtick_46">
     <g id="line2d_46">
      <g>
       <use style="stroke:#000000;stroke-width:0.8;" x="967.726361" xlink:href="#m5c3b67fd8b" y="858.674"/>
      </g>
     </g>
     <g id="text_46">
      <!-- 2019-06 -->
      <g transform="translate(970.485736 907.456812)rotate(-90)scale(0.1 -0.1)">
       <use xlink:href="#DejaVuSans-32"/>
       <use x="63.623047" xlink:href="#DejaVuSans-30"/>
       <use x="127.246094" xlink:href="#DejaVuSans-31"/>
       <use x="190.869141" xlink:href="#DejaVuSans-39"/>
       <use x="254.492188" xlink:href="#DejaVuSans-2d"/>
       <use x="290.576172" xlink:href="#DejaVuSans-30"/>
       <use x="354.199219" xlink:href="#DejaVuSans-36"/>
      </g>
     </g>
    </g>
    <g id="xtick_47">
     <g id="line2d_47">
      <g>
       <use style="stroke:#000000;stroke-width:0.8;" x="988.04538" xlink:href="#m5c3b67fd8b" y="858.674"/>
      </g>
     </g>
     <g id="text_47">
      <!-- 2019-09 -->
      <g transform="translate(990.804755 907.456812)rotate(-90)scale(0.1 -0.1)">
       <use xlink:href="#DejaVuSans-32"/>
       <use x="63.623047" xlink:href="#DejaVuSans-30"/>
       <use x="127.246094" xlink:href="#DejaVuSans-31"/>
       <use x="190.869141" xlink:href="#DejaVuSans-39"/>
       <use x="254.492188" xlink:href="#DejaVuSans-2d"/>
       <use x="290.576172" xlink:href="#DejaVuSans-30"/>
       <use x="354.199219" xlink:href="#DejaVuSans-39"/>
      </g>
     </g>
    </g>
    <g id="xtick_48">
     <g id="line2d_48">
      <g>
       <use style="stroke:#000000;stroke-width:0.8;" x="1008.143539" xlink:href="#m5c3b67fd8b" y="858.674"/>
      </g>
     </g>
     <g id="text_48">
      <!-- 2019-12 -->
      <g transform="translate(1010.902914 907.456812)rotate(-90)scale(0.1 -0.1)">
       <use xlink:href="#DejaVuSans-32"/>
       <use x="63.623047" xlink:href="#DejaVuSans-30"/>
       <use x="127.246094" xlink:href="#DejaVuSans-31"/>
       <use x="190.869141" xlink:href="#DejaVuSans-39"/>
       <use x="254.492188" xlink:href="#DejaVuSans-2d"/>
       <use x="290.576172" xlink:href="#DejaVuSans-31"/>
       <use x="354.199219" xlink:href="#DejaVuSans-32"/>
      </g>
     </g>
    </g>
    <g id="xtick_49">
     <g id="line2d_49">
      <g>
       <use style="stroke:#000000;stroke-width:0.8;" x="1028.241699" xlink:href="#m5c3b67fd8b" y="858.674"/>
      </g>
     </g>
     <g id="text_49">
      <!-- 2020-03 -->
      <g transform="translate(1031.001074 907.456812)rotate(-90)scale(0.1 -0.1)">
       <use xlink:href="#DejaVuSans-32"/>
       <use x="63.623047" xlink:href="#DejaVuSans-30"/>
       <use x="127.246094" xlink:href="#DejaVuSans-32"/>
       <use x="190.869141" xlink:href="#DejaVuSans-30"/>
       <use x="254.492188" xlink:href="#DejaVuSans-2d"/>
       <use x="290.576172" xlink:href="#DejaVuSans-30"/>
       <use x="354.199219" xlink:href="#DejaVuSans-33"/>
      </g>
     </g>
    </g>
    <g id="xtick_50">
     <g id="line2d_50">
      <g>
       <use style="stroke:#000000;stroke-width:0.8;" x="1048.560717" xlink:href="#m5c3b67fd8b" y="858.674"/>
      </g>
     </g>
     <g id="text_50">
      <!-- 2020-06 -->
      <g transform="translate(1051.320092 907.456812)rotate(-90)scale(0.1 -0.1)">
       <use xlink:href="#DejaVuSans-32"/>
       <use x="63.623047" xlink:href="#DejaVuSans-30"/>
       <use x="127.246094" xlink:href="#DejaVuSans-32"/>
       <use x="190.869141" xlink:href="#DejaVuSans-30"/>
       <use x="254.492188" xlink:href="#DejaVuSans-2d"/>
       <use x="290.576172" xlink:href="#DejaVuSans-30"/>
       <use x="354.199219" xlink:href="#DejaVuSans-36"/>
      </g>
     </g>
    </g>
    <g id="xtick_51">
     <g id="line2d_51">
      <g>
       <use style="stroke:#000000;stroke-width:0.8;" x="1068.879735" xlink:href="#m5c3b67fd8b" y="858.674"/>
      </g>
     </g>
     <g id="text_51">
      <!-- 2020-09 -->
      <g transform="translate(1071.63911 907.456812)rotate(-90)scale(0.1 -0.1)">
       <use xlink:href="#DejaVuSans-32"/>
       <use x="63.623047" xlink:href="#DejaVuSans-30"/>
       <use x="127.246094" xlink:href="#DejaVuSans-32"/>
       <use x="190.869141" xlink:href="#DejaVuSans-30"/>
       <use x="254.492188" xlink:href="#DejaVuSans-2d"/>
       <use x="290.576172" xlink:href="#DejaVuSans-30"/>
       <use x="354.199219" xlink:href="#DejaVuSans-39"/>
      </g>
     </g>
    </g>
    <g id="xtick_52">
     <g id="line2d_52">
      <g>
       <use style="stroke:#000000;stroke-width:0.8;" x="1088.977895" xlink:href="#m5c3b67fd8b" y="858.674"/>
      </g>
     </g>
     <g id="text_52">
      <!-- 2020-12 -->
      <g transform="translate(1091.73727 907.456812)rotate(-90)scale(0.1 -0.1)">
       <use xlink:href="#DejaVuSans-32"/>
       <use x="63.623047" xlink:href="#DejaVuSans-30"/>
       <use x="127.246094" xlink:href="#DejaVuSans-32"/>
       <use x="190.869141" xlink:href="#DejaVuSans-30"/>
       <use x="254.492188" xlink:href="#DejaVuSans-2d"/>
       <use x="290.576172" xlink:href="#DejaVuSans-31"/>
       <use x="354.199219" xlink:href="#DejaVuSans-32"/>
      </g>
     </g>
    </g>
    <g id="xtick_53">
     <g id="line2d_53">
      <g>
       <use style="stroke:#000000;stroke-width:0.8;" x="1108.855196" xlink:href="#m5c3b67fd8b" y="858.674"/>
      </g>
     </g>
     <g id="text_53">
      <!-- 2021-03 -->
      <g transform="translate(1111.614571 907.456812)rotate(-90)scale(0.1 -0.1)">
       <use xlink:href="#DejaVuSans-32"/>
       <use x="63.623047" xlink:href="#DejaVuSans-30"/>
       <use x="127.246094" xlink:href="#DejaVuSans-32"/>
       <use x="190.869141" xlink:href="#DejaVuSans-31"/>
       <use x="254.492188" xlink:href="#DejaVuSans-2d"/>
       <use x="290.576172" xlink:href="#DejaVuSans-30"/>
       <use x="354.199219" xlink:href="#DejaVuSans-33"/>
      </g>
     </g>
    </g>
    <g id="xtick_54">
     <g id="line2d_54">
      <g>
       <use style="stroke:#000000;stroke-width:0.8;" x="1129.174214" xlink:href="#m5c3b67fd8b" y="858.674"/>
      </g>
     </g>
     <g id="text_54">
      <!-- 2021-06 -->
      <g transform="translate(1131.933589 907.456812)rotate(-90)scale(0.1 -0.1)">
       <use xlink:href="#DejaVuSans-32"/>
       <use x="63.623047" xlink:href="#DejaVuSans-30"/>
       <use x="127.246094" xlink:href="#DejaVuSans-32"/>
       <use x="190.869141" xlink:href="#DejaVuSans-31"/>
       <use x="254.492188" xlink:href="#DejaVuSans-2d"/>
       <use x="290.576172" xlink:href="#DejaVuSans-30"/>
       <use x="354.199219" xlink:href="#DejaVuSans-36"/>
      </g>
     </g>
    </g>
    <g id="xtick_55">
     <g id="line2d_55">
      <g>
       <use style="stroke:#000000;stroke-width:0.8;" x="1149.493232" xlink:href="#m5c3b67fd8b" y="858.674"/>
      </g>
     </g>
     <g id="text_55">
      <!-- 2021-09 -->
      <g transform="translate(1152.252607 907.456812)rotate(-90)scale(0.1 -0.1)">
       <use xlink:href="#DejaVuSans-32"/>
       <use x="63.623047" xlink:href="#DejaVuSans-30"/>
       <use x="127.246094" xlink:href="#DejaVuSans-32"/>
       <use x="190.869141" xlink:href="#DejaVuSans-31"/>
       <use x="254.492188" xlink:href="#DejaVuSans-2d"/>
       <use x="290.576172" xlink:href="#DejaVuSans-30"/>
       <use x="354.199219" xlink:href="#DejaVuSans-39"/>
      </g>
     </g>
    </g>
    <g id="text_56">
     <!-- Time (Year-Month) -->
     <g transform="translate(559.497656 919.05525)scale(0.1 -0.1)">
      <defs>
       <path d="M -19 4666 
L 3928 4666 
L 3928 4134 
L 2272 4134 
L 2272 0 
L 1638 0 
L 1638 4134 
L -19 4134 
L -19 4666 
z
" id="DejaVuSans-54" transform="scale(0.015625)"/>
       <path d="M 603 3500 
L 1178 3500 
L 1178 0 
L 603 0 
L 603 3500 
z
M 603 4863 
L 1178 4863 
L 1178 4134 
L 603 4134 
L 603 4863 
z
" id="DejaVuSans-69" transform="scale(0.015625)"/>
       <path d="M 3328 2828 
Q 3544 3216 3844 3400 
Q 4144 3584 4550 3584 
Q 5097 3584 5394 3201 
Q 5691 2819 5691 2113 
L 5691 0 
L 5113 0 
L 5113 2094 
Q 5113 2597 4934 2840 
Q 4756 3084 4391 3084 
Q 3944 3084 3684 2787 
Q 3425 2491 3425 1978 
L 3425 0 
L 2847 0 
L 2847 2094 
Q 2847 2600 2669 2842 
Q 2491 3084 2119 3084 
Q 1678 3084 1418 2786 
Q 1159 2488 1159 1978 
L 1159 0 
L 581 0 
L 581 3500 
L 1159 3500 
L 1159 2956 
Q 1356 3278 1631 3431 
Q 1906 3584 2284 3584 
Q 2666 3584 2933 3390 
Q 3200 3197 3328 2828 
z
" id="DejaVuSans-6d" transform="scale(0.015625)"/>
       <path d="M 3597 1894 
L 3597 1613 
L 953 1613 
Q 991 1019 1311 708 
Q 1631 397 2203 397 
Q 2534 397 2845 478 
Q 3156 559 3463 722 
L 3463 178 
Q 3153 47 2828 -22 
Q 2503 -91 2169 -91 
Q 1331 -91 842 396 
Q 353 884 353 1716 
Q 353 2575 817 3079 
Q 1281 3584 2069 3584 
Q 2775 3584 3186 3129 
Q 3597 2675 3597 1894 
z
M 3022 2063 
Q 3016 2534 2758 2815 
Q 2500 3097 2075 3097 
Q 1594 3097 1305 2825 
Q 1016 2553 972 2059 
L 3022 2063 
z
" id="DejaVuSans-65" transform="scale(0.015625)"/>
       <path id="DejaVuSans-20" transform="scale(0.015625)"/>
       <path d="M 1984 4856 
Q 1566 4138 1362 3434 
Q 1159 2731 1159 2009 
Q 1159 1288 1364 580 
Q 1569 -128 1984 -844 
L 1484 -844 
Q 1016 -109 783 600 
Q 550 1309 550 2009 
Q 550 2706 781 3412 
Q 1013 4119 1484 4856 
L 1984 4856 
z
" id="DejaVuSans-28" transform="scale(0.015625)"/>
       <path d="M -13 4666 
L 666 4666 
L 1959 2747 
L 3244 4666 
L 3922 4666 
L 2272 2222 
L 2272 0 
L 1638 0 
L 1638 2222 
L -13 4666 
z
" id="DejaVuSans-59" transform="scale(0.015625)"/>
       <path d="M 2194 1759 
Q 1497 1759 1228 1600 
Q 959 1441 959 1056 
Q 959 750 1161 570 
Q 1363 391 1709 391 
Q 2188 391 2477 730 
Q 2766 1069 2766 1631 
L 2766 1759 
L 2194 1759 
z
M 3341 1997 
L 3341 0 
L 2766 0 
L 2766 531 
Q 2569 213 2275 61 
Q 1981 -91 1556 -91 
Q 1019 -91 701 211 
Q 384 513 384 1019 
Q 384 1609 779 1909 
Q 1175 2209 1959 2209 
L 2766 2209 
L 2766 2266 
Q 2766 2663 2505 2880 
Q 2244 3097 1772 3097 
Q 1472 3097 1187 3025 
Q 903 2953 641 2809 
L 641 3341 
Q 956 3463 1253 3523 
Q 1550 3584 1831 3584 
Q 2591 3584 2966 3190 
Q 3341 2797 3341 1997 
z
" id="DejaVuSans-61" transform="scale(0.015625)"/>
       <path d="M 2631 2963 
Q 2534 3019 2420 3045 
Q 2306 3072 2169 3072 
Q 1681 3072 1420 2755 
Q 1159 2438 1159 1844 
L 1159 0 
L 581 0 
L 581 3500 
L 1159 3500 
L 1159 2956 
Q 1341 3275 1631 3429 
Q 1922 3584 2338 3584 
Q 2397 3584 2469 3576 
Q 2541 3569 2628 3553 
L 2631 2963 
z
" id="DejaVuSans-72" transform="scale(0.015625)"/>
       <path d="M 628 4666 
L 1569 4666 
L 2759 1491 
L 3956 4666 
L 4897 4666 
L 4897 0 
L 4281 0 
L 4281 4097 
L 3078 897 
L 2444 897 
L 1241 4097 
L 1241 0 
L 628 0 
L 628 4666 
z
" id="DejaVuSans-4d" transform="scale(0.015625)"/>
       <path d="M 1959 3097 
Q 1497 3097 1228 2736 
Q 959 2375 959 1747 
Q 959 1119 1226 758 
Q 1494 397 1959 397 
Q 2419 397 2687 759 
Q 2956 1122 2956 1747 
Q 2956 2369 2687 2733 
Q 2419 3097 1959 3097 
z
M 1959 3584 
Q 2709 3584 3137 3096 
Q 3566 2609 3566 1747 
Q 3566 888 3137 398 
Q 2709 -91 1959 -91 
Q 1206 -91 779 398 
Q 353 888 353 1747 
Q 353 2609 779 3096 
Q 1206 3584 1959 3584 
z
" id="DejaVuSans-6f" transform="scale(0.015625)"/>
       <path d="M 3513 2113 
L 3513 0 
L 2938 0 
L 2938 2094 
Q 2938 2591 2744 2837 
Q 2550 3084 2163 3084 
Q 1697 3084 1428 2787 
Q 1159 2491 1159 1978 
L 1159 0 
L 581 0 
L 581 3500 
L 1159 3500 
L 1159 2956 
Q 1366 3272 1645 3428 
Q 1925 3584 2291 3584 
Q 2894 3584 3203 3211 
Q 3513 2838 3513 2113 
z
" id="DejaVuSans-6e" transform="scale(0.015625)"/>
       <path d="M 1172 4494 
L 1172 3500 
L 2356 3500 
L 2356 3053 
L 1172 3053 
L 1172 1153 
Q 1172 725 1289 603 
Q 1406 481 1766 481 
L 2356 481 
L 2356 0 
L 1766 0 
Q 1100 0 847 248 
Q 594 497 594 1153 
L 594 3053 
L 172 3053 
L 172 3500 
L 594 3500 
L 594 4494 
L 1172 4494 
z
" id="DejaVuSans-74" transform="scale(0.015625)"/>
       <path d="M 3513 2113 
L 3513 0 
L 2938 0 
L 2938 2094 
Q 2938 2591 2744 2837 
Q 2550 3084 2163 3084 
Q 1697 3084 1428 2787 
Q 1159 2491 1159 1978 
L 1159 0 
L 581 0 
L 581 4863 
L 1159 4863 
L 1159 2956 
Q 1366 3272 1645 3428 
Q 1925 3584 2291 3584 
Q 2894 3584 3203 3211 
Q 3513 2838 3513 2113 
z
" id="DejaVuSans-68" transform="scale(0.015625)"/>
       <path d="M 513 4856 
L 1013 4856 
Q 1481 4119 1714 3412 
Q 1947 2706 1947 2009 
Q 1947 1309 1714 600 
Q 1481 -109 1013 -844 
L 513 -844 
Q 928 -128 1133 580 
Q 1338 1288 1338 2009 
Q 1338 2731 1133 3434 
Q 928 4138 513 4856 
z
" id="DejaVuSans-29" transform="scale(0.015625)"/>
      </defs>
      <use xlink:href="#DejaVuSans-54"/>
      <use x="57.958984" xlink:href="#DejaVuSans-69"/>
      <use x="85.742188" xlink:href="#DejaVuSans-6d"/>
      <use x="183.154297" xlink:href="#DejaVuSans-65"/>
      <use x="244.677734" xlink:href="#DejaVuSans-20"/>
      <use x="276.464844" xlink:href="#DejaVuSans-28"/>
      <use x="315.478516" xlink:href="#DejaVuSans-59"/>
      <use x="363.3125" xlink:href="#DejaVuSans-65"/>
      <use x="424.835938" xlink:href="#DejaVuSans-61"/>
      <use x="486.115234" xlink:href="#DejaVuSans-72"/>
      <use x="520.853516" xlink:href="#DejaVuSans-2d"/>
      <use x="556.9375" xlink:href="#DejaVuSans-4d"/>
      <use x="643.216797" xlink:href="#DejaVuSans-6f"/>
      <use x="704.398438" xlink:href="#DejaVuSans-6e"/>
      <use x="767.777344" xlink:href="#DejaVuSans-74"/>
      <use x="806.986328" xlink:href="#DejaVuSans-68"/>
      <use x="870.365234" xlink:href="#DejaVuSans-29"/>
     </g>
    </g>
   </g>
   <g id="matplotlib.axis_2">
    <g id="ytick_1">
     <g id="line2d_56">
      <defs>
       <path d="M 0 0 
L -3.5 0 
" id="m039b2a1f2f" style="stroke:#000000;stroke-width:0.8;"/>
      </defs>
      <g>
       <use style="stroke:#000000;stroke-width:0.8;" x="46.965625" xlink:href="#m039b2a1f2f" y="807.594703"/>
      </g>
     </g>
     <g id="text_57">
      <!-- 200 -->
      <g transform="translate(20.878125 811.393922)scale(0.1 -0.1)">
       <use xlink:href="#DejaVuSans-32"/>
       <use x="63.623047" xlink:href="#DejaVuSans-30"/>
       <use x="127.246094" xlink:href="#DejaVuSans-30"/>
      </g>
     </g>
    </g>
    <g id="ytick_2">
     <g id="line2d_57">
      <g>
       <use style="stroke:#000000;stroke-width:0.8;" x="46.965625" xlink:href="#m039b2a1f2f" y="651.865138"/>
      </g>
     </g>
     <g id="text_58">
      <!-- 300 -->
      <g transform="translate(20.878125 655.664357)scale(0.1 -0.1)">
       <use xlink:href="#DejaVuSans-33"/>
       <use x="63.623047" xlink:href="#DejaVuSans-30"/>
       <use x="127.246094" xlink:href="#DejaVuSans-30"/>
      </g>
     </g>
    </g>
    <g id="ytick_3">
     <g id="line2d_58">
      <g>
       <use style="stroke:#000000;stroke-width:0.8;" x="46.965625" xlink:href="#m039b2a1f2f" y="496.135574"/>
      </g>
     </g>
     <g id="text_59">
      <!-- 400 -->
      <g transform="translate(20.878125 499.934792)scale(0.1 -0.1)">
       <use xlink:href="#DejaVuSans-34"/>
       <use x="63.623047" xlink:href="#DejaVuSans-30"/>
       <use x="127.246094" xlink:href="#DejaVuSans-30"/>
      </g>
     </g>
    </g>
    <g id="ytick_4">
     <g id="line2d_59">
      <g>
       <use style="stroke:#000000;stroke-width:0.8;" x="46.965625" xlink:href="#m039b2a1f2f" y="340.406009"/>
      </g>
     </g>
     <g id="text_60">
      <!-- 500 -->
      <g transform="translate(20.878125 344.205228)scale(0.1 -0.1)">
       <use xlink:href="#DejaVuSans-35"/>
       <use x="63.623047" xlink:href="#DejaVuSans-30"/>
       <use x="127.246094" xlink:href="#DejaVuSans-30"/>
      </g>
     </g>
    </g>
    <g id="ytick_5">
     <g id="line2d_60">
      <g>
       <use style="stroke:#000000;stroke-width:0.8;" x="46.965625" xlink:href="#m039b2a1f2f" y="184.676445"/>
      </g>
     </g>
     <g id="text_61">
      <!-- 600 -->
      <g transform="translate(20.878125 188.475663)scale(0.1 -0.1)">
       <use xlink:href="#DejaVuSans-36"/>
       <use x="63.623047" xlink:href="#DejaVuSans-30"/>
       <use x="127.246094" xlink:href="#DejaVuSans-30"/>
      </g>
     </g>
    </g>
    <g id="text_62">
     <!-- Total Crimes per Month -->
     <g transform="translate(14.798438 508.882594)rotate(-90)scale(0.1 -0.1)">
      <defs>
       <path d="M 603 4863 
L 1178 4863 
L 1178 0 
L 603 0 
L 603 4863 
z
" id="DejaVuSans-6c" transform="scale(0.015625)"/>
       <path d="M 4122 4306 
L 4122 3641 
Q 3803 3938 3442 4084 
Q 3081 4231 2675 4231 
Q 1875 4231 1450 3742 
Q 1025 3253 1025 2328 
Q 1025 1406 1450 917 
Q 1875 428 2675 428 
Q 3081 428 3442 575 
Q 3803 722 4122 1019 
L 4122 359 
Q 3791 134 3420 21 
Q 3050 -91 2638 -91 
Q 1578 -91 968 557 
Q 359 1206 359 2328 
Q 359 3453 968 4101 
Q 1578 4750 2638 4750 
Q 3056 4750 3426 4639 
Q 3797 4528 4122 4306 
z
" id="DejaVuSans-43" transform="scale(0.015625)"/>
       <path d="M 2834 3397 
L 2834 2853 
Q 2591 2978 2328 3040 
Q 2066 3103 1784 3103 
Q 1356 3103 1142 2972 
Q 928 2841 928 2578 
Q 928 2378 1081 2264 
Q 1234 2150 1697 2047 
L 1894 2003 
Q 2506 1872 2764 1633 
Q 3022 1394 3022 966 
Q 3022 478 2636 193 
Q 2250 -91 1575 -91 
Q 1294 -91 989 -36 
Q 684 19 347 128 
L 347 722 
Q 666 556 975 473 
Q 1284 391 1588 391 
Q 1994 391 2212 530 
Q 2431 669 2431 922 
Q 2431 1156 2273 1281 
Q 2116 1406 1581 1522 
L 1381 1569 
Q 847 1681 609 1914 
Q 372 2147 372 2553 
Q 372 3047 722 3315 
Q 1072 3584 1716 3584 
Q 2034 3584 2315 3537 
Q 2597 3491 2834 3397 
z
" id="DejaVuSans-73" transform="scale(0.015625)"/>
       <path d="M 1159 525 
L 1159 -1331 
L 581 -1331 
L 581 3500 
L 1159 3500 
L 1159 2969 
Q 1341 3281 1617 3432 
Q 1894 3584 2278 3584 
Q 2916 3584 3314 3078 
Q 3713 2572 3713 1747 
Q 3713 922 3314 415 
Q 2916 -91 2278 -91 
Q 1894 -91 1617 61 
Q 1341 213 1159 525 
z
M 3116 1747 
Q 3116 2381 2855 2742 
Q 2594 3103 2138 3103 
Q 1681 3103 1420 2742 
Q 1159 2381 1159 1747 
Q 1159 1113 1420 752 
Q 1681 391 2138 391 
Q 2594 391 2855 752 
Q 3116 1113 3116 1747 
z
" id="DejaVuSans-70" transform="scale(0.015625)"/>
      </defs>
      <use xlink:href="#DejaVuSans-54"/>
      <use x="44.083984" xlink:href="#DejaVuSans-6f"/>
      <use x="105.265625" xlink:href="#DejaVuSans-74"/>
      <use x="144.474609" xlink:href="#DejaVuSans-61"/>
      <use x="205.753906" xlink:href="#DejaVuSans-6c"/>
      <use x="233.537109" xlink:href="#DejaVuSans-20"/>
      <use x="265.324219" xlink:href="#DejaVuSans-43"/>
      <use x="335.148438" xlink:href="#DejaVuSans-72"/>
      <use x="376.261719" xlink:href="#DejaVuSans-69"/>
      <use x="404.044922" xlink:href="#DejaVuSans-6d"/>
      <use x="501.457031" xlink:href="#DejaVuSans-65"/>
      <use x="562.980469" xlink:href="#DejaVuSans-73"/>
      <use x="615.080078" xlink:href="#DejaVuSans-20"/>
      <use x="646.867188" xlink:href="#DejaVuSans-70"/>
      <use x="710.34375" xlink:href="#DejaVuSans-65"/>
      <use x="771.867188" xlink:href="#DejaVuSans-72"/>
      <use x="812.980469" xlink:href="#DejaVuSans-20"/>
      <use x="844.767578" xlink:href="#DejaVuSans-4d"/>
      <use x="931.046875" xlink:href="#DejaVuSans-6f"/>
      <use x="992.228516" xlink:href="#DejaVuSans-6e"/>
      <use x="1055.607422" xlink:href="#DejaVuSans-74"/>
      <use x="1094.816406" xlink:href="#DejaVuSans-68"/>
     </g>
    </g>
   </g>
   <g id="line2d_61">
    <path clip-path="url(#p4f3d1c6ce3)" d="M 46.965625 433.843748 
L 53.812251 513.265826 
L 60.217159 401.140539 
L 67.063785 488.349095 
L 73.689551 430.729157 
L 80.536177 458.760478 
L 87.161944 405.812426 
L 94.00857 362.208148 
L 100.855196 430.729157 
L 107.480962 407.369722 
L 114.327588 310.817392 
L 120.953355 458.760478 
L 127.799981 438.515635 
L 134.646607 545.969034 
L 140.830656 497.692869 
L 147.677281 524.166895 
L 154.303048 429.171861 
L 161.149674 379.3384 
L 167.775441 426.05727 
L 174.622067 507.036643 
L 181.468692 493.020982 
L 188.094459 446.302113 
L 194.941085 499.250165 
L 201.566852 588.016017 
L 208.413478 625.391112 
L 215.260104 522.6096 
L 221.444153 390.23947 
L 228.290778 455.645887 
L 234.916545 500.807461 
L 241.763171 464.989661 
L 248.388938 577.114947 
L 255.235564 521.052304 
L 262.082189 496.135574 
L 268.707956 521.052304 
L 275.554582 525.724191 
L 282.180349 673.667277 
L 289.026975 628.505704 
L 295.8736 605.146269 
L 302.05765 588.016017 
L 308.904275 575.557652 
L 315.530042 483.677209 
L 322.376668 611.375451 
L 329.002435 545.969034 
L 335.849061 566.213878 
L 342.695686 662.766208 
L 349.321453 662.766208 
L 356.168079 574.000356 
L 362.793846 707.927782 
L 369.640472 640.964069 
L 376.487097 595.802495 
L 382.892005 440.07293 
L 389.738631 539.739852 
L 396.364398 469.661548 
L 403.211024 567.771173 
L 409.836791 517.937713 
L 416.683416 589.573312 
L 423.530042 566.213878 
L 430.155809 521.052304 
L 437.002435 563.099286 
L 443.628202 541.297147 
L 450.474827 583.34413 
L 457.321453 539.739852 
L 463.505502 567.771173 
L 470.352128 549.083626 
L 476.977895 536.625261 
L 483.824521 563.099286 
L 490.450288 545.969034 
L 497.296913 630.062999 
L 504.143539 578.672243 
L 510.769306 566.213878 
L 517.615932 574.000356 
L 524.241699 552.198217 
L 531.088324 605.146269 
L 537.93495 623.833817 
L 544.118999 488.349095 
L 550.965625 530.396078 
L 557.591392 608.26086 
L 564.438018 544.411739 
L 571.063785 480.562617 
L 577.91041 572.44306 
L 584.757036 602.031678 
L 591.382803 588.016017 
L 598.229429 583.34413 
L 604.855196 533.510669 
L 611.701821 535.067965 
L 618.548447 692.354825 
L 624.732496 544.411739 
L 631.579122 623.833817 
L 638.204889 491.463687 
L 645.051515 516.380417 
L 651.677281 639.406773 
L 658.523907 634.734886 
L 665.370533 608.26086 
L 671.9963 547.52633 
L 678.842926 527.281487 
L 685.468692 594.245199 
L 692.315318 486.7918 
L 699.161944 556.870104 
L 705.566852 603.588973 
L 712.413478 606.703565 
L 719.039245 588.016017 
L 725.88587 514.823121 
L 732.511637 563.099286 
L 739.358263 561.541991 
L 746.204889 511.70853 
L 752.830656 536.625261 
L 759.677281 533.510669 
L 766.303048 458.760478 
L 773.149674 577.114947 
L 779.9963 516.380417 
L 786.180349 393.354061 
L 793.026975 499.250165 
L 799.652742 566.213878 
L 806.499367 544.411739 
L 813.125134 499.250165 
L 819.97176 508.593939 
L 826.818386 387.124879 
L 833.444153 485.234504 
L 840.290778 464.989661 
L 846.916545 544.411739 
L 853.763171 538.182556 
L 860.609797 622.276521 
L 866.793846 521.052304 
L 873.640472 510.151235 
L 880.266238 472.776139 
L 887.112864 491.463687 
L 893.738631 491.463687 
L 900.585257 447.859409 
L 907.431883 443.187522 
L 914.05765 424.499974 
L 920.904275 471.218843 
L 927.530042 371.551922 
L 934.376668 274.999592 
L 941.223294 376.223809 
L 947.407343 391.796765 
L 954.253969 303.030914 
L 960.879735 256.312044 
L 967.726361 327.947644 
L 974.352128 260.983931 
L 981.198754 198.692105 
L 988.04538 218.936949 
L 994.671146 242.296383 
L 1001.517772 292.129844 
L 1008.143539 455.645887 
L 1014.990165 243.853679 
L 1021.836791 259.426636 
L 1028.241699 480.562617 
L 1035.088324 785.792564 
L 1041.714091 609.818156 
L 1048.560717 561.541991 
L 1055.186484 611.375451 
L 1062.03311 530.396078 
L 1068.879735 539.739852 
L 1075.505502 497.692869 
L 1082.352128 522.6096 
L 1088.977895 625.391112 
L 1095.824521 572.44306 
L 1102.671146 642.521364 
L 1108.855196 594.245199 
L 1115.701821 686.125642 
L 1122.327588 673.667277 
L 1129.174214 614.490043 
L 1135.799981 616.047338 
L 1142.646607 488.349095 
L 1149.493232 496.135574 
L 1156.118999 530.396078 
L 1162.965625 398.025948 
L 1162.965625 398.025948 
" style="fill:none;stroke:#000000;stroke-linecap:square;stroke-width:1.5;"/>
   </g>
   <g id="line2d_62">
    <path clip-path="url(#p4f3d1c6ce3)" d="M 46.965625 748.417468 
L 53.812251 650.307843 
L 60.217159 673.667277 
L 67.063785 684.568347 
L 73.689551 661.208912 
L 80.536177 653.422434 
L 87.161944 681.453756 
L 94.00857 706.370486 
L 100.855196 675.224573 
L 107.480962 667.438095 
L 114.327588 648.750547 
L 120.953355 656.537025 
L 127.799981 689.240234 
L 134.646607 673.667277 
L 154.303048 569.328469 
L 161.149674 625.391112 
L 167.775441 574.000356 
L 174.622067 633.177591 
L 181.468692 639.406773 
L 188.094459 581.786834 
L 194.941085 658.094321 
L 201.566852 670.552686 
L 208.413478 664.323503 
L 215.260104 651.865138 
L 221.444153 640.964069 
L 228.290778 630.062999 
L 234.916545 684.568347 
L 241.763171 670.552686 
L 248.388938 650.307843 
L 255.235564 729.729921 
L 262.082189 768.662312 
L 268.707956 749.974764 
L 275.554582 711.042373 
L 282.180349 763.990425 
L 289.026975 723.500738 
L 295.8736 815.381181 
L 302.05765 762.433129 
L 308.904275 756.203947 
L 315.530042 675.224573 
L 322.376668 753.089355 
L 329.002435 662.766208 
L 335.849061 778.006086 
L 342.695686 790.464451 
L 349.321453 787.349859 
L 356.168079 773.334199 
L 362.793846 815.381181 
L 369.640472 784.235268 
L 376.487097 820.053068 
L 382.892005 792.021746 
L 389.738631 782.677972 
L 396.364398 676.781869 
L 403.211024 753.089355 
L 409.836791 770.219607 
L 416.683416 785.792564 
L 423.530042 725.058034 
L 430.155809 732.844512 
L 437.002435 731.287216 
L 443.628202 740.63099 
L 450.474827 774.891494 
L 457.321453 788.907155 
L 463.505502 740.63099 
L 470.352128 821.610364 
L 476.977895 740.63099 
L 483.824521 771.776903 
L 490.450288 712.599668 
L 497.296913 763.990425 
L 504.143539 802.922816 
L 510.769306 742.188286 
L 517.615932 760.875833 
L 524.241699 726.615329 
L 531.088324 801.36552 
L 537.93495 795.136338 
L 544.118999 670.552686 
L 550.965625 714.156964 
L 557.591392 692.354825 
L 564.438018 644.07866 
L 571.063785 591.130608 
L 577.91041 668.99539 
L 584.757036 651.865138 
L 591.382803 630.062999 
L 598.229429 650.307843 
L 604.855196 654.97973 
L 611.701821 606.703565 
L 618.548447 715.71426 
L 624.732496 588.016017 
L 631.579122 650.307843 
L 638.204889 580.229539 
L 645.051515 611.375451 
L 651.677281 581.786834 
L 658.523907 661.208912 
L 665.370533 609.818156 
L 671.9963 516.380417 
L 678.842926 555.312808 
L 685.468692 577.114947 
L 692.315318 556.870104 
L 699.161944 598.917086 
L 705.566852 488.349095 
L 712.413478 630.062999 
L 719.039245 544.411739 
L 725.88587 499.250165 
L 732.511637 458.760478 
L 739.358263 586.458721 
L 746.204889 511.70853 
L 752.830656 475.89073 
L 759.677281 479.005322 
L 766.303048 502.364756 
L 773.149674 500.807461 
L 779.9963 563.099286 
L 786.180349 491.463687 
L 793.026975 588.016017 
L 799.652742 402.697835 
L 806.499367 341.963305 
L 813.125134 401.140539 
L 819.97176 438.515635 
L 826.818386 461.87507 
L 833.444153 365.322739 
L 840.290778 458.760478 
L 846.916545 578.672243 
L 853.763171 527.281487 
L 860.609797 619.16193 
L 866.793846 455.645887 
L 873.640472 457.203183 
L 880.266238 362.208148 
L 887.112864 323.275757 
L 893.738631 416.713496 
L 900.585257 455.645887 
L 907.431883 480.562617 
L 914.05765 408.927018 
L 920.904275 438.515635 
L 927.530042 422.942678 
L 934.376668 337.291418 
L 941.223294 396.468652 
L 947.407343 315.489279 
L 954.253969 327.947644 
L 960.879735 236.067201 
L 967.726361 287.457957 
L 974.352128 276.556888 
L 981.198754 245.410975 
L 988.04538 273.442296 
L 994.671146 239.181792 
L 1001.517772 295.244435 
L 1008.143539 282.78607 
L 1014.990165 262.541227 
L 1021.836791 354.42167 
L 1028.241699 320.161166 
L 1035.088324 482.119913 
L 1041.714091 312.374688 
L 1048.560717 290.572549 
L 1055.186484 133.285688 
L 1062.03311 80.337636 
L 1068.879735 209.593175 
L 1075.505502 298.359027 
L 1082.352128 259.426636 
L 1088.977895 289.015253 
L 1095.824521 440.07293 
L 1102.671146 525.724191 
L 1108.855196 237.624497 
L 1115.701821 267.213114 
L 1122.327588 223.608836 
L 1129.174214 232.95261 
L 1135.799981 198.692105 
L 1142.646607 293.68714 
L 1149.493232 246.96827 
L 1156.118999 180.004558 
L 1162.965625 231.395314 
L 1162.965625 231.395314 
" style="fill:none;stroke:#ff8c00;stroke-linecap:square;stroke-width:1.5;"/>
   </g>
   <g id="patch_3">
    <path d="M 46.965625 858.674 
L 46.965625 43.274 
" style="fill:none;stroke:#000000;stroke-linecap:square;stroke-linejoin:miter;stroke-width:0.8;"/>
   </g>
   <g id="patch_4">
    <path d="M 1162.965625 858.674 
L 1162.965625 43.274 
" style="fill:none;stroke:#000000;stroke-linecap:square;stroke-linejoin:miter;stroke-width:0.8;"/>
   </g>
   <g id="patch_5">
    <path d="M 46.965625 858.674 
L 1162.965625 858.674 
" style="fill:none;stroke:#000000;stroke-linecap:square;stroke-linejoin:miter;stroke-width:0.8;"/>
   </g>
   <g id="patch_6">
    <path d="M 46.965625 43.274 
L 1162.965625 43.274 
" style="fill:none;stroke:#000000;stroke-linecap:square;stroke-linejoin:miter;stroke-width:0.8;"/>
   </g>
   <g id="text_63">
    <!-- Bexley Monthly Crime Category Totals:  -->
    <g transform="translate(447.433125 19.3575)scale(0.16 -0.16)">
     <defs>
      <path d="M 1259 2228 
L 1259 519 
L 2272 519 
Q 2781 519 3026 730 
Q 3272 941 3272 1375 
Q 3272 1813 3026 2020 
Q 2781 2228 2272 2228 
L 1259 2228 
z
M 1259 4147 
L 1259 2741 
L 2194 2741 
Q 2656 2741 2882 2914 
Q 3109 3088 3109 3444 
Q 3109 3797 2882 3972 
Q 2656 4147 2194 4147 
L 1259 4147 
z
M 628 4666 
L 2241 4666 
Q 2963 4666 3353 4366 
Q 3744 4066 3744 3513 
Q 3744 3084 3544 2831 
Q 3344 2578 2956 2516 
Q 3422 2416 3680 2098 
Q 3938 1781 3938 1306 
Q 3938 681 3513 340 
Q 3088 0 2303 0 
L 628 0 
L 628 4666 
z
" id="DejaVuSans-42" transform="scale(0.015625)"/>
      <path d="M 3513 3500 
L 2247 1797 
L 3578 0 
L 2900 0 
L 1881 1375 
L 863 0 
L 184 0 
L 1544 1831 
L 300 3500 
L 978 3500 
L 1906 2253 
L 2834 3500 
L 3513 3500 
z
" id="DejaVuSans-78" transform="scale(0.015625)"/>
      <path d="M 2059 -325 
Q 1816 -950 1584 -1140 
Q 1353 -1331 966 -1331 
L 506 -1331 
L 506 -850 
L 844 -850 
Q 1081 -850 1212 -737 
Q 1344 -625 1503 -206 
L 1606 56 
L 191 3500 
L 800 3500 
L 1894 763 
L 2988 3500 
L 3597 3500 
L 2059 -325 
z
" id="DejaVuSans-79" transform="scale(0.015625)"/>
      <path d="M 2906 1791 
Q 2906 2416 2648 2759 
Q 2391 3103 1925 3103 
Q 1463 3103 1205 2759 
Q 947 2416 947 1791 
Q 947 1169 1205 825 
Q 1463 481 1925 481 
Q 2391 481 2648 825 
Q 2906 1169 2906 1791 
z
M 3481 434 
Q 3481 -459 3084 -895 
Q 2688 -1331 1869 -1331 
Q 1566 -1331 1297 -1286 
Q 1028 -1241 775 -1147 
L 775 -588 
Q 1028 -725 1275 -790 
Q 1522 -856 1778 -856 
Q 2344 -856 2625 -561 
Q 2906 -266 2906 331 
L 2906 616 
Q 2728 306 2450 153 
Q 2172 0 1784 0 
Q 1141 0 747 490 
Q 353 981 353 1791 
Q 353 2603 747 3093 
Q 1141 3584 1784 3584 
Q 2172 3584 2450 3431 
Q 2728 3278 2906 2969 
L 2906 3500 
L 3481 3500 
L 3481 434 
z
" id="DejaVuSans-67" transform="scale(0.015625)"/>
      <path d="M 750 794 
L 1409 794 
L 1409 0 
L 750 0 
L 750 794 
z
M 750 3309 
L 1409 3309 
L 1409 2516 
L 750 2516 
L 750 3309 
z
" id="DejaVuSans-3a" transform="scale(0.015625)"/>
     </defs>
     <use xlink:href="#DejaVuSans-42"/>
     <use x="68.603516" xlink:href="#DejaVuSans-65"/>
     <use x="128.376953" xlink:href="#DejaVuSans-78"/>
     <use x="187.556641" xlink:href="#DejaVuSans-6c"/>
     <use x="215.339844" xlink:href="#DejaVuSans-65"/>
     <use x="276.863281" xlink:href="#DejaVuSans-79"/>
     <use x="336.042969" xlink:href="#DejaVuSans-20"/>
     <use x="367.830078" xlink:href="#DejaVuSans-4d"/>
     <use x="454.109375" xlink:href="#DejaVuSans-6f"/>
     <use x="515.291016" xlink:href="#DejaVuSans-6e"/>
     <use x="578.669922" xlink:href="#DejaVuSans-74"/>
     <use x="617.878906" xlink:href="#DejaVuSans-68"/>
     <use x="681.257812" xlink:href="#DejaVuSans-6c"/>
     <use x="709.041016" xlink:href="#DejaVuSans-79"/>
     <use x="768.220703" xlink:href="#DejaVuSans-20"/>
     <use x="800.007812" xlink:href="#DejaVuSans-43"/>
     <use x="869.832031" xlink:href="#DejaVuSans-72"/>
     <use x="910.945312" xlink:href="#DejaVuSans-69"/>
     <use x="938.728516" xlink:href="#DejaVuSans-6d"/>
     <use x="1036.140625" xlink:href="#DejaVuSans-65"/>
     <use x="1097.664062" xlink:href="#DejaVuSans-20"/>
     <use x="1129.451172" xlink:href="#DejaVuSans-43"/>
     <use x="1199.275391" xlink:href="#DejaVuSans-61"/>
     <use x="1260.554688" xlink:href="#DejaVuSans-74"/>
     <use x="1299.763672" xlink:href="#DejaVuSans-65"/>
     <use x="1361.287109" xlink:href="#DejaVuSans-67"/>
     <use x="1424.763672" xlink:href="#DejaVuSans-6f"/>
     <use x="1485.945312" xlink:href="#DejaVuSans-72"/>
     <use x="1527.058594" xlink:href="#DejaVuSans-79"/>
     <use x="1586.238281" xlink:href="#DejaVuSans-20"/>
     <use x="1618.025391" xlink:href="#DejaVuSans-54"/>
     <use x="1662.109375" xlink:href="#DejaVuSans-6f"/>
     <use x="1723.291016" xlink:href="#DejaVuSans-74"/>
     <use x="1762.5" xlink:href="#DejaVuSans-61"/>
     <use x="1823.779297" xlink:href="#DejaVuSans-6c"/>
     <use x="1851.5625" xlink:href="#DejaVuSans-73"/>
     <use x="1903.662109" xlink:href="#DejaVuSans-3a"/>
     <use x="1937.353516" xlink:href="#DejaVuSans-20"/>
    </g>
    <!-- Theft and Handling, Violence Against the Person (01/2008-11/2021) -->
    <g transform="translate(333.620625 37.274)scale(0.16 -0.16)">
     <defs>
      <path d="M 2375 4863 
L 2375 4384 
L 1825 4384 
Q 1516 4384 1395 4259 
Q 1275 4134 1275 3809 
L 1275 3500 
L 2222 3500 
L 2222 3053 
L 1275 3053 
L 1275 0 
L 697 0 
L 697 3053 
L 147 3053 
L 147 3500 
L 697 3500 
L 697 3744 
Q 697 4328 969 4595 
Q 1241 4863 1831 4863 
L 2375 4863 
z
" id="DejaVuSans-66" transform="scale(0.015625)"/>
      <path d="M 2906 2969 
L 2906 4863 
L 3481 4863 
L 3481 0 
L 2906 0 
L 2906 525 
Q 2725 213 2448 61 
Q 2172 -91 1784 -91 
Q 1150 -91 751 415 
Q 353 922 353 1747 
Q 353 2572 751 3078 
Q 1150 3584 1784 3584 
Q 2172 3584 2448 3432 
Q 2725 3281 2906 2969 
z
M 947 1747 
Q 947 1113 1208 752 
Q 1469 391 1925 391 
Q 2381 391 2643 752 
Q 2906 1113 2906 1747 
Q 2906 2381 2643 2742 
Q 2381 3103 1925 3103 
Q 1469 3103 1208 2742 
Q 947 2381 947 1747 
z
" id="DejaVuSans-64" transform="scale(0.015625)"/>
      <path d="M 628 4666 
L 1259 4666 
L 1259 2753 
L 3553 2753 
L 3553 4666 
L 4184 4666 
L 4184 0 
L 3553 0 
L 3553 2222 
L 1259 2222 
L 1259 0 
L 628 0 
L 628 4666 
z
" id="DejaVuSans-48" transform="scale(0.015625)"/>
      <path d="M 750 794 
L 1409 794 
L 1409 256 
L 897 -744 
L 494 -744 
L 750 256 
L 750 794 
z
" id="DejaVuSans-2c" transform="scale(0.015625)"/>
      <path d="M 1831 0 
L 50 4666 
L 709 4666 
L 2188 738 
L 3669 4666 
L 4325 4666 
L 2547 0 
L 1831 0 
z
" id="DejaVuSans-56" transform="scale(0.015625)"/>
      <path d="M 3122 3366 
L 3122 2828 
Q 2878 2963 2633 3030 
Q 2388 3097 2138 3097 
Q 1578 3097 1268 2742 
Q 959 2388 959 1747 
Q 959 1106 1268 751 
Q 1578 397 2138 397 
Q 2388 397 2633 464 
Q 2878 531 3122 666 
L 3122 134 
Q 2881 22 2623 -34 
Q 2366 -91 2075 -91 
Q 1284 -91 818 406 
Q 353 903 353 1747 
Q 353 2603 823 3093 
Q 1294 3584 2113 3584 
Q 2378 3584 2631 3529 
Q 2884 3475 3122 3366 
z
" id="DejaVuSans-63" transform="scale(0.015625)"/>
      <path d="M 2188 4044 
L 1331 1722 
L 3047 1722 
L 2188 4044 
z
M 1831 4666 
L 2547 4666 
L 4325 0 
L 3669 0 
L 3244 1197 
L 1141 1197 
L 716 0 
L 50 0 
L 1831 4666 
z
" id="DejaVuSans-41" transform="scale(0.015625)"/>
      <path d="M 1259 4147 
L 1259 2394 
L 2053 2394 
Q 2494 2394 2734 2622 
Q 2975 2850 2975 3272 
Q 2975 3691 2734 3919 
Q 2494 4147 2053 4147 
L 1259 4147 
z
M 628 4666 
L 2053 4666 
Q 2838 4666 3239 4311 
Q 3641 3956 3641 3272 
Q 3641 2581 3239 2228 
Q 2838 1875 2053 1875 
L 1259 1875 
L 1259 0 
L 628 0 
L 628 4666 
z
" id="DejaVuSans-50" transform="scale(0.015625)"/>
      <path d="M 1625 4666 
L 2156 4666 
L 531 -594 
L 0 -594 
L 1625 4666 
z
" id="DejaVuSans-2f" transform="scale(0.015625)"/>
     </defs>
     <use xlink:href="#DejaVuSans-54"/>
     <use x="61.083984" xlink:href="#DejaVuSans-68"/>
     <use x="124.462891" xlink:href="#DejaVuSans-65"/>
     <use x="185.986328" xlink:href="#DejaVuSans-66"/>
     <use x="219.441406" xlink:href="#DejaVuSans-74"/>
     <use x="258.650391" xlink:href="#DejaVuSans-20"/>
     <use x="290.4375" xlink:href="#DejaVuSans-61"/>
     <use x="351.716797" xlink:href="#DejaVuSans-6e"/>
     <use x="415.095703" xlink:href="#DejaVuSans-64"/>
     <use x="478.572266" xlink:href="#DejaVuSans-20"/>
     <use x="510.359375" xlink:href="#DejaVuSans-48"/>
     <use x="585.554688" xlink:href="#DejaVuSans-61"/>
     <use x="646.833984" xlink:href="#DejaVuSans-6e"/>
     <use x="710.212891" xlink:href="#DejaVuSans-64"/>
     <use x="773.689453" xlink:href="#DejaVuSans-6c"/>
     <use x="801.472656" xlink:href="#DejaVuSans-69"/>
     <use x="829.255859" xlink:href="#DejaVuSans-6e"/>
     <use x="892.634766" xlink:href="#DejaVuSans-67"/>
     <use x="956.111328" xlink:href="#DejaVuSans-2c"/>
     <use x="987.898438" xlink:href="#DejaVuSans-20"/>
     <use x="1019.685547" xlink:href="#DejaVuSans-56"/>
     <use x="1085.84375" xlink:href="#DejaVuSans-69"/>
     <use x="1113.626953" xlink:href="#DejaVuSans-6f"/>
     <use x="1174.808594" xlink:href="#DejaVuSans-6c"/>
     <use x="1202.591797" xlink:href="#DejaVuSans-65"/>
     <use x="1264.115234" xlink:href="#DejaVuSans-6e"/>
     <use x="1327.494141" xlink:href="#DejaVuSans-63"/>
     <use x="1382.474609" xlink:href="#DejaVuSans-65"/>
     <use x="1443.998047" xlink:href="#DejaVuSans-20"/>
     <use x="1475.785156" xlink:href="#DejaVuSans-41"/>
     <use x="1544.193359" xlink:href="#DejaVuSans-67"/>
     <use x="1607.669922" xlink:href="#DejaVuSans-61"/>
     <use x="1668.949219" xlink:href="#DejaVuSans-69"/>
     <use x="1696.732422" xlink:href="#DejaVuSans-6e"/>
     <use x="1760.111328" xlink:href="#DejaVuSans-73"/>
     <use x="1812.210938" xlink:href="#DejaVuSans-74"/>
     <use x="1851.419922" xlink:href="#DejaVuSans-20"/>
     <use x="1883.207031" xlink:href="#DejaVuSans-74"/>
     <use x="1922.416016" xlink:href="#DejaVuSans-68"/>
     <use x="1985.794922" xlink:href="#DejaVuSans-65"/>
     <use x="2047.318359" xlink:href="#DejaVuSans-20"/>
     <use x="2079.105469" xlink:href="#DejaVuSans-50"/>
     <use x="2135.783203" xlink:href="#DejaVuSans-65"/>
     <use x="2197.306641" xlink:href="#DejaVuSans-72"/>
     <use x="2238.419922" xlink:href="#DejaVuSans-73"/>
     <use x="2290.519531" xlink:href="#DejaVuSans-6f"/>
     <use x="2351.701172" xlink:href="#DejaVuSans-6e"/>
     <use x="2415.080078" xlink:href="#DejaVuSans-20"/>
     <use x="2446.867188" xlink:href="#DejaVuSans-28"/>
     <use x="2485.880859" xlink:href="#DejaVuSans-30"/>
     <use x="2549.503906" xlink:href="#DejaVuSans-31"/>
     <use x="2613.126953" xlink:href="#DejaVuSans-2f"/>
     <use x="2646.818359" xlink:href="#DejaVuSans-32"/>
     <use x="2710.441406" xlink:href="#DejaVuSans-30"/>
     <use x="2774.064453" xlink:href="#DejaVuSans-30"/>
     <use x="2837.6875" xlink:href="#DejaVuSans-38"/>
     <use x="2901.310547" xlink:href="#DejaVuSans-2d"/>
     <use x="2937.394531" xlink:href="#DejaVuSans-31"/>
     <use x="3001.017578" xlink:href="#DejaVuSans-31"/>
     <use x="3064.640625" xlink:href="#DejaVuSans-2f"/>
     <use x="3098.332031" xlink:href="#DejaVuSans-32"/>
     <use x="3161.955078" xlink:href="#DejaVuSans-30"/>
     <use x="3225.578125" xlink:href="#DejaVuSans-32"/>
     <use x="3289.201172" xlink:href="#DejaVuSans-31"/>
     <use x="3352.824219" xlink:href="#DejaVuSans-29"/>
    </g>
   </g>
   <g id="legend_1">
    <g id="patch_7">
     <path d="M 53.965625 80.63025 
L 225.503125 80.63025 
Q 227.503125 80.63025 227.503125 78.63025 
L 227.503125 50.274 
Q 227.503125 48.274 225.503125 48.274 
L 53.965625 48.274 
Q 51.965625 48.274 51.965625 50.274 
L 51.965625 78.63025 
Q 51.965625 80.63025 53.965625 80.63025 
z
" style="fill:#ffffff;opacity:0.8;stroke:#cccccc;stroke-linejoin:miter;"/>
    </g>
    <g id="line2d_63">
     <path d="M 55.965625 56.372437 
L 75.965625 56.372437 
" style="fill:none;stroke:#000000;stroke-linecap:square;stroke-width:1.5;"/>
    </g>
    <g id="line2d_64"/>
    <g id="text_64">
     <!-- Theft and Handling -->
     <g transform="translate(83.965625 59.872437)scale(0.1 -0.1)">
      <use xlink:href="#DejaVuSans-54"/>
      <use x="61.083984" xlink:href="#DejaVuSans-68"/>
      <use x="124.462891" xlink:href="#DejaVuSans-65"/>
      <use x="185.986328" xlink:href="#DejaVuSans-66"/>
      <use x="219.441406" xlink:href="#DejaVuSans-74"/>
      <use x="258.650391" xlink:href="#DejaVuSans-20"/>
      <use x="290.4375" xlink:href="#DejaVuSans-61"/>
      <use x="351.716797" xlink:href="#DejaVuSans-6e"/>
      <use x="415.095703" xlink:href="#DejaVuSans-64"/>
      <use x="478.572266" xlink:href="#DejaVuSans-20"/>
      <use x="510.359375" xlink:href="#DejaVuSans-48"/>
      <use x="585.554688" xlink:href="#DejaVuSans-61"/>
      <use x="646.833984" xlink:href="#DejaVuSans-6e"/>
      <use x="710.212891" xlink:href="#DejaVuSans-64"/>
      <use x="773.689453" xlink:href="#DejaVuSans-6c"/>
      <use x="801.472656" xlink:href="#DejaVuSans-69"/>
      <use x="829.255859" xlink:href="#DejaVuSans-6e"/>
      <use x="892.634766" xlink:href="#DejaVuSans-67"/>
     </g>
    </g>
    <g id="line2d_65">
     <path d="M 55.965625 71.050562 
L 75.965625 71.050562 
" style="fill:none;stroke:#ff8c00;stroke-linecap:square;stroke-width:1.5;"/>
    </g>
    <g id="line2d_66"/>
    <g id="text_65">
     <!-- Violence Against the Person -->
     <g transform="translate(83.965625 74.550562)scale(0.1 -0.1)">
      <use xlink:href="#DejaVuSans-56"/>
      <use x="66.158203" xlink:href="#DejaVuSans-69"/>
      <use x="93.941406" xlink:href="#DejaVuSans-6f"/>
      <use x="155.123047" xlink:href="#DejaVuSans-6c"/>
      <use x="182.90625" xlink:href="#DejaVuSans-65"/>
      <use x="244.429688" xlink:href="#DejaVuSans-6e"/>
      <use x="307.808594" xlink:href="#DejaVuSans-63"/>
      <use x="362.789062" xlink:href="#DejaVuSans-65"/>
      <use x="424.3125" xlink:href="#DejaVuSans-20"/>
      <use x="456.099609" xlink:href="#DejaVuSans-41"/>
      <use x="524.507812" xlink:href="#DejaVuSans-67"/>
      <use x="587.984375" xlink:href="#DejaVuSans-61"/>
      <use x="649.263672" xlink:href="#DejaVuSans-69"/>
      <use x="677.046875" xlink:href="#DejaVuSans-6e"/>
      <use x="740.425781" xlink:href="#DejaVuSans-73"/>
      <use x="792.525391" xlink:href="#DejaVuSans-74"/>
      <use x="831.734375" xlink:href="#DejaVuSans-20"/>
      <use x="863.521484" xlink:href="#DejaVuSans-74"/>
      <use x="902.730469" xlink:href="#DejaVuSans-68"/>
      <use x="966.109375" xlink:href="#DejaVuSans-65"/>
      <use x="1027.632812" xlink:href="#DejaVuSans-20"/>
      <use x="1059.419922" xlink:href="#DejaVuSans-50"/>
      <use x="1116.097656" xlink:href="#DejaVuSans-65"/>
      <use x="1177.621094" xlink:href="#DejaVuSans-72"/>
      <use x="1218.734375" xlink:href="#DejaVuSans-73"/>
      <use x="1270.833984" xlink:href="#DejaVuSans-6f"/>
      <use x="1332.015625" xlink:href="#DejaVuSans-6e"/>
     </g>
    </g>
   </g>
  </g>
 </g>
 <defs>
  <clipPath id="p4f3d1c6ce3">
   <rect height="815.4" width="1116" x="46.965625" y="43.274"/>
  </clipPath>
 </defs>
</svg>
