<?xml version="1.0" encoding="utf-8" standalone="no"?>
<!DOCTYPE svg PUBLIC "-//W3C//DTD SVG 1.1//EN"
  "http://www.w3.org/Graphics/SVG/1.1/DTD/svg11.dtd">
<svg height="928.334937pt" version="1.1" viewBox="0 0 1170.165625 928.334937" width="1170.165625pt" xmlns="http://www.w3.org/2000/svg" xmlns:xlink="http://www.w3.org/1999/xlink">
 <metadata>
  <rdf:RDF xmlns:cc="http://creativecommons.org/ns#" xmlns:dc="http://purl.org/dc/elements/1.1/" xmlns:rdf="http://www.w3.org/1999/02/22-rdf-syntax-ns#">
   <cc:Work>
    <dc:type rdf:resource="http://purl.org/dc/dcmitype/StillImage"/>
    <dc:date>2021-12-23T15:07:14.894740</dc:date>
    <dc:format>image/svg+xml</dc:format>
    <dc:creator>
     <cc:Agent>
      <dc:title>Matplotlib v3.4.2, https://matplotlib.org/</dc:title>
     </cc:Agent>
    </dc:creator>
   </cc:Work>
  </rdf:RDF>
 </metadata>
 <defs>
  <style type="text/css">*{stroke-linecap:butt;stroke-linejoin:round;}</style>
 </defs>
 <g id="figure_1">
  <g id="patch_1">
   <path d="M 0 928.334937 
L 1170.165625 928.334937 
L 1170.165625 0 
L 0 0 
z
" style="fill:none;"/>
  </g>
  <g id="axes_1">
   <g id="patch_2">
    <path d="M 46.965625 858.674 
L 1162.965625 858.674 
L 1162.965625 43.274 
L 46.965625 43.274 
z
" style="fill:#ffffff;"/>
   </g>
   <g id="matplotlib.axis_1">
    <g id="xtick_1">
     <g id="line2d_1">
      <defs>
       <path d="M 0 0 
L 0 3.5 
" id="mb53087ea8b" style="stroke:#000000;stroke-width:0.8;"/>
      </defs>
      <g>
       <use style="stroke:#000000;stroke-width:0.8;" x="60.217159" xlink:href="#mb53087ea8b" y="858.674"/>
      </g>
     </g>
     <g id="text_1">
      <!-- 2008-03 -->
      <g transform="translate(62.976534 907.456812)rotate(-90)scale(0.1 -0.1)">
       <defs>
        <path d="M 1228 531 
L 3431 531 
L 3431 0 
L 469 0 
L 469 531 
Q 828 903 1448 1529 
Q 2069 2156 2228 2338 
Q 2531 2678 2651 2914 
Q 2772 3150 2772 3378 
Q 2772 3750 2511 3984 
Q 2250 4219 1831 4219 
Q 1534 4219 1204 4116 
Q 875 4013 500 3803 
L 500 4441 
Q 881 4594 1212 4672 
Q 1544 4750 1819 4750 
Q 2544 4750 2975 4387 
Q 3406 4025 3406 3419 
Q 3406 3131 3298 2873 
Q 3191 2616 2906 2266 
Q 2828 2175 2409 1742 
Q 1991 1309 1228 531 
z
" id="DejaVuSans-32" transform="scale(0.015625)"/>
        <path d="M 2034 4250 
Q 1547 4250 1301 3770 
Q 1056 3291 1056 2328 
Q 1056 1369 1301 889 
Q 1547 409 2034 409 
Q 2525 409 2770 889 
Q 3016 1369 3016 2328 
Q 3016 3291 2770 3770 
Q 2525 4250 2034 4250 
z
M 2034 4750 
Q 2819 4750 3233 4129 
Q 3647 3509 3647 2328 
Q 3647 1150 3233 529 
Q 2819 -91 2034 -91 
Q 1250 -91 836 529 
Q 422 1150 422 2328 
Q 422 3509 836 4129 
Q 1250 4750 2034 4750 
z
" id="DejaVuSans-30" transform="scale(0.015625)"/>
        <path d="M 2034 2216 
Q 1584 2216 1326 1975 
Q 1069 1734 1069 1313 
Q 1069 891 1326 650 
Q 1584 409 2034 409 
Q 2484 409 2743 651 
Q 3003 894 3003 1313 
Q 3003 1734 2745 1975 
Q 2488 2216 2034 2216 
z
M 1403 2484 
Q 997 2584 770 2862 
Q 544 3141 544 3541 
Q 544 4100 942 4425 
Q 1341 4750 2034 4750 
Q 2731 4750 3128 4425 
Q 3525 4100 3525 3541 
Q 3525 3141 3298 2862 
Q 3072 2584 2669 2484 
Q 3125 2378 3379 2068 
Q 3634 1759 3634 1313 
Q 3634 634 3220 271 
Q 2806 -91 2034 -91 
Q 1263 -91 848 271 
Q 434 634 434 1313 
Q 434 1759 690 2068 
Q 947 2378 1403 2484 
z
M 1172 3481 
Q 1172 3119 1398 2916 
Q 1625 2713 2034 2713 
Q 2441 2713 2670 2916 
Q 2900 3119 2900 3481 
Q 2900 3844 2670 4047 
Q 2441 4250 2034 4250 
Q 1625 4250 1398 4047 
Q 1172 3844 1172 3481 
z
" id="DejaVuSans-38" transform="scale(0.015625)"/>
        <path d="M 313 2009 
L 1997 2009 
L 1997 1497 
L 313 1497 
L 313 2009 
z
" id="DejaVuSans-2d" transform="scale(0.015625)"/>
        <path d="M 2597 2516 
Q 3050 2419 3304 2112 
Q 3559 1806 3559 1356 
Q 3559 666 3084 287 
Q 2609 -91 1734 -91 
Q 1441 -91 1130 -33 
Q 819 25 488 141 
L 488 750 
Q 750 597 1062 519 
Q 1375 441 1716 441 
Q 2309 441 2620 675 
Q 2931 909 2931 1356 
Q 2931 1769 2642 2001 
Q 2353 2234 1838 2234 
L 1294 2234 
L 1294 2753 
L 1863 2753 
Q 2328 2753 2575 2939 
Q 2822 3125 2822 3475 
Q 2822 3834 2567 4026 
Q 2313 4219 1838 4219 
Q 1578 4219 1281 4162 
Q 984 4106 628 3988 
L 628 4550 
Q 988 4650 1302 4700 
Q 1616 4750 1894 4750 
Q 2613 4750 3031 4423 
Q 3450 4097 3450 3541 
Q 3450 3153 3228 2886 
Q 3006 2619 2597 2516 
z
" id="DejaVuSans-33" transform="scale(0.015625)"/>
       </defs>
       <use xlink:href="#DejaVuSans-32"/>
       <use x="63.623047" xlink:href="#DejaVuSans-30"/>
       <use x="127.246094" xlink:href="#DejaVuSans-30"/>
       <use x="190.869141" xlink:href="#DejaVuSans-38"/>
       <use x="254.492188" xlink:href="#DejaVuSans-2d"/>
       <use x="290.576172" xlink:href="#DejaVuSans-30"/>
       <use x="354.199219" xlink:href="#DejaVuSans-33"/>
      </g>
     </g>
    </g>
    <g id="xtick_2">
     <g id="line2d_2">
      <g>
       <use style="stroke:#000000;stroke-width:0.8;" x="80.536177" xlink:href="#mb53087ea8b" y="858.674"/>
      </g>
     </g>
     <g id="text_2">
      <!-- 2008-06 -->
      <g transform="translate(83.295552 907.456812)rotate(-90)scale(0.1 -0.1)">
       <defs>
        <path d="M 2113 2584 
Q 1688 2584 1439 2293 
Q 1191 2003 1191 1497 
Q 1191 994 1439 701 
Q 1688 409 2113 409 
Q 2538 409 2786 701 
Q 3034 994 3034 1497 
Q 3034 2003 2786 2293 
Q 2538 2584 2113 2584 
z
M 3366 4563 
L 3366 3988 
Q 3128 4100 2886 4159 
Q 2644 4219 2406 4219 
Q 1781 4219 1451 3797 
Q 1122 3375 1075 2522 
Q 1259 2794 1537 2939 
Q 1816 3084 2150 3084 
Q 2853 3084 3261 2657 
Q 3669 2231 3669 1497 
Q 3669 778 3244 343 
Q 2819 -91 2113 -91 
Q 1303 -91 875 529 
Q 447 1150 447 2328 
Q 447 3434 972 4092 
Q 1497 4750 2381 4750 
Q 2619 4750 2861 4703 
Q 3103 4656 3366 4563 
z
" id="DejaVuSans-36" transform="scale(0.015625)"/>
       </defs>
       <use xlink:href="#DejaVuSans-32"/>
       <use x="63.623047" xlink:href="#DejaVuSans-30"/>
       <use x="127.246094" xlink:href="#DejaVuSans-30"/>
       <use x="190.869141" xlink:href="#DejaVuSans-38"/>
       <use x="254.492188" xlink:href="#DejaVuSans-2d"/>
       <use x="290.576172" xlink:href="#DejaVuSans-30"/>
       <use x="354.199219" xlink:href="#DejaVuSans-36"/>
      </g>
     </g>
    </g>
    <g id="xtick_3">
     <g id="line2d_3">
      <g>
       <use style="stroke:#000000;stroke-width:0.8;" x="100.855196" xlink:href="#mb53087ea8b" y="858.674"/>
      </g>
     </g>
     <g id="text_3">
      <!-- 2008-09 -->
      <g transform="translate(103.614571 907.456812)rotate(-90)scale(0.1 -0.1)">
       <defs>
        <path d="M 703 97 
L 703 672 
Q 941 559 1184 500 
Q 1428 441 1663 441 
Q 2288 441 2617 861 
Q 2947 1281 2994 2138 
Q 2813 1869 2534 1725 
Q 2256 1581 1919 1581 
Q 1219 1581 811 2004 
Q 403 2428 403 3163 
Q 403 3881 828 4315 
Q 1253 4750 1959 4750 
Q 2769 4750 3195 4129 
Q 3622 3509 3622 2328 
Q 3622 1225 3098 567 
Q 2575 -91 1691 -91 
Q 1453 -91 1209 -44 
Q 966 3 703 97 
z
M 1959 2075 
Q 2384 2075 2632 2365 
Q 2881 2656 2881 3163 
Q 2881 3666 2632 3958 
Q 2384 4250 1959 4250 
Q 1534 4250 1286 3958 
Q 1038 3666 1038 3163 
Q 1038 2656 1286 2365 
Q 1534 2075 1959 2075 
z
" id="DejaVuSans-39" transform="scale(0.015625)"/>
       </defs>
       <use xlink:href="#DejaVuSans-32"/>
       <use x="63.623047" xlink:href="#DejaVuSans-30"/>
       <use x="127.246094" xlink:href="#DejaVuSans-30"/>
       <use x="190.869141" xlink:href="#DejaVuSans-38"/>
       <use x="254.492188" xlink:href="#DejaVuSans-2d"/>
       <use x="290.576172" xlink:href="#DejaVuSans-30"/>
       <use x="354.199219" xlink:href="#DejaVuSans-39"/>
      </g>
     </g>
    </g>
    <g id="xtick_4">
     <g id="line2d_4">
      <g>
       <use style="stroke:#000000;stroke-width:0.8;" x="120.953355" xlink:href="#mb53087ea8b" y="858.674"/>
      </g>
     </g>
     <g id="text_4">
      <!-- 2008-12 -->
      <g transform="translate(123.71273 907.456812)rotate(-90)scale(0.1 -0.1)">
       <defs>
        <path d="M 794 531 
L 1825 531 
L 1825 4091 
L 703 3866 
L 703 4441 
L 1819 4666 
L 2450 4666 
L 2450 531 
L 3481 531 
L 3481 0 
L 794 0 
L 794 531 
z
" id="DejaVuSans-31" transform="scale(0.015625)"/>
       </defs>
       <use xlink:href="#DejaVuSans-32"/>
       <use x="63.623047" xlink:href="#DejaVuSans-30"/>
       <use x="127.246094" xlink:href="#DejaVuSans-30"/>
       <use x="190.869141" xlink:href="#DejaVuSans-38"/>
       <use x="254.492188" xlink:href="#DejaVuSans-2d"/>
       <use x="290.576172" xlink:href="#DejaVuSans-31"/>
       <use x="354.199219" xlink:href="#DejaVuSans-32"/>
      </g>
     </g>
    </g>
    <g id="xtick_5">
     <g id="line2d_5">
      <g>
       <use style="stroke:#000000;stroke-width:0.8;" x="140.830656" xlink:href="#mb53087ea8b" y="858.674"/>
      </g>
     </g>
     <g id="text_5">
      <!-- 2009-03 -->
      <g transform="translate(143.590031 907.456812)rotate(-90)scale(0.1 -0.1)">
       <use xlink:href="#DejaVuSans-32"/>
       <use x="63.623047" xlink:href="#DejaVuSans-30"/>
       <use x="127.246094" xlink:href="#DejaVuSans-30"/>
       <use x="190.869141" xlink:href="#DejaVuSans-39"/>
       <use x="254.492188" xlink:href="#DejaVuSans-2d"/>
       <use x="290.576172" xlink:href="#DejaVuSans-30"/>
       <use x="354.199219" xlink:href="#DejaVuSans-33"/>
      </g>
     </g>
    </g>
    <g id="xtick_6">
     <g id="line2d_6">
      <g>
       <use style="stroke:#000000;stroke-width:0.8;" x="161.149674" xlink:href="#mb53087ea8b" y="858.674"/>
      </g>
     </g>
     <g id="text_6">
      <!-- 2009-06 -->
      <g transform="translate(163.909049 907.456812)rotate(-90)scale(0.1 -0.1)">
       <use xlink:href="#DejaVuSans-32"/>
       <use x="63.623047" xlink:href="#DejaVuSans-30"/>
       <use x="127.246094" xlink:href="#DejaVuSans-30"/>
       <use x="190.869141" xlink:href="#DejaVuSans-39"/>
       <use x="254.492188" xlink:href="#DejaVuSans-2d"/>
       <use x="290.576172" xlink:href="#DejaVuSans-30"/>
       <use x="354.199219" xlink:href="#DejaVuSans-36"/>
      </g>
     </g>
    </g>
    <g id="xtick_7">
     <g id="line2d_7">
      <g>
       <use style="stroke:#000000;stroke-width:0.8;" x="181.468692" xlink:href="#mb53087ea8b" y="858.674"/>
      </g>
     </g>
     <g id="text_7">
      <!-- 2009-09 -->
      <g transform="translate(184.228067 907.456812)rotate(-90)scale(0.1 -0.1)">
       <use xlink:href="#DejaVuSans-32"/>
       <use x="63.623047" xlink:href="#DejaVuSans-30"/>
       <use x="127.246094" xlink:href="#DejaVuSans-30"/>
       <use x="190.869141" xlink:href="#DejaVuSans-39"/>
       <use x="254.492188" xlink:href="#DejaVuSans-2d"/>
       <use x="290.576172" xlink:href="#DejaVuSans-30"/>
       <use x="354.199219" xlink:href="#DejaVuSans-39"/>
      </g>
     </g>
    </g>
    <g id="xtick_8">
     <g id="line2d_8">
      <g>
       <use style="stroke:#000000;stroke-width:0.8;" x="201.566852" xlink:href="#mb53087ea8b" y="858.674"/>
      </g>
     </g>
     <g id="text_8">
      <!-- 2009-12 -->
      <g transform="translate(204.326227 907.456812)rotate(-90)scale(0.1 -0.1)">
       <use xlink:href="#DejaVuSans-32"/>
       <use x="63.623047" xlink:href="#DejaVuSans-30"/>
       <use x="127.246094" xlink:href="#DejaVuSans-30"/>
       <use x="190.869141" xlink:href="#DejaVuSans-39"/>
       <use x="254.492188" xlink:href="#DejaVuSans-2d"/>
       <use x="290.576172" xlink:href="#DejaVuSans-31"/>
       <use x="354.199219" xlink:href="#DejaVuSans-32"/>
      </g>
     </g>
    </g>
    <g id="xtick_9">
     <g id="line2d_9">
      <g>
       <use style="stroke:#000000;stroke-width:0.8;" x="221.444153" xlink:href="#mb53087ea8b" y="858.674"/>
      </g>
     </g>
     <g id="text_9">
      <!-- 2010-03 -->
      <g transform="translate(224.203528 907.456812)rotate(-90)scale(0.1 -0.1)">
       <use xlink:href="#DejaVuSans-32"/>
       <use x="63.623047" xlink:href="#DejaVuSans-30"/>
       <use x="127.246094" xlink:href="#DejaVuSans-31"/>
       <use x="190.869141" xlink:href="#DejaVuSans-30"/>
       <use x="254.492188" xlink:href="#DejaVuSans-2d"/>
       <use x="290.576172" xlink:href="#DejaVuSans-30"/>
       <use x="354.199219" xlink:href="#DejaVuSans-33"/>
      </g>
     </g>
    </g>
    <g id="xtick_10">
     <g id="line2d_10">
      <g>
       <use style="stroke:#000000;stroke-width:0.8;" x="241.763171" xlink:href="#mb53087ea8b" y="858.674"/>
      </g>
     </g>
     <g id="text_10">
      <!-- 2010-06 -->
      <g transform="translate(244.522546 907.456812)rotate(-90)scale(0.1 -0.1)">
       <use xlink:href="#DejaVuSans-32"/>
       <use x="63.623047" xlink:href="#DejaVuSans-30"/>
       <use x="127.246094" xlink:href="#DejaVuSans-31"/>
       <use x="190.869141" xlink:href="#DejaVuSans-30"/>
       <use x="254.492188" xlink:href="#DejaVuSans-2d"/>
       <use x="290.576172" xlink:href="#DejaVuSans-30"/>
       <use x="354.199219" xlink:href="#DejaVuSans-36"/>
      </g>
     </g>
    </g>
    <g id="xtick_11">
     <g id="line2d_11">
      <g>
       <use style="stroke:#000000;stroke-width:0.8;" x="262.082189" xlink:href="#mb53087ea8b" y="858.674"/>
      </g>
     </g>
     <g id="text_11">
      <!-- 2010-09 -->
      <g transform="translate(264.841564 907.456812)rotate(-90)scale(0.1 -0.1)">
       <use xlink:href="#DejaVuSans-32"/>
       <use x="63.623047" xlink:href="#DejaVuSans-30"/>
       <use x="127.246094" xlink:href="#DejaVuSans-31"/>
       <use x="190.869141" xlink:href="#DejaVuSans-30"/>
       <use x="254.492188" xlink:href="#DejaVuSans-2d"/>
       <use x="290.576172" xlink:href="#DejaVuSans-30"/>
       <use x="354.199219" xlink:href="#DejaVuSans-39"/>
      </g>
     </g>
    </g>
    <g id="xtick_12">
     <g id="line2d_12">
      <g>
       <use style="stroke:#000000;stroke-width:0.8;" x="282.180349" xlink:href="#mb53087ea8b" y="858.674"/>
      </g>
     </g>
     <g id="text_12">
      <!-- 2010-12 -->
      <g transform="translate(284.939724 907.456812)rotate(-90)scale(0.1 -0.1)">
       <use xlink:href="#DejaVuSans-32"/>
       <use x="63.623047" xlink:href="#DejaVuSans-30"/>
       <use x="127.246094" xlink:href="#DejaVuSans-31"/>
       <use x="190.869141" xlink:href="#DejaVuSans-30"/>
       <use x="254.492188" xlink:href="#DejaVuSans-2d"/>
       <use x="290.576172" xlink:href="#DejaVuSans-31"/>
       <use x="354.199219" xlink:href="#DejaVuSans-32"/>
      </g>
     </g>
    </g>
    <g id="xtick_13">
     <g id="line2d_13">
      <g>
       <use style="stroke:#000000;stroke-width:0.8;" x="302.05765" xlink:href="#mb53087ea8b" y="858.674"/>
      </g>
     </g>
     <g id="text_13">
      <!-- 2011-03 -->
      <g transform="translate(304.817025 907.456812)rotate(-90)scale(0.1 -0.1)">
       <use xlink:href="#DejaVuSans-32"/>
       <use x="63.623047" xlink:href="#DejaVuSans-30"/>
       <use x="127.246094" xlink:href="#DejaVuSans-31"/>
       <use x="190.869141" xlink:href="#DejaVuSans-31"/>
       <use x="254.492188" xlink:href="#DejaVuSans-2d"/>
       <use x="290.576172" xlink:href="#DejaVuSans-30"/>
       <use x="354.199219" xlink:href="#DejaVuSans-33"/>
      </g>
     </g>
    </g>
    <g id="xtick_14">
     <g id="line2d_14">
      <g>
       <use style="stroke:#000000;stroke-width:0.8;" x="322.376668" xlink:href="#mb53087ea8b" y="858.674"/>
      </g>
     </g>
     <g id="text_14">
      <!-- 2011-06 -->
      <g transform="translate(325.136043 907.456812)rotate(-90)scale(0.1 -0.1)">
       <use xlink:href="#DejaVuSans-32"/>
       <use x="63.623047" xlink:href="#DejaVuSans-30"/>
       <use x="127.246094" xlink:href="#DejaVuSans-31"/>
       <use x="190.869141" xlink:href="#DejaVuSans-31"/>
       <use x="254.492188" xlink:href="#DejaVuSans-2d"/>
       <use x="290.576172" xlink:href="#DejaVuSans-30"/>
       <use x="354.199219" xlink:href="#DejaVuSans-36"/>
      </g>
     </g>
    </g>
    <g id="xtick_15">
     <g id="line2d_15">
      <g>
       <use style="stroke:#000000;stroke-width:0.8;" x="342.695686" xlink:href="#mb53087ea8b" y="858.674"/>
      </g>
     </g>
     <g id="text_15">
      <!-- 2011-09 -->
      <g transform="translate(345.455061 907.456812)rotate(-90)scale(0.1 -0.1)">
       <use xlink:href="#DejaVuSans-32"/>
       <use x="63.623047" xlink:href="#DejaVuSans-30"/>
       <use x="127.246094" xlink:href="#DejaVuSans-31"/>
       <use x="190.869141" xlink:href="#DejaVuSans-31"/>
       <use x="254.492188" xlink:href="#DejaVuSans-2d"/>
       <use x="290.576172" xlink:href="#DejaVuSans-30"/>
       <use x="354.199219" xlink:href="#DejaVuSans-39"/>
      </g>
     </g>
    </g>
    <g id="xtick_16">
     <g id="line2d_16">
      <g>
       <use style="stroke:#000000;stroke-width:0.8;" x="362.793846" xlink:href="#mb53087ea8b" y="858.674"/>
      </g>
     </g>
     <g id="text_16">
      <!-- 2011-12 -->
      <g transform="translate(365.553221 907.456812)rotate(-90)scale(0.1 -0.1)">
       <use xlink:href="#DejaVuSans-32"/>
       <use x="63.623047" xlink:href="#DejaVuSans-30"/>
       <use x="127.246094" xlink:href="#DejaVuSans-31"/>
       <use x="190.869141" xlink:href="#DejaVuSans-31"/>
       <use x="254.492188" xlink:href="#DejaVuSans-2d"/>
       <use x="290.576172" xlink:href="#DejaVuSans-31"/>
       <use x="354.199219" xlink:href="#DejaVuSans-32"/>
      </g>
     </g>
    </g>
    <g id="xtick_17">
     <g id="line2d_17">
      <g>
       <use style="stroke:#000000;stroke-width:0.8;" x="382.892005" xlink:href="#mb53087ea8b" y="858.674"/>
      </g>
     </g>
     <g id="text_17">
      <!-- 2012-03 -->
      <g transform="translate(385.65138 907.456812)rotate(-90)scale(0.1 -0.1)">
       <use xlink:href="#DejaVuSans-32"/>
       <use x="63.623047" xlink:href="#DejaVuSans-30"/>
       <use x="127.246094" xlink:href="#DejaVuSans-31"/>
       <use x="190.869141" xlink:href="#DejaVuSans-32"/>
       <use x="254.492188" xlink:href="#DejaVuSans-2d"/>
       <use x="290.576172" xlink:href="#DejaVuSans-30"/>
       <use x="354.199219" xlink:href="#DejaVuSans-33"/>
      </g>
     </g>
    </g>
    <g id="xtick_18">
     <g id="line2d_18">
      <g>
       <use style="stroke:#000000;stroke-width:0.8;" x="403.211024" xlink:href="#mb53087ea8b" y="858.674"/>
      </g>
     </g>
     <g id="text_18">
      <!-- 2012-06 -->
      <g transform="translate(405.970399 907.456812)rotate(-90)scale(0.1 -0.1)">
       <use xlink:href="#DejaVuSans-32"/>
       <use x="63.623047" xlink:href="#DejaVuSans-30"/>
       <use x="127.246094" xlink:href="#DejaVuSans-31"/>
       <use x="190.869141" xlink:href="#DejaVuSans-32"/>
       <use x="254.492188" xlink:href="#DejaVuSans-2d"/>
       <use x="290.576172" xlink:href="#DejaVuSans-30"/>
       <use x="354.199219" xlink:href="#DejaVuSans-36"/>
      </g>
     </g>
    </g>
    <g id="xtick_19">
     <g id="line2d_19">
      <g>
       <use style="stroke:#000000;stroke-width:0.8;" x="423.530042" xlink:href="#mb53087ea8b" y="858.674"/>
      </g>
     </g>
     <g id="text_19">
      <!-- 2012-09 -->
      <g transform="translate(426.289417 907.456812)rotate(-90)scale(0.1 -0.1)">
       <use xlink:href="#DejaVuSans-32"/>
       <use x="63.623047" xlink:href="#DejaVuSans-30"/>
       <use x="127.246094" xlink:href="#DejaVuSans-31"/>
       <use x="190.869141" xlink:href="#DejaVuSans-32"/>
       <use x="254.492188" xlink:href="#DejaVuSans-2d"/>
       <use x="290.576172" xlink:href="#DejaVuSans-30"/>
       <use x="354.199219" xlink:href="#DejaVuSans-39"/>
      </g>
     </g>
    </g>
    <g id="xtick_20">
     <g id="line2d_20">
      <g>
       <use style="stroke:#000000;stroke-width:0.8;" x="443.628202" xlink:href="#mb53087ea8b" y="858.674"/>
      </g>
     </g>
     <g id="text_20">
      <!-- 2012-12 -->
      <g transform="translate(446.387577 907.456812)rotate(-90)scale(0.1 -0.1)">
       <use xlink:href="#DejaVuSans-32"/>
       <use x="63.623047" xlink:href="#DejaVuSans-30"/>
       <use x="127.246094" xlink:href="#DejaVuSans-31"/>
       <use x="190.869141" xlink:href="#DejaVuSans-32"/>
       <use x="254.492188" xlink:href="#DejaVuSans-2d"/>
       <use x="290.576172" xlink:href="#DejaVuSans-31"/>
       <use x="354.199219" xlink:href="#DejaVuSans-32"/>
      </g>
     </g>
    </g>
    <g id="xtick_21">
     <g id="line2d_21">
      <g>
       <use style="stroke:#000000;stroke-width:0.8;" x="463.505502" xlink:href="#mb53087ea8b" y="858.674"/>
      </g>
     </g>
     <g id="text_21">
      <!-- 2013-03 -->
      <g transform="translate(466.264877 907.456812)rotate(-90)scale(0.1 -0.1)">
       <use xlink:href="#DejaVuSans-32"/>
       <use x="63.623047" xlink:href="#DejaVuSans-30"/>
       <use x="127.246094" xlink:href="#DejaVuSans-31"/>
       <use x="190.869141" xlink:href="#DejaVuSans-33"/>
       <use x="254.492188" xlink:href="#DejaVuSans-2d"/>
       <use x="290.576172" xlink:href="#DejaVuSans-30"/>
       <use x="354.199219" xlink:href="#DejaVuSans-33"/>
      </g>
     </g>
    </g>
    <g id="xtick_22">
     <g id="line2d_22">
      <g>
       <use style="stroke:#000000;stroke-width:0.8;" x="483.824521" xlink:href="#mb53087ea8b" y="858.674"/>
      </g>
     </g>
     <g id="text_22">
      <!-- 2013-06 -->
      <g transform="translate(486.583896 907.456812)rotate(-90)scale(0.1 -0.1)">
       <use xlink:href="#DejaVuSans-32"/>
       <use x="63.623047" xlink:href="#DejaVuSans-30"/>
       <use x="127.246094" xlink:href="#DejaVuSans-31"/>
       <use x="190.869141" xlink:href="#DejaVuSans-33"/>
       <use x="254.492188" xlink:href="#DejaVuSans-2d"/>
       <use x="290.576172" xlink:href="#DejaVuSans-30"/>
       <use x="354.199219" xlink:href="#DejaVuSans-36"/>
      </g>
     </g>
    </g>
    <g id="xtick_23">
     <g id="line2d_23">
      <g>
       <use style="stroke:#000000;stroke-width:0.8;" x="504.143539" xlink:href="#mb53087ea8b" y="858.674"/>
      </g>
     </g>
     <g id="text_23">
      <!-- 2013-09 -->
      <g transform="translate(506.902914 907.456812)rotate(-90)scale(0.1 -0.1)">
       <use xlink:href="#DejaVuSans-32"/>
       <use x="63.623047" xlink:href="#DejaVuSans-30"/>
       <use x="127.246094" xlink:href="#DejaVuSans-31"/>
       <use x="190.869141" xlink:href="#DejaVuSans-33"/>
       <use x="254.492188" xlink:href="#DejaVuSans-2d"/>
       <use x="290.576172" xlink:href="#DejaVuSans-30"/>
       <use x="354.199219" xlink:href="#DejaVuSans-39"/>
      </g>
     </g>
    </g>
    <g id="xtick_24">
     <g id="line2d_24">
      <g>
       <use style="stroke:#000000;stroke-width:0.8;" x="524.241699" xlink:href="#mb53087ea8b" y="858.674"/>
      </g>
     </g>
     <g id="text_24">
      <!-- 2013-12 -->
      <g transform="translate(527.001074 907.456812)rotate(-90)scale(0.1 -0.1)">
       <use xlink:href="#DejaVuSans-32"/>
       <use x="63.623047" xlink:href="#DejaVuSans-30"/>
       <use x="127.246094" xlink:href="#DejaVuSans-31"/>
       <use x="190.869141" xlink:href="#DejaVuSans-33"/>
       <use x="254.492188" xlink:href="#DejaVuSans-2d"/>
       <use x="290.576172" xlink:href="#DejaVuSans-31"/>
       <use x="354.199219" xlink:href="#DejaVuSans-32"/>
      </g>
     </g>
    </g>
    <g id="xtick_25">
     <g id="line2d_25">
      <g>
       <use style="stroke:#000000;stroke-width:0.8;" x="544.118999" xlink:href="#mb53087ea8b" y="858.674"/>
      </g>
     </g>
     <g id="text_25">
      <!-- 2014-03 -->
      <g transform="translate(546.878374 907.456812)rotate(-90)scale(0.1 -0.1)">
       <defs>
        <path d="M 2419 4116 
L 825 1625 
L 2419 1625 
L 2419 4116 
z
M 2253 4666 
L 3047 4666 
L 3047 1625 
L 3713 1625 
L 3713 1100 
L 3047 1100 
L 3047 0 
L 2419 0 
L 2419 1100 
L 313 1100 
L 313 1709 
L 2253 4666 
z
" id="DejaVuSans-34" transform="scale(0.015625)"/>
       </defs>
       <use xlink:href="#DejaVuSans-32"/>
       <use x="63.623047" xlink:href="#DejaVuSans-30"/>
       <use x="127.246094" xlink:href="#DejaVuSans-31"/>
       <use x="190.869141" xlink:href="#DejaVuSans-34"/>
       <use x="254.492188" xlink:href="#DejaVuSans-2d"/>
       <use x="290.576172" xlink:href="#DejaVuSans-30"/>
       <use x="354.199219" xlink:href="#DejaVuSans-33"/>
      </g>
     </g>
    </g>
    <g id="xtick_26">
     <g id="line2d_26">
      <g>
       <use style="stroke:#000000;stroke-width:0.8;" x="564.438018" xlink:href="#mb53087ea8b" y="858.674"/>
      </g>
     </g>
     <g id="text_26">
      <!-- 2014-06 -->
      <g transform="translate(567.197393 907.456812)rotate(-90)scale(0.1 -0.1)">
       <use xlink:href="#DejaVuSans-32"/>
       <use x="63.623047" xlink:href="#DejaVuSans-30"/>
       <use x="127.246094" xlink:href="#DejaVuSans-31"/>
       <use x="190.869141" xlink:href="#DejaVuSans-34"/>
       <use x="254.492188" xlink:href="#DejaVuSans-2d"/>
       <use x="290.576172" xlink:href="#DejaVuSans-30"/>
       <use x="354.199219" xlink:href="#DejaVuSans-36"/>
      </g>
     </g>
    </g>
    <g id="xtick_27">
     <g id="line2d_27">
      <g>
       <use style="stroke:#000000;stroke-width:0.8;" x="584.757036" xlink:href="#mb53087ea8b" y="858.674"/>
      </g>
     </g>
     <g id="text_27">
      <!-- 2014-09 -->
      <g transform="translate(587.516411 907.456812)rotate(-90)scale(0.1 -0.1)">
       <use xlink:href="#DejaVuSans-32"/>
       <use x="63.623047" xlink:href="#DejaVuSans-30"/>
       <use x="127.246094" xlink:href="#DejaVuSans-31"/>
       <use x="190.869141" xlink:href="#DejaVuSans-34"/>
       <use x="254.492188" xlink:href="#DejaVuSans-2d"/>
       <use x="290.576172" xlink:href="#DejaVuSans-30"/>
       <use x="354.199219" xlink:href="#DejaVuSans-39"/>
      </g>
     </g>
    </g>
    <g id="xtick_28">
     <g id="line2d_28">
      <g>
       <use style="stroke:#000000;stroke-width:0.8;" x="604.855196" xlink:href="#mb53087ea8b" y="858.674"/>
      </g>
     </g>
     <g id="text_28">
      <!-- 2014-12 -->
      <g transform="translate(607.614571 907.456812)rotate(-90)scale(0.1 -0.1)">
       <use xlink:href="#DejaVuSans-32"/>
       <use x="63.623047" xlink:href="#DejaVuSans-30"/>
       <use x="127.246094" xlink:href="#DejaVuSans-31"/>
       <use x="190.869141" xlink:href="#DejaVuSans-34"/>
       <use x="254.492188" xlink:href="#DejaVuSans-2d"/>
       <use x="290.576172" xlink:href="#DejaVuSans-31"/>
       <use x="354.199219" xlink:href="#DejaVuSans-32"/>
      </g>
     </g>
    </g>
    <g id="xtick_29">
     <g id="line2d_29">
      <g>
       <use style="stroke:#000000;stroke-width:0.8;" x="624.732496" xlink:href="#mb53087ea8b" y="858.674"/>
      </g>
     </g>
     <g id="text_29">
      <!-- 2015-03 -->
      <g transform="translate(627.491871 907.456812)rotate(-90)scale(0.1 -0.1)">
       <defs>
        <path d="M 691 4666 
L 3169 4666 
L 3169 4134 
L 1269 4134 
L 1269 2991 
Q 1406 3038 1543 3061 
Q 1681 3084 1819 3084 
Q 2600 3084 3056 2656 
Q 3513 2228 3513 1497 
Q 3513 744 3044 326 
Q 2575 -91 1722 -91 
Q 1428 -91 1123 -41 
Q 819 9 494 109 
L 494 744 
Q 775 591 1075 516 
Q 1375 441 1709 441 
Q 2250 441 2565 725 
Q 2881 1009 2881 1497 
Q 2881 1984 2565 2268 
Q 2250 2553 1709 2553 
Q 1456 2553 1204 2497 
Q 953 2441 691 2322 
L 691 4666 
z
" id="DejaVuSans-35" transform="scale(0.015625)"/>
       </defs>
       <use xlink:href="#DejaVuSans-32"/>
       <use x="63.623047" xlink:href="#DejaVuSans-30"/>
       <use x="127.246094" xlink:href="#DejaVuSans-31"/>
       <use x="190.869141" xlink:href="#DejaVuSans-35"/>
       <use x="254.492188" xlink:href="#DejaVuSans-2d"/>
       <use x="290.576172" xlink:href="#DejaVuSans-30"/>
       <use x="354.199219" xlink:href="#DejaVuSans-33"/>
      </g>
     </g>
    </g>
    <g id="xtick_30">
     <g id="line2d_30">
      <g>
       <use style="stroke:#000000;stroke-width:0.8;" x="645.051515" xlink:href="#mb53087ea8b" y="858.674"/>
      </g>
     </g>
     <g id="text_30">
      <!-- 2015-06 -->
      <g transform="translate(647.81089 907.456812)rotate(-90)scale(0.1 -0.1)">
       <use xlink:href="#DejaVuSans-32"/>
       <use x="63.623047" xlink:href="#DejaVuSans-30"/>
       <use x="127.246094" xlink:href="#DejaVuSans-31"/>
       <use x="190.869141" xlink:href="#DejaVuSans-35"/>
       <use x="254.492188" xlink:href="#DejaVuSans-2d"/>
       <use x="290.576172" xlink:href="#DejaVuSans-30"/>
       <use x="354.199219" xlink:href="#DejaVuSans-36"/>
      </g>
     </g>
    </g>
    <g id="xtick_31">
     <g id="line2d_31">
      <g>
       <use style="stroke:#000000;stroke-width:0.8;" x="665.370533" xlink:href="#mb53087ea8b" y="858.674"/>
      </g>
     </g>
     <g id="text_31">
      <!-- 2015-09 -->
      <g transform="translate(668.129908 907.456812)rotate(-90)scale(0.1 -0.1)">
       <use xlink:href="#DejaVuSans-32"/>
       <use x="63.623047" xlink:href="#DejaVuSans-30"/>
       <use x="127.246094" xlink:href="#DejaVuSans-31"/>
       <use x="190.869141" xlink:href="#DejaVuSans-35"/>
       <use x="254.492188" xlink:href="#DejaVuSans-2d"/>
       <use x="290.576172" xlink:href="#DejaVuSans-30"/>
       <use x="354.199219" xlink:href="#DejaVuSans-39"/>
      </g>
     </g>
    </g>
    <g id="xtick_32">
     <g id="line2d_32">
      <g>
       <use style="stroke:#000000;stroke-width:0.8;" x="685.468692" xlink:href="#mb53087ea8b" y="858.674"/>
      </g>
     </g>
     <g id="text_32">
      <!-- 2015-12 -->
      <g transform="translate(688.228067 907.456812)rotate(-90)scale(0.1 -0.1)">
       <use xlink:href="#DejaVuSans-32"/>
       <use x="63.623047" xlink:href="#DejaVuSans-30"/>
       <use x="127.246094" xlink:href="#DejaVuSans-31"/>
       <use x="190.869141" xlink:href="#DejaVuSans-35"/>
       <use x="254.492188" xlink:href="#DejaVuSans-2d"/>
       <use x="290.576172" xlink:href="#DejaVuSans-31"/>
       <use x="354.199219" xlink:href="#DejaVuSans-32"/>
      </g>
     </g>
    </g>
    <g id="xtick_33">
     <g id="line2d_33">
      <g>
       <use style="stroke:#000000;stroke-width:0.8;" x="705.566852" xlink:href="#mb53087ea8b" y="858.674"/>
      </g>
     </g>
     <g id="text_33">
      <!-- 2016-03 -->
      <g transform="translate(708.326227 907.456812)rotate(-90)scale(0.1 -0.1)">
       <use xlink:href="#DejaVuSans-32"/>
       <use x="63.623047" xlink:href="#DejaVuSans-30"/>
       <use x="127.246094" xlink:href="#DejaVuSans-31"/>
       <use x="190.869141" xlink:href="#DejaVuSans-36"/>
       <use x="254.492188" xlink:href="#DejaVuSans-2d"/>
       <use x="290.576172" xlink:href="#DejaVuSans-30"/>
       <use x="354.199219" xlink:href="#DejaVuSans-33"/>
      </g>
     </g>
    </g>
    <g id="xtick_34">
     <g id="line2d_34">
      <g>
       <use style="stroke:#000000;stroke-width:0.8;" x="725.88587" xlink:href="#mb53087ea8b" y="858.674"/>
      </g>
     </g>
     <g id="text_34">
      <!-- 2016-06 -->
      <g transform="translate(728.645245 907.456812)rotate(-90)scale(0.1 -0.1)">
       <use xlink:href="#DejaVuSans-32"/>
       <use x="63.623047" xlink:href="#DejaVuSans-30"/>
       <use x="127.246094" xlink:href="#DejaVuSans-31"/>
       <use x="190.869141" xlink:href="#DejaVuSans-36"/>
       <use x="254.492188" xlink:href="#DejaVuSans-2d"/>
       <use x="290.576172" xlink:href="#DejaVuSans-30"/>
       <use x="354.199219" xlink:href="#DejaVuSans-36"/>
      </g>
     </g>
    </g>
    <g id="xtick_35">
     <g id="line2d_35">
      <g>
       <use style="stroke:#000000;stroke-width:0.8;" x="746.204889" xlink:href="#mb53087ea8b" y="858.674"/>
      </g>
     </g>
     <g id="text_35">
      <!-- 2016-09 -->
      <g transform="translate(748.964264 907.456812)rotate(-90)scale(0.1 -0.1)">
       <use xlink:href="#DejaVuSans-32"/>
       <use x="63.623047" xlink:href="#DejaVuSans-30"/>
       <use x="127.246094" xlink:href="#DejaVuSans-31"/>
       <use x="190.869141" xlink:href="#DejaVuSans-36"/>
       <use x="254.492188" xlink:href="#DejaVuSans-2d"/>
       <use x="290.576172" xlink:href="#DejaVuSans-30"/>
       <use x="354.199219" xlink:href="#DejaVuSans-39"/>
      </g>
     </g>
    </g>
    <g id="xtick_36">
     <g id="line2d_36">
      <g>
       <use style="stroke:#000000;stroke-width:0.8;" x="766.303048" xlink:href="#mb53087ea8b" y="858.674"/>
      </g>
     </g>
     <g id="text_36">
      <!-- 2016-12 -->
      <g transform="translate(769.062423 907.456812)rotate(-90)scale(0.1 -0.1)">
       <use xlink:href="#DejaVuSans-32"/>
       <use x="63.623047" xlink:href="#DejaVuSans-30"/>
       <use x="127.246094" xlink:href="#DejaVuSans-31"/>
       <use x="190.869141" xlink:href="#DejaVuSans-36"/>
       <use x="254.492188" xlink:href="#DejaVuSans-2d"/>
       <use x="290.576172" xlink:href="#DejaVuSans-31"/>
       <use x="354.199219" xlink:href="#DejaVuSans-32"/>
      </g>
     </g>
    </g>
    <g id="xtick_37">
     <g id="line2d_37">
      <g>
       <use style="stroke:#000000;stroke-width:0.8;" x="786.180349" xlink:href="#mb53087ea8b" y="858.674"/>
      </g>
     </g>
     <g id="text_37">
      <!-- 2017-03 -->
      <g transform="translate(788.939724 907.456812)rotate(-90)scale(0.1 -0.1)">
       <defs>
        <path d="M 525 4666 
L 3525 4666 
L 3525 4397 
L 1831 0 
L 1172 0 
L 2766 4134 
L 525 4134 
L 525 4666 
z
" id="DejaVuSans-37" transform="scale(0.015625)"/>
       </defs>
       <use xlink:href="#DejaVuSans-32"/>
       <use x="63.623047" xlink:href="#DejaVuSans-30"/>
       <use x="127.246094" xlink:href="#DejaVuSans-31"/>
       <use x="190.869141" xlink:href="#DejaVuSans-37"/>
       <use x="254.492188" xlink:href="#DejaVuSans-2d"/>
       <use x="290.576172" xlink:href="#DejaVuSans-30"/>
       <use x="354.199219" xlink:href="#DejaVuSans-33"/>
      </g>
     </g>
    </g>
    <g id="xtick_38">
     <g id="line2d_38">
      <g>
       <use style="stroke:#000000;stroke-width:0.8;" x="806.499367" xlink:href="#mb53087ea8b" y="858.674"/>
      </g>
     </g>
     <g id="text_38">
      <!-- 2017-06 -->
      <g transform="translate(809.258742 907.456812)rotate(-90)scale(0.1 -0.1)">
       <use xlink:href="#DejaVuSans-32"/>
       <use x="63.623047" xlink:href="#DejaVuSans-30"/>
       <use x="127.246094" xlink:href="#DejaVuSans-31"/>
       <use x="190.869141" xlink:href="#DejaVuSans-37"/>
       <use x="254.492188" xlink:href="#DejaVuSans-2d"/>
       <use x="290.576172" xlink:href="#DejaVuSans-30"/>
       <use x="354.199219" xlink:href="#DejaVuSans-36"/>
      </g>
     </g>
    </g>
    <g id="xtick_39">
     <g id="line2d_39">
      <g>
       <use style="stroke:#000000;stroke-width:0.8;" x="826.818386" xlink:href="#mb53087ea8b" y="858.674"/>
      </g>
     </g>
     <g id="text_39">
      <!-- 2017-09 -->
      <g transform="translate(829.577761 907.456812)rotate(-90)scale(0.1 -0.1)">
       <use xlink:href="#DejaVuSans-32"/>
       <use x="63.623047" xlink:href="#DejaVuSans-30"/>
       <use x="127.246094" xlink:href="#DejaVuSans-31"/>
       <use x="190.869141" xlink:href="#DejaVuSans-37"/>
       <use x="254.492188" xlink:href="#DejaVuSans-2d"/>
       <use x="290.576172" xlink:href="#DejaVuSans-30"/>
       <use x="354.199219" xlink:href="#DejaVuSans-39"/>
      </g>
     </g>
    </g>
    <g id="xtick_40">
     <g id="line2d_40">
      <g>
       <use style="stroke:#000000;stroke-width:0.8;" x="846.916545" xlink:href="#mb53087ea8b" y="858.674"/>
      </g>
     </g>
     <g id="text_40">
      <!-- 2017-12 -->
      <g transform="translate(849.67592 907.456812)rotate(-90)scale(0.1 -0.1)">
       <use xlink:href="#DejaVuSans-32"/>
       <use x="63.623047" xlink:href="#DejaVuSans-30"/>
       <use x="127.246094" xlink:href="#DejaVuSans-31"/>
       <use x="190.869141" xlink:href="#DejaVuSans-37"/>
       <use x="254.492188" xlink:href="#DejaVuSans-2d"/>
       <use x="290.576172" xlink:href="#DejaVuSans-31"/>
       <use x="354.199219" xlink:href="#DejaVuSans-32"/>
      </g>
     </g>
    </g>
    <g id="xtick_41">
     <g id="line2d_41">
      <g>
       <use style="stroke:#000000;stroke-width:0.8;" x="866.793846" xlink:href="#mb53087ea8b" y="858.674"/>
      </g>
     </g>
     <g id="text_41">
      <!-- 2018-03 -->
      <g transform="translate(869.553221 907.456812)rotate(-90)scale(0.1 -0.1)">
       <use xlink:href="#DejaVuSans-32"/>
       <use x="63.623047" xlink:href="#DejaVuSans-30"/>
       <use x="127.246094" xlink:href="#DejaVuSans-31"/>
       <use x="190.869141" xlink:href="#DejaVuSans-38"/>
       <use x="254.492188" xlink:href="#DejaVuSans-2d"/>
       <use x="290.576172" xlink:href="#DejaVuSans-30"/>
       <use x="354.199219" xlink:href="#DejaVuSans-33"/>
      </g>
     </g>
    </g>
    <g id="xtick_42">
     <g id="line2d_42">
      <g>
       <use style="stroke:#000000;stroke-width:0.8;" x="887.112864" xlink:href="#mb53087ea8b" y="858.674"/>
      </g>
     </g>
     <g id="text_42">
      <!-- 2018-06 -->
      <g transform="translate(889.872239 907.456812)rotate(-90)scale(0.1 -0.1)">
       <use xlink:href="#DejaVuSans-32"/>
       <use x="63.623047" xlink:href="#DejaVuSans-30"/>
       <use x="127.246094" xlink:href="#DejaVuSans-31"/>
       <use x="190.869141" xlink:href="#DejaVuSans-38"/>
       <use x="254.492188" xlink:href="#DejaVuSans-2d"/>
       <use x="290.576172" xlink:href="#DejaVuSans-30"/>
       <use x="354.199219" xlink:href="#DejaVuSans-36"/>
      </g>
     </g>
    </g>
    <g id="xtick_43">
     <g id="line2d_43">
      <g>
       <use style="stroke:#000000;stroke-width:0.8;" x="907.431883" xlink:href="#mb53087ea8b" y="858.674"/>
      </g>
     </g>
     <g id="text_43">
      <!-- 2018-09 -->
      <g transform="translate(910.191258 907.456812)rotate(-90)scale(0.1 -0.1)">
       <use xlink:href="#DejaVuSans-32"/>
       <use x="63.623047" xlink:href="#DejaVuSans-30"/>
       <use x="127.246094" xlink:href="#DejaVuSans-31"/>
       <use x="190.869141" xlink:href="#DejaVuSans-38"/>
       <use x="254.492188" xlink:href="#DejaVuSans-2d"/>
       <use x="290.576172" xlink:href="#DejaVuSans-30"/>
       <use x="354.199219" xlink:href="#DejaVuSans-39"/>
      </g>
     </g>
    </g>
    <g id="xtick_44">
     <g id="line2d_44">
      <g>
       <use style="stroke:#000000;stroke-width:0.8;" x="927.530042" xlink:href="#mb53087ea8b" y="858.674"/>
      </g>
     </g>
     <g id="text_44">
      <!-- 2018-12 -->
      <g transform="translate(930.289417 907.456812)rotate(-90)scale(0.1 -0.1)">
       <use xlink:href="#DejaVuSans-32"/>
       <use x="63.623047" xlink:href="#DejaVuSans-30"/>
       <use x="127.246094" xlink:href="#DejaVuSans-31"/>
       <use x="190.869141" xlink:href="#DejaVuSans-38"/>
       <use x="254.492188" xlink:href="#DejaVuSans-2d"/>
       <use x="290.576172" xlink:href="#DejaVuSans-31"/>
       <use x="354.199219" xlink:href="#DejaVuSans-32"/>
      </g>
     </g>
    </g>
    <g id="xtick_45">
     <g id="line2d_45">
      <g>
       <use style="stroke:#000000;stroke-width:0.8;" x="947.407343" xlink:href="#mb53087ea8b" y="858.674"/>
      </g>
     </g>
     <g id="text_45">
      <!-- 2019-03 -->
      <g transform="translate(950.166718 907.456812)rotate(-90)scale(0.1 -0.1)">
       <use xlink:href="#DejaVuSans-32"/>
       <use x="63.623047" xlink:href="#DejaVuSans-30"/>
       <use x="127.246094" xlink:href="#DejaVuSans-31"/>
       <use x="190.869141" xlink:href="#DejaVuSans-39"/>
       <use x="254.492188" xlink:href="#DejaVuSans-2d"/>
       <use x="290.576172" xlink:href="#DejaVuSans-30"/>
       <use x="354.199219" xlink:href="#DejaVuSans-33"/>
      </g>
     </g>
    </g>
    <g id="xtick_46">
     <g id="line2d_46">
      <g>
       <use style="stroke:#000000;stroke-width:0.8;" x="967.726361" xlink:href="#mb53087ea8b" y="858.674"/>
      </g>
     </g>
     <g id="text_46">
      <!-- 2019-06 -->
      <g transform="translate(970.485736 907.456812)rotate(-90)scale(0.1 -0.1)">
       <use xlink:href="#DejaVuSans-32"/>
       <use x="63.623047" xlink:href="#DejaVuSans-30"/>
       <use x="127.246094" xlink:href="#DejaVuSans-31"/>
       <use x="190.869141" xlink:href="#DejaVuSans-39"/>
       <use x="254.492188" xlink:href="#DejaVuSans-2d"/>
       <use x="290.576172" xlink:href="#DejaVuSans-30"/>
       <use x="354.199219" xlink:href="#DejaVuSans-36"/>
      </g>
     </g>
    </g>
    <g id="xtick_47">
     <g id="line2d_47">
      <g>
       <use style="stroke:#000000;stroke-width:0.8;" x="988.04538" xlink:href="#mb53087ea8b" y="858.674"/>
      </g>
     </g>
     <g id="text_47">
      <!-- 2019-09 -->
      <g transform="translate(990.804755 907.456812)rotate(-90)scale(0.1 -0.1)">
       <use xlink:href="#DejaVuSans-32"/>
       <use x="63.623047" xlink:href="#DejaVuSans-30"/>
       <use x="127.246094" xlink:href="#DejaVuSans-31"/>
       <use x="190.869141" xlink:href="#DejaVuSans-39"/>
       <use x="254.492188" xlink:href="#DejaVuSans-2d"/>
       <use x="290.576172" xlink:href="#DejaVuSans-30"/>
       <use x="354.199219" xlink:href="#DejaVuSans-39"/>
      </g>
     </g>
    </g>
    <g id="xtick_48">
     <g id="line2d_48">
      <g>
       <use style="stroke:#000000;stroke-width:0.8;" x="1008.143539" xlink:href="#mb53087ea8b" y="858.674"/>
      </g>
     </g>
     <g id="text_48">
      <!-- 2019-12 -->
      <g transform="translate(1010.902914 907.456812)rotate(-90)scale(0.1 -0.1)">
       <use xlink:href="#DejaVuSans-32"/>
       <use x="63.623047" xlink:href="#DejaVuSans-30"/>
       <use x="127.246094" xlink:href="#DejaVuSans-31"/>
       <use x="190.869141" xlink:href="#DejaVuSans-39"/>
       <use x="254.492188" xlink:href="#DejaVuSans-2d"/>
       <use x="290.576172" xlink:href="#DejaVuSans-31"/>
       <use x="354.199219" xlink:href="#DejaVuSans-32"/>
      </g>
     </g>
    </g>
    <g id="xtick_49">
     <g id="line2d_49">
      <g>
       <use style="stroke:#000000;stroke-width:0.8;" x="1028.241699" xlink:href="#mb53087ea8b" y="858.674"/>
      </g>
     </g>
     <g id="text_49">
      <!-- 2020-03 -->
      <g transform="translate(1031.001074 907.456812)rotate(-90)scale(0.1 -0.1)">
       <use xlink:href="#DejaVuSans-32"/>
       <use x="63.623047" xlink:href="#DejaVuSans-30"/>
       <use x="127.246094" xlink:href="#DejaVuSans-32"/>
       <use x="190.869141" xlink:href="#DejaVuSans-30"/>
       <use x="254.492188" xlink:href="#DejaVuSans-2d"/>
       <use x="290.576172" xlink:href="#DejaVuSans-30"/>
       <use x="354.199219" xlink:href="#DejaVuSans-33"/>
      </g>
     </g>
    </g>
    <g id="xtick_50">
     <g id="line2d_50">
      <g>
       <use style="stroke:#000000;stroke-width:0.8;" x="1048.560717" xlink:href="#mb53087ea8b" y="858.674"/>
      </g>
     </g>
     <g id="text_50">
      <!-- 2020-06 -->
      <g transform="translate(1051.320092 907.456812)rotate(-90)scale(0.1 -0.1)">
       <use xlink:href="#DejaVuSans-32"/>
       <use x="63.623047" xlink:href="#DejaVuSans-30"/>
       <use x="127.246094" xlink:href="#DejaVuSans-32"/>
       <use x="190.869141" xlink:href="#DejaVuSans-30"/>
       <use x="254.492188" xlink:href="#DejaVuSans-2d"/>
       <use x="290.576172" xlink:href="#DejaVuSans-30"/>
       <use x="354.199219" xlink:href="#DejaVuSans-36"/>
      </g>
     </g>
    </g>
    <g id="xtick_51">
     <g id="line2d_51">
      <g>
       <use style="stroke:#000000;stroke-width:0.8;" x="1068.879735" xlink:href="#mb53087ea8b" y="858.674"/>
      </g>
     </g>
     <g id="text_51">
      <!-- 2020-09 -->
      <g transform="translate(1071.63911 907.456812)rotate(-90)scale(0.1 -0.1)">
       <use xlink:href="#DejaVuSans-32"/>
       <use x="63.623047" xlink:href="#DejaVuSans-30"/>
       <use x="127.246094" xlink:href="#DejaVuSans-32"/>
       <use x="190.869141" xlink:href="#DejaVuSans-30"/>
       <use x="254.492188" xlink:href="#DejaVuSans-2d"/>
       <use x="290.576172" xlink:href="#DejaVuSans-30"/>
       <use x="354.199219" xlink:href="#DejaVuSans-39"/>
      </g>
     </g>
    </g>
    <g id="xtick_52">
     <g id="line2d_52">
      <g>
       <use style="stroke:#000000;stroke-width:0.8;" x="1088.977895" xlink:href="#mb53087ea8b" y="858.674"/>
      </g>
     </g>
     <g id="text_52">
      <!-- 2020-12 -->
      <g transform="translate(1091.73727 907.456812)rotate(-90)scale(0.1 -0.1)">
       <use xlink:href="#DejaVuSans-32"/>
       <use x="63.623047" xlink:href="#DejaVuSans-30"/>
       <use x="127.246094" xlink:href="#DejaVuSans-32"/>
       <use x="190.869141" xlink:href="#DejaVuSans-30"/>
       <use x="254.492188" xlink:href="#DejaVuSans-2d"/>
       <use x="290.576172" xlink:href="#DejaVuSans-31"/>
       <use x="354.199219" xlink:href="#DejaVuSans-32"/>
      </g>
     </g>
    </g>
    <g id="xtick_53">
     <g id="line2d_53">
      <g>
       <use style="stroke:#000000;stroke-width:0.8;" x="1108.855196" xlink:href="#mb53087ea8b" y="858.674"/>
      </g>
     </g>
     <g id="text_53">
      <!-- 2021-03 -->
      <g transform="translate(1111.614571 907.456812)rotate(-90)scale(0.1 -0.1)">
       <use xlink:href="#DejaVuSans-32"/>
       <use x="63.623047" xlink:href="#DejaVuSans-30"/>
       <use x="127.246094" xlink:href="#DejaVuSans-32"/>
       <use x="190.869141" xlink:href="#DejaVuSans-31"/>
       <use x="254.492188" xlink:href="#DejaVuSans-2d"/>
       <use x="290.576172" xlink:href="#DejaVuSans-30"/>
       <use x="354.199219" xlink:href="#DejaVuSans-33"/>
      </g>
     </g>
    </g>
    <g id="xtick_54">
     <g id="line2d_54">
      <g>
       <use style="stroke:#000000;stroke-width:0.8;" x="1129.174214" xlink:href="#mb53087ea8b" y="858.674"/>
      </g>
     </g>
     <g id="text_54">
      <!-- 2021-06 -->
      <g transform="translate(1131.933589 907.456812)rotate(-90)scale(0.1 -0.1)">
       <use xlink:href="#DejaVuSans-32"/>
       <use x="63.623047" xlink:href="#DejaVuSans-30"/>
       <use x="127.246094" xlink:href="#DejaVuSans-32"/>
       <use x="190.869141" xlink:href="#DejaVuSans-31"/>
       <use x="254.492188" xlink:href="#DejaVuSans-2d"/>
       <use x="290.576172" xlink:href="#DejaVuSans-30"/>
       <use x="354.199219" xlink:href="#DejaVuSans-36"/>
      </g>
     </g>
    </g>
    <g id="xtick_55">
     <g id="line2d_55">
      <g>
       <use style="stroke:#000000;stroke-width:0.8;" x="1149.493232" xlink:href="#mb53087ea8b" y="858.674"/>
      </g>
     </g>
     <g id="text_55">
      <!-- 2021-09 -->
      <g transform="translate(1152.252607 907.456812)rotate(-90)scale(0.1 -0.1)">
       <use xlink:href="#DejaVuSans-32"/>
       <use x="63.623047" xlink:href="#DejaVuSans-30"/>
       <use x="127.246094" xlink:href="#DejaVuSans-32"/>
       <use x="190.869141" xlink:href="#DejaVuSans-31"/>
       <use x="254.492188" xlink:href="#DejaVuSans-2d"/>
       <use x="290.576172" xlink:href="#DejaVuSans-30"/>
       <use x="354.199219" xlink:href="#DejaVuSans-39"/>
      </g>
     </g>
    </g>
    <g id="text_56">
     <!-- Time (Year-Month) -->
     <g transform="translate(559.497656 919.05525)scale(0.1 -0.1)">
      <defs>
       <path d="M -19 4666 
L 3928 4666 
L 3928 4134 
L 2272 4134 
L 2272 0 
L 1638 0 
L 1638 4134 
L -19 4134 
L -19 4666 
z
" id="DejaVuSans-54" transform="scale(0.015625)"/>
       <path d="M 603 3500 
L 1178 3500 
L 1178 0 
L 603 0 
L 603 3500 
z
M 603 4863 
L 1178 4863 
L 1178 4134 
L 603 4134 
L 603 4863 
z
" id="DejaVuSans-69" transform="scale(0.015625)"/>
       <path d="M 3328 2828 
Q 3544 3216 3844 3400 
Q 4144 3584 4550 3584 
Q 5097 3584 5394 3201 
Q 5691 2819 5691 2113 
L 5691 0 
L 5113 0 
L 5113 2094 
Q 5113 2597 4934 2840 
Q 4756 3084 4391 3084 
Q 3944 3084 3684 2787 
Q 3425 2491 3425 1978 
L 3425 0 
L 2847 0 
L 2847 2094 
Q 2847 2600 2669 2842 
Q 2491 3084 2119 3084 
Q 1678 3084 1418 2786 
Q 1159 2488 1159 1978 
L 1159 0 
L 581 0 
L 581 3500 
L 1159 3500 
L 1159 2956 
Q 1356 3278 1631 3431 
Q 1906 3584 2284 3584 
Q 2666 3584 2933 3390 
Q 3200 3197 3328 2828 
z
" id="DejaVuSans-6d" transform="scale(0.015625)"/>
       <path d="M 3597 1894 
L 3597 1613 
L 953 1613 
Q 991 1019 1311 708 
Q 1631 397 2203 397 
Q 2534 397 2845 478 
Q 3156 559 3463 722 
L 3463 178 
Q 3153 47 2828 -22 
Q 2503 -91 2169 -91 
Q 1331 -91 842 396 
Q 353 884 353 1716 
Q 353 2575 817 3079 
Q 1281 3584 2069 3584 
Q 2775 3584 3186 3129 
Q 3597 2675 3597 1894 
z
M 3022 2063 
Q 3016 2534 2758 2815 
Q 2500 3097 2075 3097 
Q 1594 3097 1305 2825 
Q 1016 2553 972 2059 
L 3022 2063 
z
" id="DejaVuSans-65" transform="scale(0.015625)"/>
       <path id="DejaVuSans-20" transform="scale(0.015625)"/>
       <path d="M 1984 4856 
Q 1566 4138 1362 3434 
Q 1159 2731 1159 2009 
Q 1159 1288 1364 580 
Q 1569 -128 1984 -844 
L 1484 -844 
Q 1016 -109 783 600 
Q 550 1309 550 2009 
Q 550 2706 781 3412 
Q 1013 4119 1484 4856 
L 1984 4856 
z
" id="DejaVuSans-28" transform="scale(0.015625)"/>
       <path d="M -13 4666 
L 666 4666 
L 1959 2747 
L 3244 4666 
L 3922 4666 
L 2272 2222 
L 2272 0 
L 1638 0 
L 1638 2222 
L -13 4666 
z
" id="DejaVuSans-59" transform="scale(0.015625)"/>
       <path d="M 2194 1759 
Q 1497 1759 1228 1600 
Q 959 1441 959 1056 
Q 959 750 1161 570 
Q 1363 391 1709 391 
Q 2188 391 2477 730 
Q 2766 1069 2766 1631 
L 2766 1759 
L 2194 1759 
z
M 3341 1997 
L 3341 0 
L 2766 0 
L 2766 531 
Q 2569 213 2275 61 
Q 1981 -91 1556 -91 
Q 1019 -91 701 211 
Q 384 513 384 1019 
Q 384 1609 779 1909 
Q 1175 2209 1959 2209 
L 2766 2209 
L 2766 2266 
Q 2766 2663 2505 2880 
Q 2244 3097 1772 3097 
Q 1472 3097 1187 3025 
Q 903 2953 641 2809 
L 641 3341 
Q 956 3463 1253 3523 
Q 1550 3584 1831 3584 
Q 2591 3584 2966 3190 
Q 3341 2797 3341 1997 
z
" id="DejaVuSans-61" transform="scale(0.015625)"/>
       <path d="M 2631 2963 
Q 2534 3019 2420 3045 
Q 2306 3072 2169 3072 
Q 1681 3072 1420 2755 
Q 1159 2438 1159 1844 
L 1159 0 
L 581 0 
L 581 3500 
L 1159 3500 
L 1159 2956 
Q 1341 3275 1631 3429 
Q 1922 3584 2338 3584 
Q 2397 3584 2469 3576 
Q 2541 3569 2628 3553 
L 2631 2963 
z
" id="DejaVuSans-72" transform="scale(0.015625)"/>
       <path d="M 628 4666 
L 1569 4666 
L 2759 1491 
L 3956 4666 
L 4897 4666 
L 4897 0 
L 4281 0 
L 4281 4097 
L 3078 897 
L 2444 897 
L 1241 4097 
L 1241 0 
L 628 0 
L 628 4666 
z
" id="DejaVuSans-4d" transform="scale(0.015625)"/>
       <path d="M 1959 3097 
Q 1497 3097 1228 2736 
Q 959 2375 959 1747 
Q 959 1119 1226 758 
Q 1494 397 1959 397 
Q 2419 397 2687 759 
Q 2956 1122 2956 1747 
Q 2956 2369 2687 2733 
Q 2419 3097 1959 3097 
z
M 1959 3584 
Q 2709 3584 3137 3096 
Q 3566 2609 3566 1747 
Q 3566 888 3137 398 
Q 2709 -91 1959 -91 
Q 1206 -91 779 398 
Q 353 888 353 1747 
Q 353 2609 779 3096 
Q 1206 3584 1959 3584 
z
" id="DejaVuSans-6f" transform="scale(0.015625)"/>
       <path d="M 3513 2113 
L 3513 0 
L 2938 0 
L 2938 2094 
Q 2938 2591 2744 2837 
Q 2550 3084 2163 3084 
Q 1697 3084 1428 2787 
Q 1159 2491 1159 1978 
L 1159 0 
L 581 0 
L 581 3500 
L 1159 3500 
L 1159 2956 
Q 1366 3272 1645 3428 
Q 1925 3584 2291 3584 
Q 2894 3584 3203 3211 
Q 3513 2838 3513 2113 
z
" id="DejaVuSans-6e" transform="scale(0.015625)"/>
       <path d="M 1172 4494 
L 1172 3500 
L 2356 3500 
L 2356 3053 
L 1172 3053 
L 1172 1153 
Q 1172 725 1289 603 
Q 1406 481 1766 481 
L 2356 481 
L 2356 0 
L 1766 0 
Q 1100 0 847 248 
Q 594 497 594 1153 
L 594 3053 
L 172 3053 
L 172 3500 
L 594 3500 
L 594 4494 
L 1172 4494 
z
" id="DejaVuSans-74" transform="scale(0.015625)"/>
       <path d="M 3513 2113 
L 3513 0 
L 2938 0 
L 2938 2094 
Q 2938 2591 2744 2837 
Q 2550 3084 2163 3084 
Q 1697 3084 1428 2787 
Q 1159 2491 1159 1978 
L 1159 0 
L 581 0 
L 581 4863 
L 1159 4863 
L 1159 2956 
Q 1366 3272 1645 3428 
Q 1925 3584 2291 3584 
Q 2894 3584 3203 3211 
Q 3513 2838 3513 2113 
z
" id="DejaVuSans-68" transform="scale(0.015625)"/>
       <path d="M 513 4856 
L 1013 4856 
Q 1481 4119 1714 3412 
Q 1947 2706 1947 2009 
Q 1947 1309 1714 600 
Q 1481 -109 1013 -844 
L 513 -844 
Q 928 -128 1133 580 
Q 1338 1288 1338 2009 
Q 1338 2731 1133 3434 
Q 928 4138 513 4856 
z
" id="DejaVuSans-29" transform="scale(0.015625)"/>
      </defs>
      <use xlink:href="#DejaVuSans-54"/>
      <use x="57.958984" xlink:href="#DejaVuSans-69"/>
      <use x="85.742188" xlink:href="#DejaVuSans-6d"/>
      <use x="183.154297" xlink:href="#DejaVuSans-65"/>
      <use x="244.677734" xlink:href="#DejaVuSans-20"/>
      <use x="276.464844" xlink:href="#DejaVuSans-28"/>
      <use x="315.478516" xlink:href="#DejaVuSans-59"/>
      <use x="363.3125" xlink:href="#DejaVuSans-65"/>
      <use x="424.835938" xlink:href="#DejaVuSans-61"/>
      <use x="486.115234" xlink:href="#DejaVuSans-72"/>
      <use x="520.853516" xlink:href="#DejaVuSans-2d"/>
      <use x="556.9375" xlink:href="#DejaVuSans-4d"/>
      <use x="643.216797" xlink:href="#DejaVuSans-6f"/>
      <use x="704.398438" xlink:href="#DejaVuSans-6e"/>
      <use x="767.777344" xlink:href="#DejaVuSans-74"/>
      <use x="806.986328" xlink:href="#DejaVuSans-68"/>
      <use x="870.365234" xlink:href="#DejaVuSans-29"/>
     </g>
    </g>
   </g>
   <g id="matplotlib.axis_2">
    <g id="ytick_1">
     <g id="line2d_56">
      <defs>
       <path d="M 0 0 
L -3.5 0 
" id="m7bd4490c5c" style="stroke:#000000;stroke-width:0.8;"/>
      </defs>
      <g>
       <use style="stroke:#000000;stroke-width:0.8;" x="46.965625" xlink:href="#m7bd4490c5c" y="784.932807"/>
      </g>
     </g>
     <g id="text_57">
      <!-- 150 -->
      <g transform="translate(20.878125 788.732026)scale(0.1 -0.1)">
       <use xlink:href="#DejaVuSans-31"/>
       <use x="63.623047" xlink:href="#DejaVuSans-35"/>
       <use x="127.246094" xlink:href="#DejaVuSans-30"/>
      </g>
     </g>
    </g>
    <g id="ytick_2">
     <g id="line2d_57">
      <g>
       <use style="stroke:#000000;stroke-width:0.8;" x="46.965625" xlink:href="#m7bd4490c5c" y="688.41292"/>
      </g>
     </g>
     <g id="text_58">
      <!-- 200 -->
      <g transform="translate(20.878125 692.212139)scale(0.1 -0.1)">
       <use xlink:href="#DejaVuSans-32"/>
       <use x="63.623047" xlink:href="#DejaVuSans-30"/>
       <use x="127.246094" xlink:href="#DejaVuSans-30"/>
      </g>
     </g>
    </g>
    <g id="ytick_3">
     <g id="line2d_58">
      <g>
       <use style="stroke:#000000;stroke-width:0.8;" x="46.965625" xlink:href="#m7bd4490c5c" y="591.893034"/>
      </g>
     </g>
     <g id="text_59">
      <!-- 250 -->
      <g transform="translate(20.878125 595.692253)scale(0.1 -0.1)">
       <use xlink:href="#DejaVuSans-32"/>
       <use x="63.623047" xlink:href="#DejaVuSans-35"/>
       <use x="127.246094" xlink:href="#DejaVuSans-30"/>
      </g>
     </g>
    </g>
    <g id="ytick_4">
     <g id="line2d_59">
      <g>
       <use style="stroke:#000000;stroke-width:0.8;" x="46.965625" xlink:href="#m7bd4490c5c" y="495.373148"/>
      </g>
     </g>
     <g id="text_60">
      <!-- 300 -->
      <g transform="translate(20.878125 499.172366)scale(0.1 -0.1)">
       <use xlink:href="#DejaVuSans-33"/>
       <use x="63.623047" xlink:href="#DejaVuSans-30"/>
       <use x="127.246094" xlink:href="#DejaVuSans-30"/>
      </g>
     </g>
    </g>
    <g id="ytick_5">
     <g id="line2d_60">
      <g>
       <use style="stroke:#000000;stroke-width:0.8;" x="46.965625" xlink:href="#m7bd4490c5c" y="398.853261"/>
      </g>
     </g>
     <g id="text_61">
      <!-- 350 -->
      <g transform="translate(20.878125 402.65248)scale(0.1 -0.1)">
       <use xlink:href="#DejaVuSans-33"/>
       <use x="63.623047" xlink:href="#DejaVuSans-35"/>
       <use x="127.246094" xlink:href="#DejaVuSans-30"/>
      </g>
     </g>
    </g>
    <g id="ytick_6">
     <g id="line2d_61">
      <g>
       <use style="stroke:#000000;stroke-width:0.8;" x="46.965625" xlink:href="#m7bd4490c5c" y="302.333375"/>
      </g>
     </g>
     <g id="text_62">
      <!-- 400 -->
      <g transform="translate(20.878125 306.132594)scale(0.1 -0.1)">
       <use xlink:href="#DejaVuSans-34"/>
       <use x="63.623047" xlink:href="#DejaVuSans-30"/>
       <use x="127.246094" xlink:href="#DejaVuSans-30"/>
      </g>
     </g>
    </g>
    <g id="ytick_7">
     <g id="line2d_62">
      <g>
       <use style="stroke:#000000;stroke-width:0.8;" x="46.965625" xlink:href="#m7bd4490c5c" y="205.813489"/>
      </g>
     </g>
     <g id="text_63">
      <!-- 450 -->
      <g transform="translate(20.878125 209.612707)scale(0.1 -0.1)">
       <use xlink:href="#DejaVuSans-34"/>
       <use x="63.623047" xlink:href="#DejaVuSans-35"/>
       <use x="127.246094" xlink:href="#DejaVuSans-30"/>
      </g>
     </g>
    </g>
    <g id="ytick_8">
     <g id="line2d_63">
      <g>
       <use style="stroke:#000000;stroke-width:0.8;" x="46.965625" xlink:href="#m7bd4490c5c" y="109.293602"/>
      </g>
     </g>
     <g id="text_64">
      <!-- 500 -->
      <g transform="translate(20.878125 113.092821)scale(0.1 -0.1)">
       <use xlink:href="#DejaVuSans-35"/>
       <use x="63.623047" xlink:href="#DejaVuSans-30"/>
       <use x="127.246094" xlink:href="#DejaVuSans-30"/>
      </g>
     </g>
    </g>
    <g id="text_65">
     <!-- Total Crimes per Month -->
     <g transform="translate(14.798438 508.882594)rotate(-90)scale(0.1 -0.1)">
      <defs>
       <path d="M 603 4863 
L 1178 4863 
L 1178 0 
L 603 0 
L 603 4863 
z
" id="DejaVuSans-6c" transform="scale(0.015625)"/>
       <path d="M 4122 4306 
L 4122 3641 
Q 3803 3938 3442 4084 
Q 3081 4231 2675 4231 
Q 1875 4231 1450 3742 
Q 1025 3253 1025 2328 
Q 1025 1406 1450 917 
Q 1875 428 2675 428 
Q 3081 428 3442 575 
Q 3803 722 4122 1019 
L 4122 359 
Q 3791 134 3420 21 
Q 3050 -91 2638 -91 
Q 1578 -91 968 557 
Q 359 1206 359 2328 
Q 359 3453 968 4101 
Q 1578 4750 2638 4750 
Q 3056 4750 3426 4639 
Q 3797 4528 4122 4306 
z
" id="DejaVuSans-43" transform="scale(0.015625)"/>
       <path d="M 2834 3397 
L 2834 2853 
Q 2591 2978 2328 3040 
Q 2066 3103 1784 3103 
Q 1356 3103 1142 2972 
Q 928 2841 928 2578 
Q 928 2378 1081 2264 
Q 1234 2150 1697 2047 
L 1894 2003 
Q 2506 1872 2764 1633 
Q 3022 1394 3022 966 
Q 3022 478 2636 193 
Q 2250 -91 1575 -91 
Q 1294 -91 989 -36 
Q 684 19 347 128 
L 347 722 
Q 666 556 975 473 
Q 1284 391 1588 391 
Q 1994 391 2212 530 
Q 2431 669 2431 922 
Q 2431 1156 2273 1281 
Q 2116 1406 1581 1522 
L 1381 1569 
Q 847 1681 609 1914 
Q 372 2147 372 2553 
Q 372 3047 722 3315 
Q 1072 3584 1716 3584 
Q 2034 3584 2315 3537 
Q 2597 3491 2834 3397 
z
" id="DejaVuSans-73" transform="scale(0.015625)"/>
       <path d="M 1159 525 
L 1159 -1331 
L 581 -1331 
L 581 3500 
L 1159 3500 
L 1159 2969 
Q 1341 3281 1617 3432 
Q 1894 3584 2278 3584 
Q 2916 3584 3314 3078 
Q 3713 2572 3713 1747 
Q 3713 922 3314 415 
Q 2916 -91 2278 -91 
Q 1894 -91 1617 61 
Q 1341 213 1159 525 
z
M 3116 1747 
Q 3116 2381 2855 2742 
Q 2594 3103 2138 3103 
Q 1681 3103 1420 2742 
Q 1159 2381 1159 1747 
Q 1159 1113 1420 752 
Q 1681 391 2138 391 
Q 2594 391 2855 752 
Q 3116 1113 3116 1747 
z
" id="DejaVuSans-70" transform="scale(0.015625)"/>
      </defs>
      <use xlink:href="#DejaVuSans-54"/>
      <use x="44.083984" xlink:href="#DejaVuSans-6f"/>
      <use x="105.265625" xlink:href="#DejaVuSans-74"/>
      <use x="144.474609" xlink:href="#DejaVuSans-61"/>
      <use x="205.753906" xlink:href="#DejaVuSans-6c"/>
      <use x="233.537109" xlink:href="#DejaVuSans-20"/>
      <use x="265.324219" xlink:href="#DejaVuSans-43"/>
      <use x="335.148438" xlink:href="#DejaVuSans-72"/>
      <use x="376.261719" xlink:href="#DejaVuSans-69"/>
      <use x="404.044922" xlink:href="#DejaVuSans-6d"/>
      <use x="501.457031" xlink:href="#DejaVuSans-65"/>
      <use x="562.980469" xlink:href="#DejaVuSans-73"/>
      <use x="615.080078" xlink:href="#DejaVuSans-20"/>
      <use x="646.867188" xlink:href="#DejaVuSans-70"/>
      <use x="710.34375" xlink:href="#DejaVuSans-65"/>
      <use x="771.867188" xlink:href="#DejaVuSans-72"/>
      <use x="812.980469" xlink:href="#DejaVuSans-20"/>
      <use x="844.767578" xlink:href="#DejaVuSans-4d"/>
      <use x="931.046875" xlink:href="#DejaVuSans-6f"/>
      <use x="992.228516" xlink:href="#DejaVuSans-6e"/>
      <use x="1055.607422" xlink:href="#DejaVuSans-74"/>
      <use x="1094.816406" xlink:href="#DejaVuSans-68"/>
     </g>
    </g>
   </g>
   <g id="line2d_64">
    <path clip-path="url(#p1195f8c6ee)" d="M 46.965625 323.56775 
L 53.812251 375.688489 
L 60.217159 261.795023 
L 67.063785 354.454114 
L 73.689551 246.351841 
L 80.536177 327.428545 
L 87.161944 398.853261 
L 94.00857 257.934227 
L 100.855196 335.150136 
L 107.480962 213.53508 
L 114.327588 288.820591 
L 120.953355 250.212636 
L 127.799981 367.966898 
L 134.646607 441.322011 
L 140.830656 256.00383 
L 147.677281 313.915761 
L 154.303048 337.080534 
L 161.149674 304.263773 
L 167.775441 358.314909 
L 174.622067 325.498148 
L 181.468692 325.498148 
L 188.094459 375.688489 
L 194.941085 308.124568 
L 201.566852 300.402977 
L 208.413478 358.314909 
L 215.260104 437.461216 
L 221.444153 259.864625 
L 228.290778 288.820591 
L 234.916545 298.47258 
L 241.763171 234.769455 
L 248.388938 267.586216 
L 255.235564 342.871727 
L 262.082189 149.831955 
L 268.707956 217.395875 
L 275.554582 304.263773 
L 282.180349 435.530818 
L 289.026975 476.06917 
L 295.8736 398.853261 
L 302.05765 279.168602 
L 308.904275 339.010932 
L 315.530042 350.593318 
L 322.376668 331.289341 
L 329.002435 298.47258 
L 335.849061 375.688489 
L 342.695686 381.479682 
L 349.321453 159.483943 
L 356.168079 257.934227 
L 362.793846 294.611784 
L 369.640472 296.542182 
L 376.487097 356.384511 
L 382.892005 169.135932 
L 389.738631 383.41008 
L 396.364398 396.922864 
L 403.211024 342.871727 
L 409.836791 394.992466 
L 416.683416 331.289341 
L 423.530042 406.574852 
L 430.155809 242.491045 
L 437.002435 385.340477 
L 443.628202 491.512352 
L 450.474827 333.219739 
L 457.321453 420.087636 
L 463.505502 402.714057 
L 470.352128 460.625989 
L 476.977895 445.182807 
L 483.824521 429.739625 
L 490.450288 379.549284 
L 497.296913 389.201273 
L 504.143539 394.992466 
L 510.769306 375.688489 
L 517.615932 354.454114 
L 524.241699 406.574852 
L 531.088324 476.06917 
L 537.93495 452.904398 
L 544.118999 394.992466 
L 550.965625 474.138773 
L 557.591392 456.765193 
L 564.438018 485.721159 
L 571.063785 474.138773 
L 577.91041 443.252409 
L 584.757036 427.809227 
L 591.382803 385.340477 
L 598.229429 358.314909 
L 604.855196 402.714057 
L 611.701821 545.563489 
L 618.548447 562.937068 
L 624.732496 495.373148 
L 631.579122 476.06917 
L 638.204889 503.094739 
L 645.051515 423.948432 
L 651.677281 466.417182 
L 658.523907 499.233943 
L 665.370533 566.797864 
L 671.9963 512.746727 
L 678.842926 466.417182 
L 685.468692 464.486784 
L 692.315318 468.34758 
L 699.161944 510.81633 
L 705.566852 458.695591 
L 712.413478 450.974 
L 719.039245 375.688489 
L 725.88587 505.025136 
L 732.511637 460.625989 
L 739.358263 524.329114 
L 746.204889 369.897295 
L 752.830656 423.948432 
L 759.677281 466.417182 
L 766.303048 466.417182 
L 773.149674 547.493886 
L 779.9963 458.695591 
L 786.180349 393.062068 
L 793.026975 445.182807 
L 799.652742 400.783659 
L 806.499367 462.556386 
L 813.125134 339.010932 
L 819.97176 315.846159 
L 826.818386 333.219739 
L 833.444153 389.201273 
L 840.290778 325.498148 
L 846.916545 441.322011 
L 853.763171 286.890193 
L 860.609797 366.0365 
L 866.793846 331.289341 
L 873.640472 321.637352 
L 880.266238 263.72542 
L 887.112864 366.0365 
L 893.738631 244.421443 
L 900.585257 192.300705 
L 907.431883 352.523716 
L 914.05765 230.908659 
L 920.904275 290.750989 
L 927.530042 375.688489 
L 934.376668 277.238205 
L 941.223294 286.890193 
L 947.407343 333.219739 
L 954.253969 242.491045 
L 960.879735 240.560648 
L 967.726361 190.370307 
L 974.352128 80.337636 
L 981.198754 342.871727 
L 988.04538 383.41008 
L 994.671146 342.871727 
L 1001.517772 248.282239 
L 1008.143539 308.124568 
L 1014.990165 381.479682 
L 1021.836791 456.765193 
L 1028.241699 479.929966 
L 1035.088324 755.976841 
L 1041.714091 684.552125 
L 1048.560717 559.076273 
L 1055.186484 429.739625 
L 1062.03311 423.948432 
L 1068.879735 416.226841 
L 1075.505502 452.904398 
L 1082.352128 506.955534 
L 1088.977895 607.336216 
L 1095.824521 667.178545 
L 1102.671146 674.900136 
L 1108.855196 721.229682 
L 1115.701821 564.867466 
L 1122.327588 559.076273 
L 1129.174214 385.340477 
L 1135.799981 346.732523 
L 1142.646607 356.384511 
L 1149.493232 279.168602 
L 1156.118999 367.966898 
L 1162.965625 327.428545 
L 1162.965625 327.428545 
" style="fill:none;stroke:#000000;stroke-linecap:square;stroke-width:1.5;"/>
   </g>
   <g id="line2d_65">
    <path clip-path="url(#p1195f8c6ee)" d="M 46.965625 705.7865 
L 53.812251 680.69133 
L 60.217159 636.292182 
L 67.063785 727.020875 
L 73.689551 630.500989 
L 80.536177 669.108943 
L 87.161944 671.039341 
L 94.00857 730.88167 
L 100.855196 723.16008 
L 107.480962 727.020875 
L 114.327588 736.672864 
L 120.953355 725.090477 
L 127.799981 811.958375 
L 134.646607 779.141614 
L 140.830656 732.812068 
L 147.677281 667.178545 
L 154.303048 672.969739 
L 161.149674 746.324852 
L 167.775441 699.995307 
L 174.622067 713.508091 
L 181.468692 721.229682 
L 188.094459 665.248148 
L 194.941085 721.229682 
L 201.566852 701.925705 
L 208.413478 707.716898 
L 215.260104 771.420023 
L 221.444153 738.603261 
L 228.290778 732.812068 
L 234.916545 655.596159 
L 241.763171 634.361784 
L 248.388938 713.508091 
L 255.235564 736.672864 
L 262.082189 738.603261 
L 268.707956 672.969739 
L 275.554582 759.837636 
L 282.180349 742.464057 
L 289.026975 769.489625 
L 295.8736 727.020875 
L 302.05765 705.7865 
L 308.904275 748.25525 
L 315.530042 767.559227 
L 322.376668 705.7865 
L 329.002435 707.716898 
L 335.849061 728.951273 
L 342.695686 711.577693 
L 349.321453 669.108943 
L 356.168079 686.482523 
L 362.793846 728.951273 
L 369.640472 699.995307 
L 376.487097 725.090477 
L 382.892005 744.394455 
L 389.738631 740.533659 
L 396.364398 653.665761 
L 403.211024 717.368886 
L 409.836791 696.134511 
L 416.683416 636.292182 
L 423.530042 682.621727 
L 430.155809 744.394455 
L 437.002435 692.273716 
L 443.628202 754.046443 
L 450.474827 800.375989 
L 457.321453 792.654398 
L 463.505502 711.577693 
L 470.352128 694.204114 
L 476.977895 744.394455 
L 483.824521 757.907239 
L 490.450288 721.229682 
L 497.296913 727.020875 
L 504.143539 750.185648 
L 510.769306 703.856102 
L 517.615932 748.25525 
L 524.241699 754.046443 
L 531.088324 821.610364 
L 537.93495 792.654398 
L 544.118999 715.438489 
L 550.965625 771.420023 
L 557.591392 696.134511 
L 564.438018 616.988205 
L 571.063785 684.552125 
L 577.91041 709.647295 
L 584.757036 566.797864 
L 591.382803 647.874568 
L 598.229429 589.962636 
L 604.855196 620.849 
L 611.701821 674.900136 
L 618.548447 622.779398 
L 624.732496 589.962636 
L 631.579122 597.684227 
L 638.204889 591.893034 
L 645.051515 576.449852 
L 651.677281 559.076273 
L 658.523907 564.867466 
L 665.370533 555.215477 
L 671.9963 549.424284 
L 678.842926 549.424284 
L 685.468692 568.728261 
L 692.315318 553.28508 
L 699.161944 588.032239 
L 705.566852 634.361784 
L 712.413478 537.841898 
L 719.039245 568.728261 
L 725.88587 557.145875 
L 732.511637 532.050705 
L 739.358263 537.841898 
L 746.204889 503.094739 
L 752.830656 574.519455 
L 759.677281 597.684227 
L 766.303048 503.094739 
L 773.149674 493.44275 
L 779.9963 613.127409 
L 786.180349 483.790761 
L 793.026975 528.189909 
L 799.652742 420.087636 
L 806.499367 491.512352 
L 813.125134 454.834795 
L 819.97176 503.094739 
L 826.818386 559.076273 
L 833.444153 435.530818 
L 840.290778 458.695591 
L 846.916545 481.860364 
L 853.763171 533.981102 
L 860.609797 520.468318 
L 866.793846 396.922864 
L 873.640472 516.607523 
L 880.266238 454.834795 
L 887.112864 450.974 
L 893.738631 373.758091 
L 900.585257 385.340477 
L 907.431883 410.435648 
L 914.05765 350.593318 
L 920.904275 346.732523 
L 927.530042 383.41008 
L 934.376668 398.853261 
L 941.223294 445.182807 
L 947.407343 288.820591 
L 954.253969 462.556386 
L 960.879735 389.201273 
L 967.726361 425.87883 
L 974.352128 422.018034 
L 981.198754 337.080534 
L 988.04538 310.054966 
L 994.671146 348.66292 
L 1001.517772 373.758091 
L 1008.143539 406.574852 
L 1014.990165 400.783659 
L 1021.836791 356.384511 
L 1028.241699 439.391614 
L 1035.088324 549.424284 
L 1041.714091 481.860364 
L 1048.560717 379.549284 
L 1055.186484 290.750989 
L 1062.03311 337.080534 
L 1068.879735 331.289341 
L 1075.505502 408.50525 
L 1082.352128 454.834795 
L 1088.977895 449.043602 
L 1095.824521 605.405818 
L 1102.671146 611.197011 
L 1108.855196 356.384511 
L 1115.701821 331.289341 
L 1122.327588 296.542182 
L 1129.174214 151.762352 
L 1135.799981 250.212636 
L 1142.646607 391.13167 
L 1149.493232 337.080534 
L 1156.118999 283.029398 
L 1162.965625 329.358943 
L 1162.965625 329.358943 
" style="fill:none;stroke:#ff8c00;stroke-linecap:square;stroke-width:1.5;"/>
   </g>
   <g id="patch_3">
    <path d="M 46.965625 858.674 
L 46.965625 43.274 
" style="fill:none;stroke:#000000;stroke-linecap:square;stroke-linejoin:miter;stroke-width:0.8;"/>
   </g>
   <g id="patch_4">
    <path d="M 1162.965625 858.674 
L 1162.965625 43.274 
" style="fill:none;stroke:#000000;stroke-linecap:square;stroke-linejoin:miter;stroke-width:0.8;"/>
   </g>
   <g id="patch_5">
    <path d="M 46.965625 858.674 
L 1162.965625 858.674 
" style="fill:none;stroke:#000000;stroke-linecap:square;stroke-linejoin:miter;stroke-width:0.8;"/>
   </g>
   <g id="patch_6">
    <path d="M 46.965625 43.274 
L 1162.965625 43.274 
" style="fill:none;stroke:#000000;stroke-linecap:square;stroke-linejoin:miter;stroke-width:0.8;"/>
   </g>
   <g id="text_66">
    <!-- Kingston upon Thames Monthly Crime Category Totals:  -->
    <g transform="translate(382.493125 19.3575)scale(0.16 -0.16)">
     <defs>
      <path d="M 628 4666 
L 1259 4666 
L 1259 2694 
L 3353 4666 
L 4166 4666 
L 1850 2491 
L 4331 0 
L 3500 0 
L 1259 2247 
L 1259 0 
L 628 0 
L 628 4666 
z
" id="DejaVuSans-4b" transform="scale(0.015625)"/>
      <path d="M 2906 1791 
Q 2906 2416 2648 2759 
Q 2391 3103 1925 3103 
Q 1463 3103 1205 2759 
Q 947 2416 947 1791 
Q 947 1169 1205 825 
Q 1463 481 1925 481 
Q 2391 481 2648 825 
Q 2906 1169 2906 1791 
z
M 3481 434 
Q 3481 -459 3084 -895 
Q 2688 -1331 1869 -1331 
Q 1566 -1331 1297 -1286 
Q 1028 -1241 775 -1147 
L 775 -588 
Q 1028 -725 1275 -790 
Q 1522 -856 1778 -856 
Q 2344 -856 2625 -561 
Q 2906 -266 2906 331 
L 2906 616 
Q 2728 306 2450 153 
Q 2172 0 1784 0 
Q 1141 0 747 490 
Q 353 981 353 1791 
Q 353 2603 747 3093 
Q 1141 3584 1784 3584 
Q 2172 3584 2450 3431 
Q 2728 3278 2906 2969 
L 2906 3500 
L 3481 3500 
L 3481 434 
z
" id="DejaVuSans-67" transform="scale(0.015625)"/>
      <path d="M 544 1381 
L 544 3500 
L 1119 3500 
L 1119 1403 
Q 1119 906 1312 657 
Q 1506 409 1894 409 
Q 2359 409 2629 706 
Q 2900 1003 2900 1516 
L 2900 3500 
L 3475 3500 
L 3475 0 
L 2900 0 
L 2900 538 
Q 2691 219 2414 64 
Q 2138 -91 1772 -91 
Q 1169 -91 856 284 
Q 544 659 544 1381 
z
M 1991 3584 
L 1991 3584 
z
" id="DejaVuSans-75" transform="scale(0.015625)"/>
      <path d="M 2059 -325 
Q 1816 -950 1584 -1140 
Q 1353 -1331 966 -1331 
L 506 -1331 
L 506 -850 
L 844 -850 
Q 1081 -850 1212 -737 
Q 1344 -625 1503 -206 
L 1606 56 
L 191 3500 
L 800 3500 
L 1894 763 
L 2988 3500 
L 3597 3500 
L 2059 -325 
z
" id="DejaVuSans-79" transform="scale(0.015625)"/>
      <path d="M 750 794 
L 1409 794 
L 1409 0 
L 750 0 
L 750 794 
z
M 750 3309 
L 1409 3309 
L 1409 2516 
L 750 2516 
L 750 3309 
z
" id="DejaVuSans-3a" transform="scale(0.015625)"/>
     </defs>
     <use xlink:href="#DejaVuSans-4b"/>
     <use x="65.576172" xlink:href="#DejaVuSans-69"/>
     <use x="93.359375" xlink:href="#DejaVuSans-6e"/>
     <use x="156.738281" xlink:href="#DejaVuSans-67"/>
     <use x="220.214844" xlink:href="#DejaVuSans-73"/>
     <use x="272.314453" xlink:href="#DejaVuSans-74"/>
     <use x="311.523438" xlink:href="#DejaVuSans-6f"/>
     <use x="372.705078" xlink:href="#DejaVuSans-6e"/>
     <use x="436.083984" xlink:href="#DejaVuSans-20"/>
     <use x="467.871094" xlink:href="#DejaVuSans-75"/>
     <use x="531.25" xlink:href="#DejaVuSans-70"/>
     <use x="594.726562" xlink:href="#DejaVuSans-6f"/>
     <use x="655.908203" xlink:href="#DejaVuSans-6e"/>
     <use x="719.287109" xlink:href="#DejaVuSans-20"/>
     <use x="751.074219" xlink:href="#DejaVuSans-54"/>
     <use x="812.158203" xlink:href="#DejaVuSans-68"/>
     <use x="875.537109" xlink:href="#DejaVuSans-61"/>
     <use x="936.816406" xlink:href="#DejaVuSans-6d"/>
     <use x="1034.228516" xlink:href="#DejaVuSans-65"/>
     <use x="1095.751953" xlink:href="#DejaVuSans-73"/>
     <use x="1147.851562" xlink:href="#DejaVuSans-20"/>
     <use x="1179.638672" xlink:href="#DejaVuSans-4d"/>
     <use x="1265.917969" xlink:href="#DejaVuSans-6f"/>
     <use x="1327.099609" xlink:href="#DejaVuSans-6e"/>
     <use x="1390.478516" xlink:href="#DejaVuSans-74"/>
     <use x="1429.6875" xlink:href="#DejaVuSans-68"/>
     <use x="1493.066406" xlink:href="#DejaVuSans-6c"/>
     <use x="1520.849609" xlink:href="#DejaVuSans-79"/>
     <use x="1580.029297" xlink:href="#DejaVuSans-20"/>
     <use x="1611.816406" xlink:href="#DejaVuSans-43"/>
     <use x="1681.640625" xlink:href="#DejaVuSans-72"/>
     <use x="1722.753906" xlink:href="#DejaVuSans-69"/>
     <use x="1750.537109" xlink:href="#DejaVuSans-6d"/>
     <use x="1847.949219" xlink:href="#DejaVuSans-65"/>
     <use x="1909.472656" xlink:href="#DejaVuSans-20"/>
     <use x="1941.259766" xlink:href="#DejaVuSans-43"/>
     <use x="2011.083984" xlink:href="#DejaVuSans-61"/>
     <use x="2072.363281" xlink:href="#DejaVuSans-74"/>
     <use x="2111.572266" xlink:href="#DejaVuSans-65"/>
     <use x="2173.095703" xlink:href="#DejaVuSans-67"/>
     <use x="2236.572266" xlink:href="#DejaVuSans-6f"/>
     <use x="2297.753906" xlink:href="#DejaVuSans-72"/>
     <use x="2338.867188" xlink:href="#DejaVuSans-79"/>
     <use x="2398.046875" xlink:href="#DejaVuSans-20"/>
     <use x="2429.833984" xlink:href="#DejaVuSans-54"/>
     <use x="2473.917969" xlink:href="#DejaVuSans-6f"/>
     <use x="2535.099609" xlink:href="#DejaVuSans-74"/>
     <use x="2574.308594" xlink:href="#DejaVuSans-61"/>
     <use x="2635.587891" xlink:href="#DejaVuSans-6c"/>
     <use x="2663.371094" xlink:href="#DejaVuSans-73"/>
     <use x="2715.470703" xlink:href="#DejaVuSans-3a"/>
     <use x="2749.162109" xlink:href="#DejaVuSans-20"/>
    </g>
    <!-- Theft and Handling, Violence Against the Person (01/2008-11/2021) -->
    <g transform="translate(333.620625 37.274)scale(0.16 -0.16)">
     <defs>
      <path d="M 2375 4863 
L 2375 4384 
L 1825 4384 
Q 1516 4384 1395 4259 
Q 1275 4134 1275 3809 
L 1275 3500 
L 2222 3500 
L 2222 3053 
L 1275 3053 
L 1275 0 
L 697 0 
L 697 3053 
L 147 3053 
L 147 3500 
L 697 3500 
L 697 3744 
Q 697 4328 969 4595 
Q 1241 4863 1831 4863 
L 2375 4863 
z
" id="DejaVuSans-66" transform="scale(0.015625)"/>
      <path d="M 2906 2969 
L 2906 4863 
L 3481 4863 
L 3481 0 
L 2906 0 
L 2906 525 
Q 2725 213 2448 61 
Q 2172 -91 1784 -91 
Q 1150 -91 751 415 
Q 353 922 353 1747 
Q 353 2572 751 3078 
Q 1150 3584 1784 3584 
Q 2172 3584 2448 3432 
Q 2725 3281 2906 2969 
z
M 947 1747 
Q 947 1113 1208 752 
Q 1469 391 1925 391 
Q 2381 391 2643 752 
Q 2906 1113 2906 1747 
Q 2906 2381 2643 2742 
Q 2381 3103 1925 3103 
Q 1469 3103 1208 2742 
Q 947 2381 947 1747 
z
" id="DejaVuSans-64" transform="scale(0.015625)"/>
      <path d="M 628 4666 
L 1259 4666 
L 1259 2753 
L 3553 2753 
L 3553 4666 
L 4184 4666 
L 4184 0 
L 3553 0 
L 3553 2222 
L 1259 2222 
L 1259 0 
L 628 0 
L 628 4666 
z
" id="DejaVuSans-48" transform="scale(0.015625)"/>
      <path d="M 750 794 
L 1409 794 
L 1409 256 
L 897 -744 
L 494 -744 
L 750 256 
L 750 794 
z
" id="DejaVuSans-2c" transform="scale(0.015625)"/>
      <path d="M 1831 0 
L 50 4666 
L 709 4666 
L 2188 738 
L 3669 4666 
L 4325 4666 
L 2547 0 
L 1831 0 
z
" id="DejaVuSans-56" transform="scale(0.015625)"/>
      <path d="M 3122 3366 
L 3122 2828 
Q 2878 2963 2633 3030 
Q 2388 3097 2138 3097 
Q 1578 3097 1268 2742 
Q 959 2388 959 1747 
Q 959 1106 1268 751 
Q 1578 397 2138 397 
Q 2388 397 2633 464 
Q 2878 531 3122 666 
L 3122 134 
Q 2881 22 2623 -34 
Q 2366 -91 2075 -91 
Q 1284 -91 818 406 
Q 353 903 353 1747 
Q 353 2603 823 3093 
Q 1294 3584 2113 3584 
Q 2378 3584 2631 3529 
Q 2884 3475 3122 3366 
z
" id="DejaVuSans-63" transform="scale(0.015625)"/>
      <path d="M 2188 4044 
L 1331 1722 
L 3047 1722 
L 2188 4044 
z
M 1831 4666 
L 2547 4666 
L 4325 0 
L 3669 0 
L 3244 1197 
L 1141 1197 
L 716 0 
L 50 0 
L 1831 4666 
z
" id="DejaVuSans-41" transform="scale(0.015625)"/>
      <path d="M 1259 4147 
L 1259 2394 
L 2053 2394 
Q 2494 2394 2734 2622 
Q 2975 2850 2975 3272 
Q 2975 3691 2734 3919 
Q 2494 4147 2053 4147 
L 1259 4147 
z
M 628 4666 
L 2053 4666 
Q 2838 4666 3239 4311 
Q 3641 3956 3641 3272 
Q 3641 2581 3239 2228 
Q 2838 1875 2053 1875 
L 1259 1875 
L 1259 0 
L 628 0 
L 628 4666 
z
" id="DejaVuSans-50" transform="scale(0.015625)"/>
      <path d="M 1625 4666 
L 2156 4666 
L 531 -594 
L 0 -594 
L 1625 4666 
z
" id="DejaVuSans-2f" transform="scale(0.015625)"/>
     </defs>
     <use xlink:href="#DejaVuSans-54"/>
     <use x="61.083984" xlink:href="#DejaVuSans-68"/>
     <use x="124.462891" xlink:href="#DejaVuSans-65"/>
     <use x="185.986328" xlink:href="#DejaVuSans-66"/>
     <use x="219.441406" xlink:href="#DejaVuSans-74"/>
     <use x="258.650391" xlink:href="#DejaVuSans-20"/>
     <use x="290.4375" xlink:href="#DejaVuSans-61"/>
     <use x="351.716797" xlink:href="#DejaVuSans-6e"/>
     <use x="415.095703" xlink:href="#DejaVuSans-64"/>
     <use x="478.572266" xlink:href="#DejaVuSans-20"/>
     <use x="510.359375" xlink:href="#DejaVuSans-48"/>
     <use x="585.554688" xlink:href="#DejaVuSans-61"/>
     <use x="646.833984" xlink:href="#DejaVuSans-6e"/>
     <use x="710.212891" xlink:href="#DejaVuSans-64"/>
     <use x="773.689453" xlink:href="#DejaVuSans-6c"/>
     <use x="801.472656" xlink:href="#DejaVuSans-69"/>
     <use x="829.255859" xlink:href="#DejaVuSans-6e"/>
     <use x="892.634766" xlink:href="#DejaVuSans-67"/>
     <use x="956.111328" xlink:href="#DejaVuSans-2c"/>
     <use x="987.898438" xlink:href="#DejaVuSans-20"/>
     <use x="1019.685547" xlink:href="#DejaVuSans-56"/>
     <use x="1085.84375" xlink:href="#DejaVuSans-69"/>
     <use x="1113.626953" xlink:href="#DejaVuSans-6f"/>
     <use x="1174.808594" xlink:href="#DejaVuSans-6c"/>
     <use x="1202.591797" xlink:href="#DejaVuSans-65"/>
     <use x="1264.115234" xlink:href="#DejaVuSans-6e"/>
     <use x="1327.494141" xlink:href="#DejaVuSans-63"/>
     <use x="1382.474609" xlink:href="#DejaVuSans-65"/>
     <use x="1443.998047" xlink:href="#DejaVuSans-20"/>
     <use x="1475.785156" xlink:href="#DejaVuSans-41"/>
     <use x="1544.193359" xlink:href="#DejaVuSans-67"/>
     <use x="1607.669922" xlink:href="#DejaVuSans-61"/>
     <use x="1668.949219" xlink:href="#DejaVuSans-69"/>
     <use x="1696.732422" xlink:href="#DejaVuSans-6e"/>
     <use x="1760.111328" xlink:href="#DejaVuSans-73"/>
     <use x="1812.210938" xlink:href="#DejaVuSans-74"/>
     <use x="1851.419922" xlink:href="#DejaVuSans-20"/>
     <use x="1883.207031" xlink:href="#DejaVuSans-74"/>
     <use x="1922.416016" xlink:href="#DejaVuSans-68"/>
     <use x="1985.794922" xlink:href="#DejaVuSans-65"/>
     <use x="2047.318359" xlink:href="#DejaVuSans-20"/>
     <use x="2079.105469" xlink:href="#DejaVuSans-50"/>
     <use x="2135.783203" xlink:href="#DejaVuSans-65"/>
     <use x="2197.306641" xlink:href="#DejaVuSans-72"/>
     <use x="2238.419922" xlink:href="#DejaVuSans-73"/>
     <use x="2290.519531" xlink:href="#DejaVuSans-6f"/>
     <use x="2351.701172" xlink:href="#DejaVuSans-6e"/>
     <use x="2415.080078" xlink:href="#DejaVuSans-20"/>
     <use x="2446.867188" xlink:href="#DejaVuSans-28"/>
     <use x="2485.880859" xlink:href="#DejaVuSans-30"/>
     <use x="2549.503906" xlink:href="#DejaVuSans-31"/>
     <use x="2613.126953" xlink:href="#DejaVuSans-2f"/>
     <use x="2646.818359" xlink:href="#DejaVuSans-32"/>
     <use x="2710.441406" xlink:href="#DejaVuSans-30"/>
     <use x="2774.064453" xlink:href="#DejaVuSans-30"/>
     <use x="2837.6875" xlink:href="#DejaVuSans-38"/>
     <use x="2901.310547" xlink:href="#DejaVuSans-2d"/>
     <use x="2937.394531" xlink:href="#DejaVuSans-31"/>
     <use x="3001.017578" xlink:href="#DejaVuSans-31"/>
     <use x="3064.640625" xlink:href="#DejaVuSans-2f"/>
     <use x="3098.332031" xlink:href="#DejaVuSans-32"/>
     <use x="3161.955078" xlink:href="#DejaVuSans-30"/>
     <use x="3225.578125" xlink:href="#DejaVuSans-32"/>
     <use x="3289.201172" xlink:href="#DejaVuSans-31"/>
     <use x="3352.824219" xlink:href="#DejaVuSans-29"/>
    </g>
   </g>
   <g id="legend_1">
    <g id="patch_7">
     <path d="M 984.428125 80.63025 
L 1155.965625 80.63025 
Q 1157.965625 80.63025 1157.965625 78.63025 
L 1157.965625 50.274 
Q 1157.965625 48.274 1155.965625 48.274 
L 984.428125 48.274 
Q 982.428125 48.274 982.428125 50.274 
L 982.428125 78.63025 
Q 982.428125 80.63025 984.428125 80.63025 
z
" style="fill:#ffffff;opacity:0.8;stroke:#cccccc;stroke-linejoin:miter;"/>
    </g>
    <g id="line2d_66">
     <path d="M 986.428125 56.372437 
L 1006.428125 56.372437 
" style="fill:none;stroke:#000000;stroke-linecap:square;stroke-width:1.5;"/>
    </g>
    <g id="line2d_67"/>
    <g id="text_67">
     <!-- Theft and Handling -->
     <g transform="translate(1014.428125 59.872437)scale(0.1 -0.1)">
      <use xlink:href="#DejaVuSans-54"/>
      <use x="61.083984" xlink:href="#DejaVuSans-68"/>
      <use x="124.462891" xlink:href="#DejaVuSans-65"/>
      <use x="185.986328" xlink:href="#DejaVuSans-66"/>
      <use x="219.441406" xlink:href="#DejaVuSans-74"/>
      <use x="258.650391" xlink:href="#DejaVuSans-20"/>
      <use x="290.4375" xlink:href="#DejaVuSans-61"/>
      <use x="351.716797" xlink:href="#DejaVuSans-6e"/>
      <use x="415.095703" xlink:href="#DejaVuSans-64"/>
      <use x="478.572266" xlink:href="#DejaVuSans-20"/>
      <use x="510.359375" xlink:href="#DejaVuSans-48"/>
      <use x="585.554688" xlink:href="#DejaVuSans-61"/>
      <use x="646.833984" xlink:href="#DejaVuSans-6e"/>
      <use x="710.212891" xlink:href="#DejaVuSans-64"/>
      <use x="773.689453" xlink:href="#DejaVuSans-6c"/>
      <use x="801.472656" xlink:href="#DejaVuSans-69"/>
      <use x="829.255859" xlink:href="#DejaVuSans-6e"/>
      <use x="892.634766" xlink:href="#DejaVuSans-67"/>
     </g>
    </g>
    <g id="line2d_68">
     <path d="M 986.428125 71.050562 
L 1006.428125 71.050562 
" style="fill:none;stroke:#ff8c00;stroke-linecap:square;stroke-width:1.5;"/>
    </g>
    <g id="line2d_69"/>
    <g id="text_68">
     <!-- Violence Against the Person -->
     <g transform="translate(1014.428125 74.550562)scale(0.1 -0.1)">
      <use xlink:href="#DejaVuSans-56"/>
      <use x="66.158203" xlink:href="#DejaVuSans-69"/>
      <use x="93.941406" xlink:href="#DejaVuSans-6f"/>
      <use x="155.123047" xlink:href="#DejaVuSans-6c"/>
      <use x="182.90625" xlink:href="#DejaVuSans-65"/>
      <use x="244.429688" xlink:href="#DejaVuSans-6e"/>
      <use x="307.808594" xlink:href="#DejaVuSans-63"/>
      <use x="362.789062" xlink:href="#DejaVuSans-65"/>
      <use x="424.3125" xlink:href="#DejaVuSans-20"/>
      <use x="456.099609" xlink:href="#DejaVuSans-41"/>
      <use x="524.507812" xlink:href="#DejaVuSans-67"/>
      <use x="587.984375" xlink:href="#DejaVuSans-61"/>
      <use x="649.263672" xlink:href="#DejaVuSans-69"/>
      <use x="677.046875" xlink:href="#DejaVuSans-6e"/>
      <use x="740.425781" xlink:href="#DejaVuSans-73"/>
      <use x="792.525391" xlink:href="#DejaVuSans-74"/>
      <use x="831.734375" xlink:href="#DejaVuSans-20"/>
      <use x="863.521484" xlink:href="#DejaVuSans-74"/>
      <use x="902.730469" xlink:href="#DejaVuSans-68"/>
      <use x="966.109375" xlink:href="#DejaVuSans-65"/>
      <use x="1027.632812" xlink:href="#DejaVuSans-20"/>
      <use x="1059.419922" xlink:href="#DejaVuSans-50"/>
      <use x="1116.097656" xlink:href="#DejaVuSans-65"/>
      <use x="1177.621094" xlink:href="#DejaVuSans-72"/>
      <use x="1218.734375" xlink:href="#DejaVuSans-73"/>
      <use x="1270.833984" xlink:href="#DejaVuSans-6f"/>
      <use x="1332.015625" xlink:href="#DejaVuSans-6e"/>
     </g>
    </g>
   </g>
  </g>
 </g>
 <defs>
  <clipPath id="p1195f8c6ee">
   <rect height="815.4" width="1116" x="46.965625" y="43.274"/>
  </clipPath>
 </defs>
</svg>
