<?xml version="1.0" encoding="utf-8" standalone="no"?>
<!DOCTYPE svg PUBLIC "-//W3C//DTD SVG 1.1//EN"
  "http://www.w3.org/Graphics/SVG/1.1/DTD/svg11.dtd">
<svg height="928.334937pt" version="1.1" viewBox="0 0 1176.528125 928.334937" width="1176.528125pt" xmlns="http://www.w3.org/2000/svg" xmlns:xlink="http://www.w3.org/1999/xlink">
 <metadata>
  <rdf:RDF xmlns:cc="http://creativecommons.org/ns#" xmlns:dc="http://purl.org/dc/elements/1.1/" xmlns:rdf="http://www.w3.org/1999/02/22-rdf-syntax-ns#">
   <cc:Work>
    <dc:type rdf:resource="http://purl.org/dc/dcmitype/StillImage"/>
    <dc:date>2021-12-23T15:07:16.770161</dc:date>
    <dc:format>image/svg+xml</dc:format>
    <dc:creator>
     <cc:Agent>
      <dc:title>Matplotlib v3.4.2, https://matplotlib.org/</dc:title>
     </cc:Agent>
    </dc:creator>
   </cc:Work>
  </rdf:RDF>
 </metadata>
 <defs>
  <style type="text/css">*{stroke-linecap:butt;stroke-linejoin:round;}</style>
 </defs>
 <g id="figure_1">
  <g id="patch_1">
   <path d="M 0 928.334937 
L 1176.528125 928.334937 
L 1176.528125 0 
L 0 0 
z
" style="fill:none;"/>
  </g>
  <g id="axes_1">
   <g id="patch_2">
    <path d="M 53.328125 858.674 
L 1169.328125 858.674 
L 1169.328125 43.274 
L 53.328125 43.274 
z
" style="fill:#ffffff;"/>
   </g>
   <g id="matplotlib.axis_1">
    <g id="xtick_1">
     <g id="line2d_1">
      <defs>
       <path d="M 0 0 
L 0 3.5 
" id="m95a5542f75" style="stroke:#000000;stroke-width:0.8;"/>
      </defs>
      <g>
       <use style="stroke:#000000;stroke-width:0.8;" x="66.579659" xlink:href="#m95a5542f75" y="858.674"/>
      </g>
     </g>
     <g id="text_1">
      <!-- 2008-03 -->
      <g transform="translate(69.339034 907.456812)rotate(-90)scale(0.1 -0.1)">
       <defs>
        <path d="M 1228 531 
L 3431 531 
L 3431 0 
L 469 0 
L 469 531 
Q 828 903 1448 1529 
Q 2069 2156 2228 2338 
Q 2531 2678 2651 2914 
Q 2772 3150 2772 3378 
Q 2772 3750 2511 3984 
Q 2250 4219 1831 4219 
Q 1534 4219 1204 4116 
Q 875 4013 500 3803 
L 500 4441 
Q 881 4594 1212 4672 
Q 1544 4750 1819 4750 
Q 2544 4750 2975 4387 
Q 3406 4025 3406 3419 
Q 3406 3131 3298 2873 
Q 3191 2616 2906 2266 
Q 2828 2175 2409 1742 
Q 1991 1309 1228 531 
z
" id="DejaVuSans-32" transform="scale(0.015625)"/>
        <path d="M 2034 4250 
Q 1547 4250 1301 3770 
Q 1056 3291 1056 2328 
Q 1056 1369 1301 889 
Q 1547 409 2034 409 
Q 2525 409 2770 889 
Q 3016 1369 3016 2328 
Q 3016 3291 2770 3770 
Q 2525 4250 2034 4250 
z
M 2034 4750 
Q 2819 4750 3233 4129 
Q 3647 3509 3647 2328 
Q 3647 1150 3233 529 
Q 2819 -91 2034 -91 
Q 1250 -91 836 529 
Q 422 1150 422 2328 
Q 422 3509 836 4129 
Q 1250 4750 2034 4750 
z
" id="DejaVuSans-30" transform="scale(0.015625)"/>
        <path d="M 2034 2216 
Q 1584 2216 1326 1975 
Q 1069 1734 1069 1313 
Q 1069 891 1326 650 
Q 1584 409 2034 409 
Q 2484 409 2743 651 
Q 3003 894 3003 1313 
Q 3003 1734 2745 1975 
Q 2488 2216 2034 2216 
z
M 1403 2484 
Q 997 2584 770 2862 
Q 544 3141 544 3541 
Q 544 4100 942 4425 
Q 1341 4750 2034 4750 
Q 2731 4750 3128 4425 
Q 3525 4100 3525 3541 
Q 3525 3141 3298 2862 
Q 3072 2584 2669 2484 
Q 3125 2378 3379 2068 
Q 3634 1759 3634 1313 
Q 3634 634 3220 271 
Q 2806 -91 2034 -91 
Q 1263 -91 848 271 
Q 434 634 434 1313 
Q 434 1759 690 2068 
Q 947 2378 1403 2484 
z
M 1172 3481 
Q 1172 3119 1398 2916 
Q 1625 2713 2034 2713 
Q 2441 2713 2670 2916 
Q 2900 3119 2900 3481 
Q 2900 3844 2670 4047 
Q 2441 4250 2034 4250 
Q 1625 4250 1398 4047 
Q 1172 3844 1172 3481 
z
" id="DejaVuSans-38" transform="scale(0.015625)"/>
        <path d="M 313 2009 
L 1997 2009 
L 1997 1497 
L 313 1497 
L 313 2009 
z
" id="DejaVuSans-2d" transform="scale(0.015625)"/>
        <path d="M 2597 2516 
Q 3050 2419 3304 2112 
Q 3559 1806 3559 1356 
Q 3559 666 3084 287 
Q 2609 -91 1734 -91 
Q 1441 -91 1130 -33 
Q 819 25 488 141 
L 488 750 
Q 750 597 1062 519 
Q 1375 441 1716 441 
Q 2309 441 2620 675 
Q 2931 909 2931 1356 
Q 2931 1769 2642 2001 
Q 2353 2234 1838 2234 
L 1294 2234 
L 1294 2753 
L 1863 2753 
Q 2328 2753 2575 2939 
Q 2822 3125 2822 3475 
Q 2822 3834 2567 4026 
Q 2313 4219 1838 4219 
Q 1578 4219 1281 4162 
Q 984 4106 628 3988 
L 628 4550 
Q 988 4650 1302 4700 
Q 1616 4750 1894 4750 
Q 2613 4750 3031 4423 
Q 3450 4097 3450 3541 
Q 3450 3153 3228 2886 
Q 3006 2619 2597 2516 
z
" id="DejaVuSans-33" transform="scale(0.015625)"/>
       </defs>
       <use xlink:href="#DejaVuSans-32"/>
       <use x="63.623047" xlink:href="#DejaVuSans-30"/>
       <use x="127.246094" xlink:href="#DejaVuSans-30"/>
       <use x="190.869141" xlink:href="#DejaVuSans-38"/>
       <use x="254.492188" xlink:href="#DejaVuSans-2d"/>
       <use x="290.576172" xlink:href="#DejaVuSans-30"/>
       <use x="354.199219" xlink:href="#DejaVuSans-33"/>
      </g>
     </g>
    </g>
    <g id="xtick_2">
     <g id="line2d_2">
      <g>
       <use style="stroke:#000000;stroke-width:0.8;" x="86.898677" xlink:href="#m95a5542f75" y="858.674"/>
      </g>
     </g>
     <g id="text_2">
      <!-- 2008-06 -->
      <g transform="translate(89.658052 907.456812)rotate(-90)scale(0.1 -0.1)">
       <defs>
        <path d="M 2113 2584 
Q 1688 2584 1439 2293 
Q 1191 2003 1191 1497 
Q 1191 994 1439 701 
Q 1688 409 2113 409 
Q 2538 409 2786 701 
Q 3034 994 3034 1497 
Q 3034 2003 2786 2293 
Q 2538 2584 2113 2584 
z
M 3366 4563 
L 3366 3988 
Q 3128 4100 2886 4159 
Q 2644 4219 2406 4219 
Q 1781 4219 1451 3797 
Q 1122 3375 1075 2522 
Q 1259 2794 1537 2939 
Q 1816 3084 2150 3084 
Q 2853 3084 3261 2657 
Q 3669 2231 3669 1497 
Q 3669 778 3244 343 
Q 2819 -91 2113 -91 
Q 1303 -91 875 529 
Q 447 1150 447 2328 
Q 447 3434 972 4092 
Q 1497 4750 2381 4750 
Q 2619 4750 2861 4703 
Q 3103 4656 3366 4563 
z
" id="DejaVuSans-36" transform="scale(0.015625)"/>
       </defs>
       <use xlink:href="#DejaVuSans-32"/>
       <use x="63.623047" xlink:href="#DejaVuSans-30"/>
       <use x="127.246094" xlink:href="#DejaVuSans-30"/>
       <use x="190.869141" xlink:href="#DejaVuSans-38"/>
       <use x="254.492188" xlink:href="#DejaVuSans-2d"/>
       <use x="290.576172" xlink:href="#DejaVuSans-30"/>
       <use x="354.199219" xlink:href="#DejaVuSans-36"/>
      </g>
     </g>
    </g>
    <g id="xtick_3">
     <g id="line2d_3">
      <g>
       <use style="stroke:#000000;stroke-width:0.8;" x="107.217696" xlink:href="#m95a5542f75" y="858.674"/>
      </g>
     </g>
     <g id="text_3">
      <!-- 2008-09 -->
      <g transform="translate(109.977071 907.456812)rotate(-90)scale(0.1 -0.1)">
       <defs>
        <path d="M 703 97 
L 703 672 
Q 941 559 1184 500 
Q 1428 441 1663 441 
Q 2288 441 2617 861 
Q 2947 1281 2994 2138 
Q 2813 1869 2534 1725 
Q 2256 1581 1919 1581 
Q 1219 1581 811 2004 
Q 403 2428 403 3163 
Q 403 3881 828 4315 
Q 1253 4750 1959 4750 
Q 2769 4750 3195 4129 
Q 3622 3509 3622 2328 
Q 3622 1225 3098 567 
Q 2575 -91 1691 -91 
Q 1453 -91 1209 -44 
Q 966 3 703 97 
z
M 1959 2075 
Q 2384 2075 2632 2365 
Q 2881 2656 2881 3163 
Q 2881 3666 2632 3958 
Q 2384 4250 1959 4250 
Q 1534 4250 1286 3958 
Q 1038 3666 1038 3163 
Q 1038 2656 1286 2365 
Q 1534 2075 1959 2075 
z
" id="DejaVuSans-39" transform="scale(0.015625)"/>
       </defs>
       <use xlink:href="#DejaVuSans-32"/>
       <use x="63.623047" xlink:href="#DejaVuSans-30"/>
       <use x="127.246094" xlink:href="#DejaVuSans-30"/>
       <use x="190.869141" xlink:href="#DejaVuSans-38"/>
       <use x="254.492188" xlink:href="#DejaVuSans-2d"/>
       <use x="290.576172" xlink:href="#DejaVuSans-30"/>
       <use x="354.199219" xlink:href="#DejaVuSans-39"/>
      </g>
     </g>
    </g>
    <g id="xtick_4">
     <g id="line2d_4">
      <g>
       <use style="stroke:#000000;stroke-width:0.8;" x="127.315855" xlink:href="#m95a5542f75" y="858.674"/>
      </g>
     </g>
     <g id="text_4">
      <!-- 2008-12 -->
      <g transform="translate(130.07523 907.456812)rotate(-90)scale(0.1 -0.1)">
       <defs>
        <path d="M 794 531 
L 1825 531 
L 1825 4091 
L 703 3866 
L 703 4441 
L 1819 4666 
L 2450 4666 
L 2450 531 
L 3481 531 
L 3481 0 
L 794 0 
L 794 531 
z
" id="DejaVuSans-31" transform="scale(0.015625)"/>
       </defs>
       <use xlink:href="#DejaVuSans-32"/>
       <use x="63.623047" xlink:href="#DejaVuSans-30"/>
       <use x="127.246094" xlink:href="#DejaVuSans-30"/>
       <use x="190.869141" xlink:href="#DejaVuSans-38"/>
       <use x="254.492188" xlink:href="#DejaVuSans-2d"/>
       <use x="290.576172" xlink:href="#DejaVuSans-31"/>
       <use x="354.199219" xlink:href="#DejaVuSans-32"/>
      </g>
     </g>
    </g>
    <g id="xtick_5">
     <g id="line2d_5">
      <g>
       <use style="stroke:#000000;stroke-width:0.8;" x="147.193156" xlink:href="#m95a5542f75" y="858.674"/>
      </g>
     </g>
     <g id="text_5">
      <!-- 2009-03 -->
      <g transform="translate(149.952531 907.456812)rotate(-90)scale(0.1 -0.1)">
       <use xlink:href="#DejaVuSans-32"/>
       <use x="63.623047" xlink:href="#DejaVuSans-30"/>
       <use x="127.246094" xlink:href="#DejaVuSans-30"/>
       <use x="190.869141" xlink:href="#DejaVuSans-39"/>
       <use x="254.492188" xlink:href="#DejaVuSans-2d"/>
       <use x="290.576172" xlink:href="#DejaVuSans-30"/>
       <use x="354.199219" xlink:href="#DejaVuSans-33"/>
      </g>
     </g>
    </g>
    <g id="xtick_6">
     <g id="line2d_6">
      <g>
       <use style="stroke:#000000;stroke-width:0.8;" x="167.512174" xlink:href="#m95a5542f75" y="858.674"/>
      </g>
     </g>
     <g id="text_6">
      <!-- 2009-06 -->
      <g transform="translate(170.271549 907.456812)rotate(-90)scale(0.1 -0.1)">
       <use xlink:href="#DejaVuSans-32"/>
       <use x="63.623047" xlink:href="#DejaVuSans-30"/>
       <use x="127.246094" xlink:href="#DejaVuSans-30"/>
       <use x="190.869141" xlink:href="#DejaVuSans-39"/>
       <use x="254.492188" xlink:href="#DejaVuSans-2d"/>
       <use x="290.576172" xlink:href="#DejaVuSans-30"/>
       <use x="354.199219" xlink:href="#DejaVuSans-36"/>
      </g>
     </g>
    </g>
    <g id="xtick_7">
     <g id="line2d_7">
      <g>
       <use style="stroke:#000000;stroke-width:0.8;" x="187.831192" xlink:href="#m95a5542f75" y="858.674"/>
      </g>
     </g>
     <g id="text_7">
      <!-- 2009-09 -->
      <g transform="translate(190.590567 907.456812)rotate(-90)scale(0.1 -0.1)">
       <use xlink:href="#DejaVuSans-32"/>
       <use x="63.623047" xlink:href="#DejaVuSans-30"/>
       <use x="127.246094" xlink:href="#DejaVuSans-30"/>
       <use x="190.869141" xlink:href="#DejaVuSans-39"/>
       <use x="254.492188" xlink:href="#DejaVuSans-2d"/>
       <use x="290.576172" xlink:href="#DejaVuSans-30"/>
       <use x="354.199219" xlink:href="#DejaVuSans-39"/>
      </g>
     </g>
    </g>
    <g id="xtick_8">
     <g id="line2d_8">
      <g>
       <use style="stroke:#000000;stroke-width:0.8;" x="207.929352" xlink:href="#m95a5542f75" y="858.674"/>
      </g>
     </g>
     <g id="text_8">
      <!-- 2009-12 -->
      <g transform="translate(210.688727 907.456812)rotate(-90)scale(0.1 -0.1)">
       <use xlink:href="#DejaVuSans-32"/>
       <use x="63.623047" xlink:href="#DejaVuSans-30"/>
       <use x="127.246094" xlink:href="#DejaVuSans-30"/>
       <use x="190.869141" xlink:href="#DejaVuSans-39"/>
       <use x="254.492188" xlink:href="#DejaVuSans-2d"/>
       <use x="290.576172" xlink:href="#DejaVuSans-31"/>
       <use x="354.199219" xlink:href="#DejaVuSans-32"/>
      </g>
     </g>
    </g>
    <g id="xtick_9">
     <g id="line2d_9">
      <g>
       <use style="stroke:#000000;stroke-width:0.8;" x="227.806653" xlink:href="#m95a5542f75" y="858.674"/>
      </g>
     </g>
     <g id="text_9">
      <!-- 2010-03 -->
      <g transform="translate(230.566028 907.456812)rotate(-90)scale(0.1 -0.1)">
       <use xlink:href="#DejaVuSans-32"/>
       <use x="63.623047" xlink:href="#DejaVuSans-30"/>
       <use x="127.246094" xlink:href="#DejaVuSans-31"/>
       <use x="190.869141" xlink:href="#DejaVuSans-30"/>
       <use x="254.492188" xlink:href="#DejaVuSans-2d"/>
       <use x="290.576172" xlink:href="#DejaVuSans-30"/>
       <use x="354.199219" xlink:href="#DejaVuSans-33"/>
      </g>
     </g>
    </g>
    <g id="xtick_10">
     <g id="line2d_10">
      <g>
       <use style="stroke:#000000;stroke-width:0.8;" x="248.125671" xlink:href="#m95a5542f75" y="858.674"/>
      </g>
     </g>
     <g id="text_10">
      <!-- 2010-06 -->
      <g transform="translate(250.885046 907.456812)rotate(-90)scale(0.1 -0.1)">
       <use xlink:href="#DejaVuSans-32"/>
       <use x="63.623047" xlink:href="#DejaVuSans-30"/>
       <use x="127.246094" xlink:href="#DejaVuSans-31"/>
       <use x="190.869141" xlink:href="#DejaVuSans-30"/>
       <use x="254.492188" xlink:href="#DejaVuSans-2d"/>
       <use x="290.576172" xlink:href="#DejaVuSans-30"/>
       <use x="354.199219" xlink:href="#DejaVuSans-36"/>
      </g>
     </g>
    </g>
    <g id="xtick_11">
     <g id="line2d_11">
      <g>
       <use style="stroke:#000000;stroke-width:0.8;" x="268.444689" xlink:href="#m95a5542f75" y="858.674"/>
      </g>
     </g>
     <g id="text_11">
      <!-- 2010-09 -->
      <g transform="translate(271.204064 907.456812)rotate(-90)scale(0.1 -0.1)">
       <use xlink:href="#DejaVuSans-32"/>
       <use x="63.623047" xlink:href="#DejaVuSans-30"/>
       <use x="127.246094" xlink:href="#DejaVuSans-31"/>
       <use x="190.869141" xlink:href="#DejaVuSans-30"/>
       <use x="254.492188" xlink:href="#DejaVuSans-2d"/>
       <use x="290.576172" xlink:href="#DejaVuSans-30"/>
       <use x="354.199219" xlink:href="#DejaVuSans-39"/>
      </g>
     </g>
    </g>
    <g id="xtick_12">
     <g id="line2d_12">
      <g>
       <use style="stroke:#000000;stroke-width:0.8;" x="288.542849" xlink:href="#m95a5542f75" y="858.674"/>
      </g>
     </g>
     <g id="text_12">
      <!-- 2010-12 -->
      <g transform="translate(291.302224 907.456812)rotate(-90)scale(0.1 -0.1)">
       <use xlink:href="#DejaVuSans-32"/>
       <use x="63.623047" xlink:href="#DejaVuSans-30"/>
       <use x="127.246094" xlink:href="#DejaVuSans-31"/>
       <use x="190.869141" xlink:href="#DejaVuSans-30"/>
       <use x="254.492188" xlink:href="#DejaVuSans-2d"/>
       <use x="290.576172" xlink:href="#DejaVuSans-31"/>
       <use x="354.199219" xlink:href="#DejaVuSans-32"/>
      </g>
     </g>
    </g>
    <g id="xtick_13">
     <g id="line2d_13">
      <g>
       <use style="stroke:#000000;stroke-width:0.8;" x="308.42015" xlink:href="#m95a5542f75" y="858.674"/>
      </g>
     </g>
     <g id="text_13">
      <!-- 2011-03 -->
      <g transform="translate(311.179525 907.456812)rotate(-90)scale(0.1 -0.1)">
       <use xlink:href="#DejaVuSans-32"/>
       <use x="63.623047" xlink:href="#DejaVuSans-30"/>
       <use x="127.246094" xlink:href="#DejaVuSans-31"/>
       <use x="190.869141" xlink:href="#DejaVuSans-31"/>
       <use x="254.492188" xlink:href="#DejaVuSans-2d"/>
       <use x="290.576172" xlink:href="#DejaVuSans-30"/>
       <use x="354.199219" xlink:href="#DejaVuSans-33"/>
      </g>
     </g>
    </g>
    <g id="xtick_14">
     <g id="line2d_14">
      <g>
       <use style="stroke:#000000;stroke-width:0.8;" x="328.739168" xlink:href="#m95a5542f75" y="858.674"/>
      </g>
     </g>
     <g id="text_14">
      <!-- 2011-06 -->
      <g transform="translate(331.498543 907.456812)rotate(-90)scale(0.1 -0.1)">
       <use xlink:href="#DejaVuSans-32"/>
       <use x="63.623047" xlink:href="#DejaVuSans-30"/>
       <use x="127.246094" xlink:href="#DejaVuSans-31"/>
       <use x="190.869141" xlink:href="#DejaVuSans-31"/>
       <use x="254.492188" xlink:href="#DejaVuSans-2d"/>
       <use x="290.576172" xlink:href="#DejaVuSans-30"/>
       <use x="354.199219" xlink:href="#DejaVuSans-36"/>
      </g>
     </g>
    </g>
    <g id="xtick_15">
     <g id="line2d_15">
      <g>
       <use style="stroke:#000000;stroke-width:0.8;" x="349.058186" xlink:href="#m95a5542f75" y="858.674"/>
      </g>
     </g>
     <g id="text_15">
      <!-- 2011-09 -->
      <g transform="translate(351.817561 907.456812)rotate(-90)scale(0.1 -0.1)">
       <use xlink:href="#DejaVuSans-32"/>
       <use x="63.623047" xlink:href="#DejaVuSans-30"/>
       <use x="127.246094" xlink:href="#DejaVuSans-31"/>
       <use x="190.869141" xlink:href="#DejaVuSans-31"/>
       <use x="254.492188" xlink:href="#DejaVuSans-2d"/>
       <use x="290.576172" xlink:href="#DejaVuSans-30"/>
       <use x="354.199219" xlink:href="#DejaVuSans-39"/>
      </g>
     </g>
    </g>
    <g id="xtick_16">
     <g id="line2d_16">
      <g>
       <use style="stroke:#000000;stroke-width:0.8;" x="369.156346" xlink:href="#m95a5542f75" y="858.674"/>
      </g>
     </g>
     <g id="text_16">
      <!-- 2011-12 -->
      <g transform="translate(371.915721 907.456812)rotate(-90)scale(0.1 -0.1)">
       <use xlink:href="#DejaVuSans-32"/>
       <use x="63.623047" xlink:href="#DejaVuSans-30"/>
       <use x="127.246094" xlink:href="#DejaVuSans-31"/>
       <use x="190.869141" xlink:href="#DejaVuSans-31"/>
       <use x="254.492188" xlink:href="#DejaVuSans-2d"/>
       <use x="290.576172" xlink:href="#DejaVuSans-31"/>
       <use x="354.199219" xlink:href="#DejaVuSans-32"/>
      </g>
     </g>
    </g>
    <g id="xtick_17">
     <g id="line2d_17">
      <g>
       <use style="stroke:#000000;stroke-width:0.8;" x="389.254505" xlink:href="#m95a5542f75" y="858.674"/>
      </g>
     </g>
     <g id="text_17">
      <!-- 2012-03 -->
      <g transform="translate(392.01388 907.456812)rotate(-90)scale(0.1 -0.1)">
       <use xlink:href="#DejaVuSans-32"/>
       <use x="63.623047" xlink:href="#DejaVuSans-30"/>
       <use x="127.246094" xlink:href="#DejaVuSans-31"/>
       <use x="190.869141" xlink:href="#DejaVuSans-32"/>
       <use x="254.492188" xlink:href="#DejaVuSans-2d"/>
       <use x="290.576172" xlink:href="#DejaVuSans-30"/>
       <use x="354.199219" xlink:href="#DejaVuSans-33"/>
      </g>
     </g>
    </g>
    <g id="xtick_18">
     <g id="line2d_18">
      <g>
       <use style="stroke:#000000;stroke-width:0.8;" x="409.573524" xlink:href="#m95a5542f75" y="858.674"/>
      </g>
     </g>
     <g id="text_18">
      <!-- 2012-06 -->
      <g transform="translate(412.332899 907.456812)rotate(-90)scale(0.1 -0.1)">
       <use xlink:href="#DejaVuSans-32"/>
       <use x="63.623047" xlink:href="#DejaVuSans-30"/>
       <use x="127.246094" xlink:href="#DejaVuSans-31"/>
       <use x="190.869141" xlink:href="#DejaVuSans-32"/>
       <use x="254.492188" xlink:href="#DejaVuSans-2d"/>
       <use x="290.576172" xlink:href="#DejaVuSans-30"/>
       <use x="354.199219" xlink:href="#DejaVuSans-36"/>
      </g>
     </g>
    </g>
    <g id="xtick_19">
     <g id="line2d_19">
      <g>
       <use style="stroke:#000000;stroke-width:0.8;" x="429.892542" xlink:href="#m95a5542f75" y="858.674"/>
      </g>
     </g>
     <g id="text_19">
      <!-- 2012-09 -->
      <g transform="translate(432.651917 907.456812)rotate(-90)scale(0.1 -0.1)">
       <use xlink:href="#DejaVuSans-32"/>
       <use x="63.623047" xlink:href="#DejaVuSans-30"/>
       <use x="127.246094" xlink:href="#DejaVuSans-31"/>
       <use x="190.869141" xlink:href="#DejaVuSans-32"/>
       <use x="254.492188" xlink:href="#DejaVuSans-2d"/>
       <use x="290.576172" xlink:href="#DejaVuSans-30"/>
       <use x="354.199219" xlink:href="#DejaVuSans-39"/>
      </g>
     </g>
    </g>
    <g id="xtick_20">
     <g id="line2d_20">
      <g>
       <use style="stroke:#000000;stroke-width:0.8;" x="449.990702" xlink:href="#m95a5542f75" y="858.674"/>
      </g>
     </g>
     <g id="text_20">
      <!-- 2012-12 -->
      <g transform="translate(452.750077 907.456812)rotate(-90)scale(0.1 -0.1)">
       <use xlink:href="#DejaVuSans-32"/>
       <use x="63.623047" xlink:href="#DejaVuSans-30"/>
       <use x="127.246094" xlink:href="#DejaVuSans-31"/>
       <use x="190.869141" xlink:href="#DejaVuSans-32"/>
       <use x="254.492188" xlink:href="#DejaVuSans-2d"/>
       <use x="290.576172" xlink:href="#DejaVuSans-31"/>
       <use x="354.199219" xlink:href="#DejaVuSans-32"/>
      </g>
     </g>
    </g>
    <g id="xtick_21">
     <g id="line2d_21">
      <g>
       <use style="stroke:#000000;stroke-width:0.8;" x="469.868002" xlink:href="#m95a5542f75" y="858.674"/>
      </g>
     </g>
     <g id="text_21">
      <!-- 2013-03 -->
      <g transform="translate(472.627377 907.456812)rotate(-90)scale(0.1 -0.1)">
       <use xlink:href="#DejaVuSans-32"/>
       <use x="63.623047" xlink:href="#DejaVuSans-30"/>
       <use x="127.246094" xlink:href="#DejaVuSans-31"/>
       <use x="190.869141" xlink:href="#DejaVuSans-33"/>
       <use x="254.492188" xlink:href="#DejaVuSans-2d"/>
       <use x="290.576172" xlink:href="#DejaVuSans-30"/>
       <use x="354.199219" xlink:href="#DejaVuSans-33"/>
      </g>
     </g>
    </g>
    <g id="xtick_22">
     <g id="line2d_22">
      <g>
       <use style="stroke:#000000;stroke-width:0.8;" x="490.187021" xlink:href="#m95a5542f75" y="858.674"/>
      </g>
     </g>
     <g id="text_22">
      <!-- 2013-06 -->
      <g transform="translate(492.946396 907.456812)rotate(-90)scale(0.1 -0.1)">
       <use xlink:href="#DejaVuSans-32"/>
       <use x="63.623047" xlink:href="#DejaVuSans-30"/>
       <use x="127.246094" xlink:href="#DejaVuSans-31"/>
       <use x="190.869141" xlink:href="#DejaVuSans-33"/>
       <use x="254.492188" xlink:href="#DejaVuSans-2d"/>
       <use x="290.576172" xlink:href="#DejaVuSans-30"/>
       <use x="354.199219" xlink:href="#DejaVuSans-36"/>
      </g>
     </g>
    </g>
    <g id="xtick_23">
     <g id="line2d_23">
      <g>
       <use style="stroke:#000000;stroke-width:0.8;" x="510.506039" xlink:href="#m95a5542f75" y="858.674"/>
      </g>
     </g>
     <g id="text_23">
      <!-- 2013-09 -->
      <g transform="translate(513.265414 907.456812)rotate(-90)scale(0.1 -0.1)">
       <use xlink:href="#DejaVuSans-32"/>
       <use x="63.623047" xlink:href="#DejaVuSans-30"/>
       <use x="127.246094" xlink:href="#DejaVuSans-31"/>
       <use x="190.869141" xlink:href="#DejaVuSans-33"/>
       <use x="254.492188" xlink:href="#DejaVuSans-2d"/>
       <use x="290.576172" xlink:href="#DejaVuSans-30"/>
       <use x="354.199219" xlink:href="#DejaVuSans-39"/>
      </g>
     </g>
    </g>
    <g id="xtick_24">
     <g id="line2d_24">
      <g>
       <use style="stroke:#000000;stroke-width:0.8;" x="530.604199" xlink:href="#m95a5542f75" y="858.674"/>
      </g>
     </g>
     <g id="text_24">
      <!-- 2013-12 -->
      <g transform="translate(533.363574 907.456812)rotate(-90)scale(0.1 -0.1)">
       <use xlink:href="#DejaVuSans-32"/>
       <use x="63.623047" xlink:href="#DejaVuSans-30"/>
       <use x="127.246094" xlink:href="#DejaVuSans-31"/>
       <use x="190.869141" xlink:href="#DejaVuSans-33"/>
       <use x="254.492188" xlink:href="#DejaVuSans-2d"/>
       <use x="290.576172" xlink:href="#DejaVuSans-31"/>
       <use x="354.199219" xlink:href="#DejaVuSans-32"/>
      </g>
     </g>
    </g>
    <g id="xtick_25">
     <g id="line2d_25">
      <g>
       <use style="stroke:#000000;stroke-width:0.8;" x="550.481499" xlink:href="#m95a5542f75" y="858.674"/>
      </g>
     </g>
     <g id="text_25">
      <!-- 2014-03 -->
      <g transform="translate(553.240874 907.456812)rotate(-90)scale(0.1 -0.1)">
       <defs>
        <path d="M 2419 4116 
L 825 1625 
L 2419 1625 
L 2419 4116 
z
M 2253 4666 
L 3047 4666 
L 3047 1625 
L 3713 1625 
L 3713 1100 
L 3047 1100 
L 3047 0 
L 2419 0 
L 2419 1100 
L 313 1100 
L 313 1709 
L 2253 4666 
z
" id="DejaVuSans-34" transform="scale(0.015625)"/>
       </defs>
       <use xlink:href="#DejaVuSans-32"/>
       <use x="63.623047" xlink:href="#DejaVuSans-30"/>
       <use x="127.246094" xlink:href="#DejaVuSans-31"/>
       <use x="190.869141" xlink:href="#DejaVuSans-34"/>
       <use x="254.492188" xlink:href="#DejaVuSans-2d"/>
       <use x="290.576172" xlink:href="#DejaVuSans-30"/>
       <use x="354.199219" xlink:href="#DejaVuSans-33"/>
      </g>
     </g>
    </g>
    <g id="xtick_26">
     <g id="line2d_26">
      <g>
       <use style="stroke:#000000;stroke-width:0.8;" x="570.800518" xlink:href="#m95a5542f75" y="858.674"/>
      </g>
     </g>
     <g id="text_26">
      <!-- 2014-06 -->
      <g transform="translate(573.559893 907.456812)rotate(-90)scale(0.1 -0.1)">
       <use xlink:href="#DejaVuSans-32"/>
       <use x="63.623047" xlink:href="#DejaVuSans-30"/>
       <use x="127.246094" xlink:href="#DejaVuSans-31"/>
       <use x="190.869141" xlink:href="#DejaVuSans-34"/>
       <use x="254.492188" xlink:href="#DejaVuSans-2d"/>
       <use x="290.576172" xlink:href="#DejaVuSans-30"/>
       <use x="354.199219" xlink:href="#DejaVuSans-36"/>
      </g>
     </g>
    </g>
    <g id="xtick_27">
     <g id="line2d_27">
      <g>
       <use style="stroke:#000000;stroke-width:0.8;" x="591.119536" xlink:href="#m95a5542f75" y="858.674"/>
      </g>
     </g>
     <g id="text_27">
      <!-- 2014-09 -->
      <g transform="translate(593.878911 907.456812)rotate(-90)scale(0.1 -0.1)">
       <use xlink:href="#DejaVuSans-32"/>
       <use x="63.623047" xlink:href="#DejaVuSans-30"/>
       <use x="127.246094" xlink:href="#DejaVuSans-31"/>
       <use x="190.869141" xlink:href="#DejaVuSans-34"/>
       <use x="254.492188" xlink:href="#DejaVuSans-2d"/>
       <use x="290.576172" xlink:href="#DejaVuSans-30"/>
       <use x="354.199219" xlink:href="#DejaVuSans-39"/>
      </g>
     </g>
    </g>
    <g id="xtick_28">
     <g id="line2d_28">
      <g>
       <use style="stroke:#000000;stroke-width:0.8;" x="611.217696" xlink:href="#m95a5542f75" y="858.674"/>
      </g>
     </g>
     <g id="text_28">
      <!-- 2014-12 -->
      <g transform="translate(613.977071 907.456812)rotate(-90)scale(0.1 -0.1)">
       <use xlink:href="#DejaVuSans-32"/>
       <use x="63.623047" xlink:href="#DejaVuSans-30"/>
       <use x="127.246094" xlink:href="#DejaVuSans-31"/>
       <use x="190.869141" xlink:href="#DejaVuSans-34"/>
       <use x="254.492188" xlink:href="#DejaVuSans-2d"/>
       <use x="290.576172" xlink:href="#DejaVuSans-31"/>
       <use x="354.199219" xlink:href="#DejaVuSans-32"/>
      </g>
     </g>
    </g>
    <g id="xtick_29">
     <g id="line2d_29">
      <g>
       <use style="stroke:#000000;stroke-width:0.8;" x="631.094996" xlink:href="#m95a5542f75" y="858.674"/>
      </g>
     </g>
     <g id="text_29">
      <!-- 2015-03 -->
      <g transform="translate(633.854371 907.456812)rotate(-90)scale(0.1 -0.1)">
       <defs>
        <path d="M 691 4666 
L 3169 4666 
L 3169 4134 
L 1269 4134 
L 1269 2991 
Q 1406 3038 1543 3061 
Q 1681 3084 1819 3084 
Q 2600 3084 3056 2656 
Q 3513 2228 3513 1497 
Q 3513 744 3044 326 
Q 2575 -91 1722 -91 
Q 1428 -91 1123 -41 
Q 819 9 494 109 
L 494 744 
Q 775 591 1075 516 
Q 1375 441 1709 441 
Q 2250 441 2565 725 
Q 2881 1009 2881 1497 
Q 2881 1984 2565 2268 
Q 2250 2553 1709 2553 
Q 1456 2553 1204 2497 
Q 953 2441 691 2322 
L 691 4666 
z
" id="DejaVuSans-35" transform="scale(0.015625)"/>
       </defs>
       <use xlink:href="#DejaVuSans-32"/>
       <use x="63.623047" xlink:href="#DejaVuSans-30"/>
       <use x="127.246094" xlink:href="#DejaVuSans-31"/>
       <use x="190.869141" xlink:href="#DejaVuSans-35"/>
       <use x="254.492188" xlink:href="#DejaVuSans-2d"/>
       <use x="290.576172" xlink:href="#DejaVuSans-30"/>
       <use x="354.199219" xlink:href="#DejaVuSans-33"/>
      </g>
     </g>
    </g>
    <g id="xtick_30">
     <g id="line2d_30">
      <g>
       <use style="stroke:#000000;stroke-width:0.8;" x="651.414015" xlink:href="#m95a5542f75" y="858.674"/>
      </g>
     </g>
     <g id="text_30">
      <!-- 2015-06 -->
      <g transform="translate(654.17339 907.456812)rotate(-90)scale(0.1 -0.1)">
       <use xlink:href="#DejaVuSans-32"/>
       <use x="63.623047" xlink:href="#DejaVuSans-30"/>
       <use x="127.246094" xlink:href="#DejaVuSans-31"/>
       <use x="190.869141" xlink:href="#DejaVuSans-35"/>
       <use x="254.492188" xlink:href="#DejaVuSans-2d"/>
       <use x="290.576172" xlink:href="#DejaVuSans-30"/>
       <use x="354.199219" xlink:href="#DejaVuSans-36"/>
      </g>
     </g>
    </g>
    <g id="xtick_31">
     <g id="line2d_31">
      <g>
       <use style="stroke:#000000;stroke-width:0.8;" x="671.733033" xlink:href="#m95a5542f75" y="858.674"/>
      </g>
     </g>
     <g id="text_31">
      <!-- 2015-09 -->
      <g transform="translate(674.492408 907.456812)rotate(-90)scale(0.1 -0.1)">
       <use xlink:href="#DejaVuSans-32"/>
       <use x="63.623047" xlink:href="#DejaVuSans-30"/>
       <use x="127.246094" xlink:href="#DejaVuSans-31"/>
       <use x="190.869141" xlink:href="#DejaVuSans-35"/>
       <use x="254.492188" xlink:href="#DejaVuSans-2d"/>
       <use x="290.576172" xlink:href="#DejaVuSans-30"/>
       <use x="354.199219" xlink:href="#DejaVuSans-39"/>
      </g>
     </g>
    </g>
    <g id="xtick_32">
     <g id="line2d_32">
      <g>
       <use style="stroke:#000000;stroke-width:0.8;" x="691.831192" xlink:href="#m95a5542f75" y="858.674"/>
      </g>
     </g>
     <g id="text_32">
      <!-- 2015-12 -->
      <g transform="translate(694.590567 907.456812)rotate(-90)scale(0.1 -0.1)">
       <use xlink:href="#DejaVuSans-32"/>
       <use x="63.623047" xlink:href="#DejaVuSans-30"/>
       <use x="127.246094" xlink:href="#DejaVuSans-31"/>
       <use x="190.869141" xlink:href="#DejaVuSans-35"/>
       <use x="254.492188" xlink:href="#DejaVuSans-2d"/>
       <use x="290.576172" xlink:href="#DejaVuSans-31"/>
       <use x="354.199219" xlink:href="#DejaVuSans-32"/>
      </g>
     </g>
    </g>
    <g id="xtick_33">
     <g id="line2d_33">
      <g>
       <use style="stroke:#000000;stroke-width:0.8;" x="711.929352" xlink:href="#m95a5542f75" y="858.674"/>
      </g>
     </g>
     <g id="text_33">
      <!-- 2016-03 -->
      <g transform="translate(714.688727 907.456812)rotate(-90)scale(0.1 -0.1)">
       <use xlink:href="#DejaVuSans-32"/>
       <use x="63.623047" xlink:href="#DejaVuSans-30"/>
       <use x="127.246094" xlink:href="#DejaVuSans-31"/>
       <use x="190.869141" xlink:href="#DejaVuSans-36"/>
       <use x="254.492188" xlink:href="#DejaVuSans-2d"/>
       <use x="290.576172" xlink:href="#DejaVuSans-30"/>
       <use x="354.199219" xlink:href="#DejaVuSans-33"/>
      </g>
     </g>
    </g>
    <g id="xtick_34">
     <g id="line2d_34">
      <g>
       <use style="stroke:#000000;stroke-width:0.8;" x="732.24837" xlink:href="#m95a5542f75" y="858.674"/>
      </g>
     </g>
     <g id="text_34">
      <!-- 2016-06 -->
      <g transform="translate(735.007745 907.456812)rotate(-90)scale(0.1 -0.1)">
       <use xlink:href="#DejaVuSans-32"/>
       <use x="63.623047" xlink:href="#DejaVuSans-30"/>
       <use x="127.246094" xlink:href="#DejaVuSans-31"/>
       <use x="190.869141" xlink:href="#DejaVuSans-36"/>
       <use x="254.492188" xlink:href="#DejaVuSans-2d"/>
       <use x="290.576172" xlink:href="#DejaVuSans-30"/>
       <use x="354.199219" xlink:href="#DejaVuSans-36"/>
      </g>
     </g>
    </g>
    <g id="xtick_35">
     <g id="line2d_35">
      <g>
       <use style="stroke:#000000;stroke-width:0.8;" x="752.567389" xlink:href="#m95a5542f75" y="858.674"/>
      </g>
     </g>
     <g id="text_35">
      <!-- 2016-09 -->
      <g transform="translate(755.326764 907.456812)rotate(-90)scale(0.1 -0.1)">
       <use xlink:href="#DejaVuSans-32"/>
       <use x="63.623047" xlink:href="#DejaVuSans-30"/>
       <use x="127.246094" xlink:href="#DejaVuSans-31"/>
       <use x="190.869141" xlink:href="#DejaVuSans-36"/>
       <use x="254.492188" xlink:href="#DejaVuSans-2d"/>
       <use x="290.576172" xlink:href="#DejaVuSans-30"/>
       <use x="354.199219" xlink:href="#DejaVuSans-39"/>
      </g>
     </g>
    </g>
    <g id="xtick_36">
     <g id="line2d_36">
      <g>
       <use style="stroke:#000000;stroke-width:0.8;" x="772.665548" xlink:href="#m95a5542f75" y="858.674"/>
      </g>
     </g>
     <g id="text_36">
      <!-- 2016-12 -->
      <g transform="translate(775.424923 907.456812)rotate(-90)scale(0.1 -0.1)">
       <use xlink:href="#DejaVuSans-32"/>
       <use x="63.623047" xlink:href="#DejaVuSans-30"/>
       <use x="127.246094" xlink:href="#DejaVuSans-31"/>
       <use x="190.869141" xlink:href="#DejaVuSans-36"/>
       <use x="254.492188" xlink:href="#DejaVuSans-2d"/>
       <use x="290.576172" xlink:href="#DejaVuSans-31"/>
       <use x="354.199219" xlink:href="#DejaVuSans-32"/>
      </g>
     </g>
    </g>
    <g id="xtick_37">
     <g id="line2d_37">
      <g>
       <use style="stroke:#000000;stroke-width:0.8;" x="792.542849" xlink:href="#m95a5542f75" y="858.674"/>
      </g>
     </g>
     <g id="text_37">
      <!-- 2017-03 -->
      <g transform="translate(795.302224 907.456812)rotate(-90)scale(0.1 -0.1)">
       <defs>
        <path d="M 525 4666 
L 3525 4666 
L 3525 4397 
L 1831 0 
L 1172 0 
L 2766 4134 
L 525 4134 
L 525 4666 
z
" id="DejaVuSans-37" transform="scale(0.015625)"/>
       </defs>
       <use xlink:href="#DejaVuSans-32"/>
       <use x="63.623047" xlink:href="#DejaVuSans-30"/>
       <use x="127.246094" xlink:href="#DejaVuSans-31"/>
       <use x="190.869141" xlink:href="#DejaVuSans-37"/>
       <use x="254.492188" xlink:href="#DejaVuSans-2d"/>
       <use x="290.576172" xlink:href="#DejaVuSans-30"/>
       <use x="354.199219" xlink:href="#DejaVuSans-33"/>
      </g>
     </g>
    </g>
    <g id="xtick_38">
     <g id="line2d_38">
      <g>
       <use style="stroke:#000000;stroke-width:0.8;" x="812.861867" xlink:href="#m95a5542f75" y="858.674"/>
      </g>
     </g>
     <g id="text_38">
      <!-- 2017-06 -->
      <g transform="translate(815.621242 907.456812)rotate(-90)scale(0.1 -0.1)">
       <use xlink:href="#DejaVuSans-32"/>
       <use x="63.623047" xlink:href="#DejaVuSans-30"/>
       <use x="127.246094" xlink:href="#DejaVuSans-31"/>
       <use x="190.869141" xlink:href="#DejaVuSans-37"/>
       <use x="254.492188" xlink:href="#DejaVuSans-2d"/>
       <use x="290.576172" xlink:href="#DejaVuSans-30"/>
       <use x="354.199219" xlink:href="#DejaVuSans-36"/>
      </g>
     </g>
    </g>
    <g id="xtick_39">
     <g id="line2d_39">
      <g>
       <use style="stroke:#000000;stroke-width:0.8;" x="833.180886" xlink:href="#m95a5542f75" y="858.674"/>
      </g>
     </g>
     <g id="text_39">
      <!-- 2017-09 -->
      <g transform="translate(835.940261 907.456812)rotate(-90)scale(0.1 -0.1)">
       <use xlink:href="#DejaVuSans-32"/>
       <use x="63.623047" xlink:href="#DejaVuSans-30"/>
       <use x="127.246094" xlink:href="#DejaVuSans-31"/>
       <use x="190.869141" xlink:href="#DejaVuSans-37"/>
       <use x="254.492188" xlink:href="#DejaVuSans-2d"/>
       <use x="290.576172" xlink:href="#DejaVuSans-30"/>
       <use x="354.199219" xlink:href="#DejaVuSans-39"/>
      </g>
     </g>
    </g>
    <g id="xtick_40">
     <g id="line2d_40">
      <g>
       <use style="stroke:#000000;stroke-width:0.8;" x="853.279045" xlink:href="#m95a5542f75" y="858.674"/>
      </g>
     </g>
     <g id="text_40">
      <!-- 2017-12 -->
      <g transform="translate(856.03842 907.456812)rotate(-90)scale(0.1 -0.1)">
       <use xlink:href="#DejaVuSans-32"/>
       <use x="63.623047" xlink:href="#DejaVuSans-30"/>
       <use x="127.246094" xlink:href="#DejaVuSans-31"/>
       <use x="190.869141" xlink:href="#DejaVuSans-37"/>
       <use x="254.492188" xlink:href="#DejaVuSans-2d"/>
       <use x="290.576172" xlink:href="#DejaVuSans-31"/>
       <use x="354.199219" xlink:href="#DejaVuSans-32"/>
      </g>
     </g>
    </g>
    <g id="xtick_41">
     <g id="line2d_41">
      <g>
       <use style="stroke:#000000;stroke-width:0.8;" x="873.156346" xlink:href="#m95a5542f75" y="858.674"/>
      </g>
     </g>
     <g id="text_41">
      <!-- 2018-03 -->
      <g transform="translate(875.915721 907.456812)rotate(-90)scale(0.1 -0.1)">
       <use xlink:href="#DejaVuSans-32"/>
       <use x="63.623047" xlink:href="#DejaVuSans-30"/>
       <use x="127.246094" xlink:href="#DejaVuSans-31"/>
       <use x="190.869141" xlink:href="#DejaVuSans-38"/>
       <use x="254.492188" xlink:href="#DejaVuSans-2d"/>
       <use x="290.576172" xlink:href="#DejaVuSans-30"/>
       <use x="354.199219" xlink:href="#DejaVuSans-33"/>
      </g>
     </g>
    </g>
    <g id="xtick_42">
     <g id="line2d_42">
      <g>
       <use style="stroke:#000000;stroke-width:0.8;" x="893.475364" xlink:href="#m95a5542f75" y="858.674"/>
      </g>
     </g>
     <g id="text_42">
      <!-- 2018-06 -->
      <g transform="translate(896.234739 907.456812)rotate(-90)scale(0.1 -0.1)">
       <use xlink:href="#DejaVuSans-32"/>
       <use x="63.623047" xlink:href="#DejaVuSans-30"/>
       <use x="127.246094" xlink:href="#DejaVuSans-31"/>
       <use x="190.869141" xlink:href="#DejaVuSans-38"/>
       <use x="254.492188" xlink:href="#DejaVuSans-2d"/>
       <use x="290.576172" xlink:href="#DejaVuSans-30"/>
       <use x="354.199219" xlink:href="#DejaVuSans-36"/>
      </g>
     </g>
    </g>
    <g id="xtick_43">
     <g id="line2d_43">
      <g>
       <use style="stroke:#000000;stroke-width:0.8;" x="913.794383" xlink:href="#m95a5542f75" y="858.674"/>
      </g>
     </g>
     <g id="text_43">
      <!-- 2018-09 -->
      <g transform="translate(916.553758 907.456812)rotate(-90)scale(0.1 -0.1)">
       <use xlink:href="#DejaVuSans-32"/>
       <use x="63.623047" xlink:href="#DejaVuSans-30"/>
       <use x="127.246094" xlink:href="#DejaVuSans-31"/>
       <use x="190.869141" xlink:href="#DejaVuSans-38"/>
       <use x="254.492188" xlink:href="#DejaVuSans-2d"/>
       <use x="290.576172" xlink:href="#DejaVuSans-30"/>
       <use x="354.199219" xlink:href="#DejaVuSans-39"/>
      </g>
     </g>
    </g>
    <g id="xtick_44">
     <g id="line2d_44">
      <g>
       <use style="stroke:#000000;stroke-width:0.8;" x="933.892542" xlink:href="#m95a5542f75" y="858.674"/>
      </g>
     </g>
     <g id="text_44">
      <!-- 2018-12 -->
      <g transform="translate(936.651917 907.456812)rotate(-90)scale(0.1 -0.1)">
       <use xlink:href="#DejaVuSans-32"/>
       <use x="63.623047" xlink:href="#DejaVuSans-30"/>
       <use x="127.246094" xlink:href="#DejaVuSans-31"/>
       <use x="190.869141" xlink:href="#DejaVuSans-38"/>
       <use x="254.492188" xlink:href="#DejaVuSans-2d"/>
       <use x="290.576172" xlink:href="#DejaVuSans-31"/>
       <use x="354.199219" xlink:href="#DejaVuSans-32"/>
      </g>
     </g>
    </g>
    <g id="xtick_45">
     <g id="line2d_45">
      <g>
       <use style="stroke:#000000;stroke-width:0.8;" x="953.769843" xlink:href="#m95a5542f75" y="858.674"/>
      </g>
     </g>
     <g id="text_45">
      <!-- 2019-03 -->
      <g transform="translate(956.529218 907.456812)rotate(-90)scale(0.1 -0.1)">
       <use xlink:href="#DejaVuSans-32"/>
       <use x="63.623047" xlink:href="#DejaVuSans-30"/>
       <use x="127.246094" xlink:href="#DejaVuSans-31"/>
       <use x="190.869141" xlink:href="#DejaVuSans-39"/>
       <use x="254.492188" xlink:href="#DejaVuSans-2d"/>
       <use x="290.576172" xlink:href="#DejaVuSans-30"/>
       <use x="354.199219" xlink:href="#DejaVuSans-33"/>
      </g>
     </g>
    </g>
    <g id="xtick_46">
     <g id="line2d_46">
      <g>
       <use style="stroke:#000000;stroke-width:0.8;" x="974.088861" xlink:href="#m95a5542f75" y="858.674"/>
      </g>
     </g>
     <g id="text_46">
      <!-- 2019-06 -->
      <g transform="translate(976.848236 907.456812)rotate(-90)scale(0.1 -0.1)">
       <use xlink:href="#DejaVuSans-32"/>
       <use x="63.623047" xlink:href="#DejaVuSans-30"/>
       <use x="127.246094" xlink:href="#DejaVuSans-31"/>
       <use x="190.869141" xlink:href="#DejaVuSans-39"/>
       <use x="254.492188" xlink:href="#DejaVuSans-2d"/>
       <use x="290.576172" xlink:href="#DejaVuSans-30"/>
       <use x="354.199219" xlink:href="#DejaVuSans-36"/>
      </g>
     </g>
    </g>
    <g id="xtick_47">
     <g id="line2d_47">
      <g>
       <use style="stroke:#000000;stroke-width:0.8;" x="994.40788" xlink:href="#m95a5542f75" y="858.674"/>
      </g>
     </g>
     <g id="text_47">
      <!-- 2019-09 -->
      <g transform="translate(997.167255 907.456812)rotate(-90)scale(0.1 -0.1)">
       <use xlink:href="#DejaVuSans-32"/>
       <use x="63.623047" xlink:href="#DejaVuSans-30"/>
       <use x="127.246094" xlink:href="#DejaVuSans-31"/>
       <use x="190.869141" xlink:href="#DejaVuSans-39"/>
       <use x="254.492188" xlink:href="#DejaVuSans-2d"/>
       <use x="290.576172" xlink:href="#DejaVuSans-30"/>
       <use x="354.199219" xlink:href="#DejaVuSans-39"/>
      </g>
     </g>
    </g>
    <g id="xtick_48">
     <g id="line2d_48">
      <g>
       <use style="stroke:#000000;stroke-width:0.8;" x="1014.506039" xlink:href="#m95a5542f75" y="858.674"/>
      </g>
     </g>
     <g id="text_48">
      <!-- 2019-12 -->
      <g transform="translate(1017.265414 907.456812)rotate(-90)scale(0.1 -0.1)">
       <use xlink:href="#DejaVuSans-32"/>
       <use x="63.623047" xlink:href="#DejaVuSans-30"/>
       <use x="127.246094" xlink:href="#DejaVuSans-31"/>
       <use x="190.869141" xlink:href="#DejaVuSans-39"/>
       <use x="254.492188" xlink:href="#DejaVuSans-2d"/>
       <use x="290.576172" xlink:href="#DejaVuSans-31"/>
       <use x="354.199219" xlink:href="#DejaVuSans-32"/>
      </g>
     </g>
    </g>
    <g id="xtick_49">
     <g id="line2d_49">
      <g>
       <use style="stroke:#000000;stroke-width:0.8;" x="1034.604199" xlink:href="#m95a5542f75" y="858.674"/>
      </g>
     </g>
     <g id="text_49">
      <!-- 2020-03 -->
      <g transform="translate(1037.363574 907.456812)rotate(-90)scale(0.1 -0.1)">
       <use xlink:href="#DejaVuSans-32"/>
       <use x="63.623047" xlink:href="#DejaVuSans-30"/>
       <use x="127.246094" xlink:href="#DejaVuSans-32"/>
       <use x="190.869141" xlink:href="#DejaVuSans-30"/>
       <use x="254.492188" xlink:href="#DejaVuSans-2d"/>
       <use x="290.576172" xlink:href="#DejaVuSans-30"/>
       <use x="354.199219" xlink:href="#DejaVuSans-33"/>
      </g>
     </g>
    </g>
    <g id="xtick_50">
     <g id="line2d_50">
      <g>
       <use style="stroke:#000000;stroke-width:0.8;" x="1054.923217" xlink:href="#m95a5542f75" y="858.674"/>
      </g>
     </g>
     <g id="text_50">
      <!-- 2020-06 -->
      <g transform="translate(1057.682592 907.456812)rotate(-90)scale(0.1 -0.1)">
       <use xlink:href="#DejaVuSans-32"/>
       <use x="63.623047" xlink:href="#DejaVuSans-30"/>
       <use x="127.246094" xlink:href="#DejaVuSans-32"/>
       <use x="190.869141" xlink:href="#DejaVuSans-30"/>
       <use x="254.492188" xlink:href="#DejaVuSans-2d"/>
       <use x="290.576172" xlink:href="#DejaVuSans-30"/>
       <use x="354.199219" xlink:href="#DejaVuSans-36"/>
      </g>
     </g>
    </g>
    <g id="xtick_51">
     <g id="line2d_51">
      <g>
       <use style="stroke:#000000;stroke-width:0.8;" x="1075.242235" xlink:href="#m95a5542f75" y="858.674"/>
      </g>
     </g>
     <g id="text_51">
      <!-- 2020-09 -->
      <g transform="translate(1078.00161 907.456812)rotate(-90)scale(0.1 -0.1)">
       <use xlink:href="#DejaVuSans-32"/>
       <use x="63.623047" xlink:href="#DejaVuSans-30"/>
       <use x="127.246094" xlink:href="#DejaVuSans-32"/>
       <use x="190.869141" xlink:href="#DejaVuSans-30"/>
       <use x="254.492188" xlink:href="#DejaVuSans-2d"/>
       <use x="290.576172" xlink:href="#DejaVuSans-30"/>
       <use x="354.199219" xlink:href="#DejaVuSans-39"/>
      </g>
     </g>
    </g>
    <g id="xtick_52">
     <g id="line2d_52">
      <g>
       <use style="stroke:#000000;stroke-width:0.8;" x="1095.340395" xlink:href="#m95a5542f75" y="858.674"/>
      </g>
     </g>
     <g id="text_52">
      <!-- 2020-12 -->
      <g transform="translate(1098.09977 907.456812)rotate(-90)scale(0.1 -0.1)">
       <use xlink:href="#DejaVuSans-32"/>
       <use x="63.623047" xlink:href="#DejaVuSans-30"/>
       <use x="127.246094" xlink:href="#DejaVuSans-32"/>
       <use x="190.869141" xlink:href="#DejaVuSans-30"/>
       <use x="254.492188" xlink:href="#DejaVuSans-2d"/>
       <use x="290.576172" xlink:href="#DejaVuSans-31"/>
       <use x="354.199219" xlink:href="#DejaVuSans-32"/>
      </g>
     </g>
    </g>
    <g id="xtick_53">
     <g id="line2d_53">
      <g>
       <use style="stroke:#000000;stroke-width:0.8;" x="1115.217696" xlink:href="#m95a5542f75" y="858.674"/>
      </g>
     </g>
     <g id="text_53">
      <!-- 2021-03 -->
      <g transform="translate(1117.977071 907.456812)rotate(-90)scale(0.1 -0.1)">
       <use xlink:href="#DejaVuSans-32"/>
       <use x="63.623047" xlink:href="#DejaVuSans-30"/>
       <use x="127.246094" xlink:href="#DejaVuSans-32"/>
       <use x="190.869141" xlink:href="#DejaVuSans-31"/>
       <use x="254.492188" xlink:href="#DejaVuSans-2d"/>
       <use x="290.576172" xlink:href="#DejaVuSans-30"/>
       <use x="354.199219" xlink:href="#DejaVuSans-33"/>
      </g>
     </g>
    </g>
    <g id="xtick_54">
     <g id="line2d_54">
      <g>
       <use style="stroke:#000000;stroke-width:0.8;" x="1135.536714" xlink:href="#m95a5542f75" y="858.674"/>
      </g>
     </g>
     <g id="text_54">
      <!-- 2021-06 -->
      <g transform="translate(1138.296089 907.456812)rotate(-90)scale(0.1 -0.1)">
       <use xlink:href="#DejaVuSans-32"/>
       <use x="63.623047" xlink:href="#DejaVuSans-30"/>
       <use x="127.246094" xlink:href="#DejaVuSans-32"/>
       <use x="190.869141" xlink:href="#DejaVuSans-31"/>
       <use x="254.492188" xlink:href="#DejaVuSans-2d"/>
       <use x="290.576172" xlink:href="#DejaVuSans-30"/>
       <use x="354.199219" xlink:href="#DejaVuSans-36"/>
      </g>
     </g>
    </g>
    <g id="xtick_55">
     <g id="line2d_55">
      <g>
       <use style="stroke:#000000;stroke-width:0.8;" x="1155.855732" xlink:href="#m95a5542f75" y="858.674"/>
      </g>
     </g>
     <g id="text_55">
      <!-- 2021-09 -->
      <g transform="translate(1158.615107 907.456812)rotate(-90)scale(0.1 -0.1)">
       <use xlink:href="#DejaVuSans-32"/>
       <use x="63.623047" xlink:href="#DejaVuSans-30"/>
       <use x="127.246094" xlink:href="#DejaVuSans-32"/>
       <use x="190.869141" xlink:href="#DejaVuSans-31"/>
       <use x="254.492188" xlink:href="#DejaVuSans-2d"/>
       <use x="290.576172" xlink:href="#DejaVuSans-30"/>
       <use x="354.199219" xlink:href="#DejaVuSans-39"/>
      </g>
     </g>
    </g>
    <g id="text_56">
     <!-- Time (Year-Month) -->
     <g transform="translate(565.860156 919.05525)scale(0.1 -0.1)">
      <defs>
       <path d="M -19 4666 
L 3928 4666 
L 3928 4134 
L 2272 4134 
L 2272 0 
L 1638 0 
L 1638 4134 
L -19 4134 
L -19 4666 
z
" id="DejaVuSans-54" transform="scale(0.015625)"/>
       <path d="M 603 3500 
L 1178 3500 
L 1178 0 
L 603 0 
L 603 3500 
z
M 603 4863 
L 1178 4863 
L 1178 4134 
L 603 4134 
L 603 4863 
z
" id="DejaVuSans-69" transform="scale(0.015625)"/>
       <path d="M 3328 2828 
Q 3544 3216 3844 3400 
Q 4144 3584 4550 3584 
Q 5097 3584 5394 3201 
Q 5691 2819 5691 2113 
L 5691 0 
L 5113 0 
L 5113 2094 
Q 5113 2597 4934 2840 
Q 4756 3084 4391 3084 
Q 3944 3084 3684 2787 
Q 3425 2491 3425 1978 
L 3425 0 
L 2847 0 
L 2847 2094 
Q 2847 2600 2669 2842 
Q 2491 3084 2119 3084 
Q 1678 3084 1418 2786 
Q 1159 2488 1159 1978 
L 1159 0 
L 581 0 
L 581 3500 
L 1159 3500 
L 1159 2956 
Q 1356 3278 1631 3431 
Q 1906 3584 2284 3584 
Q 2666 3584 2933 3390 
Q 3200 3197 3328 2828 
z
" id="DejaVuSans-6d" transform="scale(0.015625)"/>
       <path d="M 3597 1894 
L 3597 1613 
L 953 1613 
Q 991 1019 1311 708 
Q 1631 397 2203 397 
Q 2534 397 2845 478 
Q 3156 559 3463 722 
L 3463 178 
Q 3153 47 2828 -22 
Q 2503 -91 2169 -91 
Q 1331 -91 842 396 
Q 353 884 353 1716 
Q 353 2575 817 3079 
Q 1281 3584 2069 3584 
Q 2775 3584 3186 3129 
Q 3597 2675 3597 1894 
z
M 3022 2063 
Q 3016 2534 2758 2815 
Q 2500 3097 2075 3097 
Q 1594 3097 1305 2825 
Q 1016 2553 972 2059 
L 3022 2063 
z
" id="DejaVuSans-65" transform="scale(0.015625)"/>
       <path id="DejaVuSans-20" transform="scale(0.015625)"/>
       <path d="M 1984 4856 
Q 1566 4138 1362 3434 
Q 1159 2731 1159 2009 
Q 1159 1288 1364 580 
Q 1569 -128 1984 -844 
L 1484 -844 
Q 1016 -109 783 600 
Q 550 1309 550 2009 
Q 550 2706 781 3412 
Q 1013 4119 1484 4856 
L 1984 4856 
z
" id="DejaVuSans-28" transform="scale(0.015625)"/>
       <path d="M -13 4666 
L 666 4666 
L 1959 2747 
L 3244 4666 
L 3922 4666 
L 2272 2222 
L 2272 0 
L 1638 0 
L 1638 2222 
L -13 4666 
z
" id="DejaVuSans-59" transform="scale(0.015625)"/>
       <path d="M 2194 1759 
Q 1497 1759 1228 1600 
Q 959 1441 959 1056 
Q 959 750 1161 570 
Q 1363 391 1709 391 
Q 2188 391 2477 730 
Q 2766 1069 2766 1631 
L 2766 1759 
L 2194 1759 
z
M 3341 1997 
L 3341 0 
L 2766 0 
L 2766 531 
Q 2569 213 2275 61 
Q 1981 -91 1556 -91 
Q 1019 -91 701 211 
Q 384 513 384 1019 
Q 384 1609 779 1909 
Q 1175 2209 1959 2209 
L 2766 2209 
L 2766 2266 
Q 2766 2663 2505 2880 
Q 2244 3097 1772 3097 
Q 1472 3097 1187 3025 
Q 903 2953 641 2809 
L 641 3341 
Q 956 3463 1253 3523 
Q 1550 3584 1831 3584 
Q 2591 3584 2966 3190 
Q 3341 2797 3341 1997 
z
" id="DejaVuSans-61" transform="scale(0.015625)"/>
       <path d="M 2631 2963 
Q 2534 3019 2420 3045 
Q 2306 3072 2169 3072 
Q 1681 3072 1420 2755 
Q 1159 2438 1159 1844 
L 1159 0 
L 581 0 
L 581 3500 
L 1159 3500 
L 1159 2956 
Q 1341 3275 1631 3429 
Q 1922 3584 2338 3584 
Q 2397 3584 2469 3576 
Q 2541 3569 2628 3553 
L 2631 2963 
z
" id="DejaVuSans-72" transform="scale(0.015625)"/>
       <path d="M 628 4666 
L 1569 4666 
L 2759 1491 
L 3956 4666 
L 4897 4666 
L 4897 0 
L 4281 0 
L 4281 4097 
L 3078 897 
L 2444 897 
L 1241 4097 
L 1241 0 
L 628 0 
L 628 4666 
z
" id="DejaVuSans-4d" transform="scale(0.015625)"/>
       <path d="M 1959 3097 
Q 1497 3097 1228 2736 
Q 959 2375 959 1747 
Q 959 1119 1226 758 
Q 1494 397 1959 397 
Q 2419 397 2687 759 
Q 2956 1122 2956 1747 
Q 2956 2369 2687 2733 
Q 2419 3097 1959 3097 
z
M 1959 3584 
Q 2709 3584 3137 3096 
Q 3566 2609 3566 1747 
Q 3566 888 3137 398 
Q 2709 -91 1959 -91 
Q 1206 -91 779 398 
Q 353 888 353 1747 
Q 353 2609 779 3096 
Q 1206 3584 1959 3584 
z
" id="DejaVuSans-6f" transform="scale(0.015625)"/>
       <path d="M 3513 2113 
L 3513 0 
L 2938 0 
L 2938 2094 
Q 2938 2591 2744 2837 
Q 2550 3084 2163 3084 
Q 1697 3084 1428 2787 
Q 1159 2491 1159 1978 
L 1159 0 
L 581 0 
L 581 3500 
L 1159 3500 
L 1159 2956 
Q 1366 3272 1645 3428 
Q 1925 3584 2291 3584 
Q 2894 3584 3203 3211 
Q 3513 2838 3513 2113 
z
" id="DejaVuSans-6e" transform="scale(0.015625)"/>
       <path d="M 1172 4494 
L 1172 3500 
L 2356 3500 
L 2356 3053 
L 1172 3053 
L 1172 1153 
Q 1172 725 1289 603 
Q 1406 481 1766 481 
L 2356 481 
L 2356 0 
L 1766 0 
Q 1100 0 847 248 
Q 594 497 594 1153 
L 594 3053 
L 172 3053 
L 172 3500 
L 594 3500 
L 594 4494 
L 1172 4494 
z
" id="DejaVuSans-74" transform="scale(0.015625)"/>
       <path d="M 3513 2113 
L 3513 0 
L 2938 0 
L 2938 2094 
Q 2938 2591 2744 2837 
Q 2550 3084 2163 3084 
Q 1697 3084 1428 2787 
Q 1159 2491 1159 1978 
L 1159 0 
L 581 0 
L 581 4863 
L 1159 4863 
L 1159 2956 
Q 1366 3272 1645 3428 
Q 1925 3584 2291 3584 
Q 2894 3584 3203 3211 
Q 3513 2838 3513 2113 
z
" id="DejaVuSans-68" transform="scale(0.015625)"/>
       <path d="M 513 4856 
L 1013 4856 
Q 1481 4119 1714 3412 
Q 1947 2706 1947 2009 
Q 1947 1309 1714 600 
Q 1481 -109 1013 -844 
L 513 -844 
Q 928 -128 1133 580 
Q 1338 1288 1338 2009 
Q 1338 2731 1133 3434 
Q 928 4138 513 4856 
z
" id="DejaVuSans-29" transform="scale(0.015625)"/>
      </defs>
      <use xlink:href="#DejaVuSans-54"/>
      <use x="57.958984" xlink:href="#DejaVuSans-69"/>
      <use x="85.742188" xlink:href="#DejaVuSans-6d"/>
      <use x="183.154297" xlink:href="#DejaVuSans-65"/>
      <use x="244.677734" xlink:href="#DejaVuSans-20"/>
      <use x="276.464844" xlink:href="#DejaVuSans-28"/>
      <use x="315.478516" xlink:href="#DejaVuSans-59"/>
      <use x="363.3125" xlink:href="#DejaVuSans-65"/>
      <use x="424.835938" xlink:href="#DejaVuSans-61"/>
      <use x="486.115234" xlink:href="#DejaVuSans-72"/>
      <use x="520.853516" xlink:href="#DejaVuSans-2d"/>
      <use x="556.9375" xlink:href="#DejaVuSans-4d"/>
      <use x="643.216797" xlink:href="#DejaVuSans-6f"/>
      <use x="704.398438" xlink:href="#DejaVuSans-6e"/>
      <use x="767.777344" xlink:href="#DejaVuSans-74"/>
      <use x="806.986328" xlink:href="#DejaVuSans-68"/>
      <use x="870.365234" xlink:href="#DejaVuSans-29"/>
     </g>
    </g>
   </g>
   <g id="matplotlib.axis_2">
    <g id="ytick_1">
     <g id="line2d_56">
      <defs>
       <path d="M 0 0 
L -3.5 0 
" id="m40efe5cd78" style="stroke:#000000;stroke-width:0.8;"/>
      </defs>
      <g>
       <use style="stroke:#000000;stroke-width:0.8;" x="53.328125" xlink:href="#m40efe5cd78" y="813.227635"/>
      </g>
     </g>
     <g id="text_57">
      <!-- 400 -->
      <g transform="translate(27.240625 817.026854)scale(0.1 -0.1)">
       <use xlink:href="#DejaVuSans-34"/>
       <use x="63.623047" xlink:href="#DejaVuSans-30"/>
       <use x="127.246094" xlink:href="#DejaVuSans-30"/>
      </g>
     </g>
    </g>
    <g id="ytick_2">
     <g id="line2d_57">
      <g>
       <use style="stroke:#000000;stroke-width:0.8;" x="53.328125" xlink:href="#m40efe5cd78" y="693.474367"/>
      </g>
     </g>
     <g id="text_58">
      <!-- 500 -->
      <g transform="translate(27.240625 697.273586)scale(0.1 -0.1)">
       <use xlink:href="#DejaVuSans-35"/>
       <use x="63.623047" xlink:href="#DejaVuSans-30"/>
       <use x="127.246094" xlink:href="#DejaVuSans-30"/>
      </g>
     </g>
    </g>
    <g id="ytick_3">
     <g id="line2d_58">
      <g>
       <use style="stroke:#000000;stroke-width:0.8;" x="53.328125" xlink:href="#m40efe5cd78" y="573.721099"/>
      </g>
     </g>
     <g id="text_59">
      <!-- 600 -->
      <g transform="translate(27.240625 577.520318)scale(0.1 -0.1)">
       <use xlink:href="#DejaVuSans-36"/>
       <use x="63.623047" xlink:href="#DejaVuSans-30"/>
       <use x="127.246094" xlink:href="#DejaVuSans-30"/>
      </g>
     </g>
    </g>
    <g id="ytick_4">
     <g id="line2d_59">
      <g>
       <use style="stroke:#000000;stroke-width:0.8;" x="53.328125" xlink:href="#m40efe5cd78" y="453.967832"/>
      </g>
     </g>
     <g id="text_60">
      <!-- 700 -->
      <g transform="translate(27.240625 457.76705)scale(0.1 -0.1)">
       <use xlink:href="#DejaVuSans-37"/>
       <use x="63.623047" xlink:href="#DejaVuSans-30"/>
       <use x="127.246094" xlink:href="#DejaVuSans-30"/>
      </g>
     </g>
    </g>
    <g id="ytick_5">
     <g id="line2d_60">
      <g>
       <use style="stroke:#000000;stroke-width:0.8;" x="53.328125" xlink:href="#m40efe5cd78" y="334.214564"/>
      </g>
     </g>
     <g id="text_61">
      <!-- 800 -->
      <g transform="translate(27.240625 338.013783)scale(0.1 -0.1)">
       <use xlink:href="#DejaVuSans-38"/>
       <use x="63.623047" xlink:href="#DejaVuSans-30"/>
       <use x="127.246094" xlink:href="#DejaVuSans-30"/>
      </g>
     </g>
    </g>
    <g id="ytick_6">
     <g id="line2d_61">
      <g>
       <use style="stroke:#000000;stroke-width:0.8;" x="53.328125" xlink:href="#m40efe5cd78" y="214.461296"/>
      </g>
     </g>
     <g id="text_62">
      <!-- 900 -->
      <g transform="translate(27.240625 218.260515)scale(0.1 -0.1)">
       <use xlink:href="#DejaVuSans-39"/>
       <use x="63.623047" xlink:href="#DejaVuSans-30"/>
       <use x="127.246094" xlink:href="#DejaVuSans-30"/>
      </g>
     </g>
    </g>
    <g id="ytick_7">
     <g id="line2d_62">
      <g>
       <use style="stroke:#000000;stroke-width:0.8;" x="53.328125" xlink:href="#m40efe5cd78" y="94.708028"/>
      </g>
     </g>
     <g id="text_63">
      <!-- 1000 -->
      <g transform="translate(20.878125 98.507247)scale(0.1 -0.1)">
       <use xlink:href="#DejaVuSans-31"/>
       <use x="63.623047" xlink:href="#DejaVuSans-30"/>
       <use x="127.246094" xlink:href="#DejaVuSans-30"/>
       <use x="190.869141" xlink:href="#DejaVuSans-30"/>
      </g>
     </g>
    </g>
    <g id="text_64">
     <!-- Total Crimes per Month -->
     <g transform="translate(14.798437 508.882594)rotate(-90)scale(0.1 -0.1)">
      <defs>
       <path d="M 603 4863 
L 1178 4863 
L 1178 0 
L 603 0 
L 603 4863 
z
" id="DejaVuSans-6c" transform="scale(0.015625)"/>
       <path d="M 4122 4306 
L 4122 3641 
Q 3803 3938 3442 4084 
Q 3081 4231 2675 4231 
Q 1875 4231 1450 3742 
Q 1025 3253 1025 2328 
Q 1025 1406 1450 917 
Q 1875 428 2675 428 
Q 3081 428 3442 575 
Q 3803 722 4122 1019 
L 4122 359 
Q 3791 134 3420 21 
Q 3050 -91 2638 -91 
Q 1578 -91 968 557 
Q 359 1206 359 2328 
Q 359 3453 968 4101 
Q 1578 4750 2638 4750 
Q 3056 4750 3426 4639 
Q 3797 4528 4122 4306 
z
" id="DejaVuSans-43" transform="scale(0.015625)"/>
       <path d="M 2834 3397 
L 2834 2853 
Q 2591 2978 2328 3040 
Q 2066 3103 1784 3103 
Q 1356 3103 1142 2972 
Q 928 2841 928 2578 
Q 928 2378 1081 2264 
Q 1234 2150 1697 2047 
L 1894 2003 
Q 2506 1872 2764 1633 
Q 3022 1394 3022 966 
Q 3022 478 2636 193 
Q 2250 -91 1575 -91 
Q 1294 -91 989 -36 
Q 684 19 347 128 
L 347 722 
Q 666 556 975 473 
Q 1284 391 1588 391 
Q 1994 391 2212 530 
Q 2431 669 2431 922 
Q 2431 1156 2273 1281 
Q 2116 1406 1581 1522 
L 1381 1569 
Q 847 1681 609 1914 
Q 372 2147 372 2553 
Q 372 3047 722 3315 
Q 1072 3584 1716 3584 
Q 2034 3584 2315 3537 
Q 2597 3491 2834 3397 
z
" id="DejaVuSans-73" transform="scale(0.015625)"/>
       <path d="M 1159 525 
L 1159 -1331 
L 581 -1331 
L 581 3500 
L 1159 3500 
L 1159 2969 
Q 1341 3281 1617 3432 
Q 1894 3584 2278 3584 
Q 2916 3584 3314 3078 
Q 3713 2572 3713 1747 
Q 3713 922 3314 415 
Q 2916 -91 2278 -91 
Q 1894 -91 1617 61 
Q 1341 213 1159 525 
z
M 3116 1747 
Q 3116 2381 2855 2742 
Q 2594 3103 2138 3103 
Q 1681 3103 1420 2742 
Q 1159 2381 1159 1747 
Q 1159 1113 1420 752 
Q 1681 391 2138 391 
Q 2594 391 2855 752 
Q 3116 1113 3116 1747 
z
" id="DejaVuSans-70" transform="scale(0.015625)"/>
      </defs>
      <use xlink:href="#DejaVuSans-54"/>
      <use x="44.083984" xlink:href="#DejaVuSans-6f"/>
      <use x="105.265625" xlink:href="#DejaVuSans-74"/>
      <use x="144.474609" xlink:href="#DejaVuSans-61"/>
      <use x="205.753906" xlink:href="#DejaVuSans-6c"/>
      <use x="233.537109" xlink:href="#DejaVuSans-20"/>
      <use x="265.324219" xlink:href="#DejaVuSans-43"/>
      <use x="335.148438" xlink:href="#DejaVuSans-72"/>
      <use x="376.261719" xlink:href="#DejaVuSans-69"/>
      <use x="404.044922" xlink:href="#DejaVuSans-6d"/>
      <use x="501.457031" xlink:href="#DejaVuSans-65"/>
      <use x="562.980469" xlink:href="#DejaVuSans-73"/>
      <use x="615.080078" xlink:href="#DejaVuSans-20"/>
      <use x="646.867188" xlink:href="#DejaVuSans-70"/>
      <use x="710.34375" xlink:href="#DejaVuSans-65"/>
      <use x="771.867188" xlink:href="#DejaVuSans-72"/>
      <use x="812.980469" xlink:href="#DejaVuSans-20"/>
      <use x="844.767578" xlink:href="#DejaVuSans-4d"/>
      <use x="931.046875" xlink:href="#DejaVuSans-6f"/>
      <use x="992.228516" xlink:href="#DejaVuSans-6e"/>
      <use x="1055.607422" xlink:href="#DejaVuSans-74"/>
      <use x="1094.816406" xlink:href="#DejaVuSans-68"/>
     </g>
    </g>
   </g>
   <g id="line2d_63">
    <path clip-path="url(#p026d33ef63)" d="M 53.328125 310.26391 
L 60.174751 408.46159 
L 66.579659 408.46159 
L 73.426285 361.757816 
L 80.052051 259.967538 
L 86.898677 286.313257 
L 93.524444 323.43677 
L 100.37107 334.214564 
L 107.217696 340.202227 
L 113.843462 264.757669 
L 120.690088 354.572619 
L 127.315855 447.980168 
L 134.162481 474.325887 
L 141.009107 528.214858 
L 147.193156 343.794825 
L 154.039781 446.782636 
L 160.665548 408.46159 
L 167.512174 509.054335 
L 174.137941 390.4986 
L 180.984567 510.251868 
L 187.831192 396.486263 
L 194.456959 311.461443 
L 201.303585 432.412244 
L 207.929352 461.153028 
L 214.775978 480.313551 
L 221.622604 451.572766 
L 227.806653 245.597146 
L 234.653278 370.140544 
L 241.279045 340.202227 
L 248.125671 267.152734 
L 254.751438 324.634303 
L 261.598064 409.659123 
L 268.444689 451.572766 
L 275.070456 300.683649 
L 281.917082 414.449253 
L 288.542849 568.930969 
L 295.389475 415.646786 
L 302.2361 419.239384 
L 308.42015 379.720806 
L 315.266775 378.523273 
L 321.892542 360.560283 
L 328.739168 331.819499 
L 335.364935 331.819499 
L 342.211561 406.066525 
L 349.058186 498.276541 
L 355.683953 413.251721 
L 362.530579 503.066671 
L 369.156346 476.720953 
L 376.002972 312.658976 
L 382.849597 519.832129 
L 389.254505 203.683502 
L 396.101131 455.165364 
L 402.726898 318.646639 
L 409.573524 340.202227 
L 416.199291 356.967685 
L 423.045916 492.288877 
L 429.892542 440.794972 
L 436.518309 335.412097 
L 443.364935 344.992358 
L 449.990702 493.48641 
L 456.837327 428.819645 
L 463.683953 500.671606 
L 469.868002 507.856802 
L 476.714628 615.634743 
L 483.340395 561.745773 
L 490.187021 566.535903 
L 496.812788 495.881475 
L 503.659413 529.41239 
L 510.506039 620.424874 
L 517.131806 571.326034 
L 523.978432 573.721099 
L 530.604199 664.733583 
L 537.450824 572.523567 
L 544.29745 620.424874 
L 550.481499 535.400054 
L 557.328125 550.967979 
L 563.953892 598.869286 
L 570.800518 562.943305 
L 577.426285 536.597586 
L 584.27291 673.116312 
L 591.119536 527.017325 
L 597.745303 531.807456 
L 604.591929 580.906295 
L 611.217696 594.079155 
L 618.064321 625.215005 
L 624.910947 646.770593 
L 631.094996 549.770446 
L 637.941622 515.041998 
L 644.567389 434.807309 
L 651.414015 447.980168 
L 658.039781 456.362897 
L 664.886407 527.017325 
L 671.733033 562.943305 
L 678.3588 512.646933 
L 685.205426 527.017325 
L 691.831192 548.572913 
L 698.677818 585.696426 
L 705.524444 608.449547 
L 711.929352 567.733436 
L 718.775978 534.202521 
L 725.401745 370.140544 
L 732.24837 424.029515 
L 738.874137 439.59744 
L 745.720763 471.930822 
L 752.567389 597.671753 
L 759.193156 489.893812 
L 766.039781 574.918632 
L 772.665548 554.560577 
L 779.512174 663.53605 
L 786.3588 635.992799 
L 792.542849 487.498747 
L 799.389475 564.140838 
L 806.015242 572.523567 
L 812.861867 564.140838 
L 819.487634 549.770446 
L 826.33426 564.140838 
L 833.180886 507.856802 
L 839.806653 517.437064 
L 846.653278 542.58525 
L 853.279045 543.782782 
L 860.125671 525.819792 
L 866.972297 633.597733 
L 873.156346 580.906295 
L 880.002972 595.276688 
L 886.628738 503.066671 
L 893.475364 591.68409 
L 900.101131 470.733289 
L 906.947757 519.832129 
L 913.794383 481.511083 
L 920.42015 413.251721 
L 927.266775 493.48641 
L 933.892542 485.103681 
L 940.739168 398.881329 
L 947.585794 404.868992 
L 953.769843 298.288584 
L 960.616469 316.251574 
L 967.242235 190.510643 
L 974.088861 279.128061 
L 980.714628 341.39976 
L 987.561254 238.41195 
L 994.40788 252.782342 
L 1001.033646 310.26391 
L 1007.880272 330.621966 
L 1014.506039 412.054188 
L 1021.352665 334.214564 
L 1028.199291 434.807309 
L 1034.604199 536.597586 
L 1041.450824 688.684236 
L 1048.076591 574.918632 
L 1054.923217 471.930822 
L 1061.548984 386.906002 
L 1068.39561 364.152881 
L 1075.242235 329.424433 
L 1081.868002 230.029221 
L 1088.714628 379.720806 
L 1095.340395 528.214858 
L 1102.187021 515.041998 
L 1109.033646 592.881622 
L 1115.217696 468.338224 
L 1122.064321 570.128501 
L 1128.690088 461.153028 
L 1135.536714 437.202374 
L 1142.162481 424.029515 
L 1149.009107 471.930822 
L 1155.855732 400.078861 
L 1162.481499 361.757816 
L 1169.328125 340.202227 
L 1169.328125 340.202227 
" style="fill:none;stroke:#000000;stroke-linecap:square;stroke-width:1.5;"/>
   </g>
   <g id="line2d_64">
    <path clip-path="url(#p026d33ef63)" d="M 53.328125 528.214858 
L 60.174751 498.276541 
L 66.579659 406.066525 
L 73.426285 440.794972 
L 80.052051 315.054041 
L 86.898677 331.819499 
L 93.524444 371.338077 
L 100.37107 407.264057 
L 107.217696 441.992505 
L 113.843462 432.412244 
L 120.690088 373.733142 
L 127.315855 465.943158 
L 134.162481 473.128355 
L 141.009107 521.029662 
L 147.193156 396.486263 
L 154.039781 567.733436 
L 160.665548 395.288731 
L 167.512174 390.4986 
L 174.137941 421.634449 
L 180.984567 437.202374 
L 187.831192 553.363044 
L 194.456959 540.190184 
L 201.303585 584.498894 
L 207.929352 630.005135 
L 214.775978 661.140985 
L 221.622604 618.029808 
L 227.806653 548.572913 
L 234.653278 527.017325 
L 241.279045 540.190184 
L 248.125671 518.634596 
L 254.751438 546.177848 
L 261.598064 626.412537 
L 268.444689 627.61007 
L 275.070456 646.770593 
L 281.917082 653.955789 
L 288.542849 699.462031 
L 295.389475 592.881622 
L 302.2361 711.437357 
L 308.42015 604.856949 
L 315.266775 632.400201 
L 321.892542 554.560577 
L 328.739168 657.548387 
L 335.364935 598.869286 
L 342.211561 622.819939 
L 349.058186 698.264498 
L 355.683953 604.856949 
L 362.530579 667.128648 
L 369.156346 773.709057 
L 376.002972 754.548534 
L 382.849597 782.091785 
L 389.254505 667.128648 
L 396.101131 753.351001 
L 402.726898 659.943452 
L 409.573524 606.054482 
L 416.199291 645.57306 
L 423.045916 651.560723 
L 429.892542 706.647227 
L 436.518309 766.52386 
L 443.364935 722.215151 
L 449.990702 711.437357 
L 456.837327 800.054775 
L 463.683953 821.610364 
L 469.868002 758.141132 
L 476.714628 740.178142 
L 483.340395 741.375674 
L 490.187021 619.227341 
L 496.812788 621.622407 
L 503.659413 608.449547 
L 510.506039 639.585397 
L 517.131806 600.066818 
L 523.978432 685.091638 
L 530.604199 653.955789 
L 537.450824 703.054629 
L 544.29745 707.844759 
L 550.481499 607.252014 
L 557.328125 680.301508 
L 563.953892 628.807603 
L 570.800518 619.227341 
L 577.426285 465.943158 
L 584.27291 609.64708 
L 591.119536 536.597586 
L 597.745303 521.029662 
L 604.591929 556.955642 
L 611.217696 495.881475 
L 618.064321 516.239531 
L 624.910947 548.572913 
L 631.094996 467.140691 
L 637.941622 531.807456 
L 644.567389 488.696279 
L 651.414015 441.992505 
L 658.039781 374.930675 
L 664.886407 434.807309 
L 671.733033 416.844319 
L 678.3588 382.115871 
L 685.205426 370.140544 
L 691.831192 359.36275 
L 698.677818 403.671459 
L 705.524444 486.301214 
L 711.929352 403.671459 
L 718.775978 473.128355 
L 725.401745 337.807162 
L 732.24837 328.226901 
L 738.874137 361.757816 
L 745.720763 431.214711 
L 752.567389 424.029515 
L 759.193156 403.671459 
L 766.039781 378.523273 
L 772.665548 384.510936 
L 779.512174 481.511083 
L 786.3588 455.165364 
L 792.542849 307.868845 
L 799.389475 401.276394 
L 806.015242 292.30092 
L 812.861867 279.128061 
L 819.487634 271.942865 
L 826.33426 339.004695 
L 833.180886 397.683796 
L 839.806653 380.918338 
L 846.653278 438.399907 
L 853.279045 449.177701 
L 860.125671 389.301067 
L 866.972297 465.943158 
L 873.156346 354.572619 
L 880.002972 480.313551 
L 886.628738 318.646639 
L 893.475364 323.43677 
L 900.101131 222.844025 
L 906.947757 404.868992 
L 913.794383 396.486263 
L 920.42015 310.26391 
L 927.266775 355.770152 
L 933.892542 358.165218 
L 940.739168 330.621966 
L 947.585794 403.671459 
L 953.769843 237.214417 
L 960.616469 310.26391 
L 967.242235 191.708175 
L 974.088861 303.078714 
L 980.714628 86.3253 
L 987.561254 274.33793 
L 994.40788 209.671166 
L 1001.033646 192.905708 
L 1007.880272 168.955054 
L 1014.506039 280.325593 
L 1021.352665 238.41195 
L 1028.199291 353.375087 
L 1034.604199 315.054041 
L 1041.450824 328.226901 
L 1048.076591 196.498306 
L 1054.923217 234.819352 
L 1061.548984 105.485823 
L 1068.39561 142.609336 
L 1075.242235 142.609336 
L 1081.868002 238.41195 
L 1088.714628 270.745332 
L 1095.340395 322.239237 
L 1102.187021 400.078861 
L 1109.033646 467.140691 
L 1115.217696 283.918192 
L 1122.064321 257.572473 
L 1128.690088 150.992064 
L 1135.536714 117.461149 
L 1142.162481 115.066084 
L 1149.009107 340.202227 
L 1155.855732 216.856362 
L 1162.481499 80.337636 
L 1169.328125 250.387277 
L 1169.328125 250.387277 
" style="fill:none;stroke:#ff8c00;stroke-linecap:square;stroke-width:1.5;"/>
   </g>
   <g id="patch_3">
    <path d="M 53.328125 858.674 
L 53.328125 43.274 
" style="fill:none;stroke:#000000;stroke-linecap:square;stroke-linejoin:miter;stroke-width:0.8;"/>
   </g>
   <g id="patch_4">
    <path d="M 1169.328125 858.674 
L 1169.328125 43.274 
" style="fill:none;stroke:#000000;stroke-linecap:square;stroke-linejoin:miter;stroke-width:0.8;"/>
   </g>
   <g id="patch_5">
    <path d="M 53.328125 858.674 
L 1169.328125 858.674 
" style="fill:none;stroke:#000000;stroke-linecap:square;stroke-linejoin:miter;stroke-width:0.8;"/>
   </g>
   <g id="patch_6">
    <path d="M 53.328125 43.274 
L 1169.328125 43.274 
" style="fill:none;stroke:#000000;stroke-linecap:square;stroke-linejoin:miter;stroke-width:0.8;"/>
   </g>
   <g id="text_65">
    <!-- Lewisham Monthly Crime Category Totals:  -->
    <g transform="translate(440.744375 19.3575)scale(0.16 -0.16)">
     <defs>
      <path d="M 628 4666 
L 1259 4666 
L 1259 531 
L 3531 531 
L 3531 0 
L 628 0 
L 628 4666 
z
" id="DejaVuSans-4c" transform="scale(0.015625)"/>
      <path d="M 269 3500 
L 844 3500 
L 1563 769 
L 2278 3500 
L 2956 3500 
L 3675 769 
L 4391 3500 
L 4966 3500 
L 4050 0 
L 3372 0 
L 2619 2869 
L 1863 0 
L 1184 0 
L 269 3500 
z
" id="DejaVuSans-77" transform="scale(0.015625)"/>
      <path d="M 2059 -325 
Q 1816 -950 1584 -1140 
Q 1353 -1331 966 -1331 
L 506 -1331 
L 506 -850 
L 844 -850 
Q 1081 -850 1212 -737 
Q 1344 -625 1503 -206 
L 1606 56 
L 191 3500 
L 800 3500 
L 1894 763 
L 2988 3500 
L 3597 3500 
L 2059 -325 
z
" id="DejaVuSans-79" transform="scale(0.015625)"/>
      <path d="M 2906 1791 
Q 2906 2416 2648 2759 
Q 2391 3103 1925 3103 
Q 1463 3103 1205 2759 
Q 947 2416 947 1791 
Q 947 1169 1205 825 
Q 1463 481 1925 481 
Q 2391 481 2648 825 
Q 2906 1169 2906 1791 
z
M 3481 434 
Q 3481 -459 3084 -895 
Q 2688 -1331 1869 -1331 
Q 1566 -1331 1297 -1286 
Q 1028 -1241 775 -1147 
L 775 -588 
Q 1028 -725 1275 -790 
Q 1522 -856 1778 -856 
Q 2344 -856 2625 -561 
Q 2906 -266 2906 331 
L 2906 616 
Q 2728 306 2450 153 
Q 2172 0 1784 0 
Q 1141 0 747 490 
Q 353 981 353 1791 
Q 353 2603 747 3093 
Q 1141 3584 1784 3584 
Q 2172 3584 2450 3431 
Q 2728 3278 2906 2969 
L 2906 3500 
L 3481 3500 
L 3481 434 
z
" id="DejaVuSans-67" transform="scale(0.015625)"/>
      <path d="M 750 794 
L 1409 794 
L 1409 0 
L 750 0 
L 750 794 
z
M 750 3309 
L 1409 3309 
L 1409 2516 
L 750 2516 
L 750 3309 
z
" id="DejaVuSans-3a" transform="scale(0.015625)"/>
     </defs>
     <use xlink:href="#DejaVuSans-4c"/>
     <use x="53.962891" xlink:href="#DejaVuSans-65"/>
     <use x="115.486328" xlink:href="#DejaVuSans-77"/>
     <use x="197.273438" xlink:href="#DejaVuSans-69"/>
     <use x="225.056641" xlink:href="#DejaVuSans-73"/>
     <use x="277.15625" xlink:href="#DejaVuSans-68"/>
     <use x="340.535156" xlink:href="#DejaVuSans-61"/>
     <use x="401.814453" xlink:href="#DejaVuSans-6d"/>
     <use x="499.226562" xlink:href="#DejaVuSans-20"/>
     <use x="531.013672" xlink:href="#DejaVuSans-4d"/>
     <use x="617.292969" xlink:href="#DejaVuSans-6f"/>
     <use x="678.474609" xlink:href="#DejaVuSans-6e"/>
     <use x="741.853516" xlink:href="#DejaVuSans-74"/>
     <use x="781.0625" xlink:href="#DejaVuSans-68"/>
     <use x="844.441406" xlink:href="#DejaVuSans-6c"/>
     <use x="872.224609" xlink:href="#DejaVuSans-79"/>
     <use x="931.404297" xlink:href="#DejaVuSans-20"/>
     <use x="963.191406" xlink:href="#DejaVuSans-43"/>
     <use x="1033.015625" xlink:href="#DejaVuSans-72"/>
     <use x="1074.128906" xlink:href="#DejaVuSans-69"/>
     <use x="1101.912109" xlink:href="#DejaVuSans-6d"/>
     <use x="1199.324219" xlink:href="#DejaVuSans-65"/>
     <use x="1260.847656" xlink:href="#DejaVuSans-20"/>
     <use x="1292.634766" xlink:href="#DejaVuSans-43"/>
     <use x="1362.458984" xlink:href="#DejaVuSans-61"/>
     <use x="1423.738281" xlink:href="#DejaVuSans-74"/>
     <use x="1462.947266" xlink:href="#DejaVuSans-65"/>
     <use x="1524.470703" xlink:href="#DejaVuSans-67"/>
     <use x="1587.947266" xlink:href="#DejaVuSans-6f"/>
     <use x="1649.128906" xlink:href="#DejaVuSans-72"/>
     <use x="1690.242188" xlink:href="#DejaVuSans-79"/>
     <use x="1749.421875" xlink:href="#DejaVuSans-20"/>
     <use x="1781.208984" xlink:href="#DejaVuSans-54"/>
     <use x="1825.292969" xlink:href="#DejaVuSans-6f"/>
     <use x="1886.474609" xlink:href="#DejaVuSans-74"/>
     <use x="1925.683594" xlink:href="#DejaVuSans-61"/>
     <use x="1986.962891" xlink:href="#DejaVuSans-6c"/>
     <use x="2014.746094" xlink:href="#DejaVuSans-73"/>
     <use x="2066.845703" xlink:href="#DejaVuSans-3a"/>
     <use x="2100.537109" xlink:href="#DejaVuSans-20"/>
    </g>
    <!-- Theft and Handling, Violence Against the Person (01/2008-11/2021) -->
    <g transform="translate(339.983125 37.274)scale(0.16 -0.16)">
     <defs>
      <path d="M 2375 4863 
L 2375 4384 
L 1825 4384 
Q 1516 4384 1395 4259 
Q 1275 4134 1275 3809 
L 1275 3500 
L 2222 3500 
L 2222 3053 
L 1275 3053 
L 1275 0 
L 697 0 
L 697 3053 
L 147 3053 
L 147 3500 
L 697 3500 
L 697 3744 
Q 697 4328 969 4595 
Q 1241 4863 1831 4863 
L 2375 4863 
z
" id="DejaVuSans-66" transform="scale(0.015625)"/>
      <path d="M 2906 2969 
L 2906 4863 
L 3481 4863 
L 3481 0 
L 2906 0 
L 2906 525 
Q 2725 213 2448 61 
Q 2172 -91 1784 -91 
Q 1150 -91 751 415 
Q 353 922 353 1747 
Q 353 2572 751 3078 
Q 1150 3584 1784 3584 
Q 2172 3584 2448 3432 
Q 2725 3281 2906 2969 
z
M 947 1747 
Q 947 1113 1208 752 
Q 1469 391 1925 391 
Q 2381 391 2643 752 
Q 2906 1113 2906 1747 
Q 2906 2381 2643 2742 
Q 2381 3103 1925 3103 
Q 1469 3103 1208 2742 
Q 947 2381 947 1747 
z
" id="DejaVuSans-64" transform="scale(0.015625)"/>
      <path d="M 628 4666 
L 1259 4666 
L 1259 2753 
L 3553 2753 
L 3553 4666 
L 4184 4666 
L 4184 0 
L 3553 0 
L 3553 2222 
L 1259 2222 
L 1259 0 
L 628 0 
L 628 4666 
z
" id="DejaVuSans-48" transform="scale(0.015625)"/>
      <path d="M 750 794 
L 1409 794 
L 1409 256 
L 897 -744 
L 494 -744 
L 750 256 
L 750 794 
z
" id="DejaVuSans-2c" transform="scale(0.015625)"/>
      <path d="M 1831 0 
L 50 4666 
L 709 4666 
L 2188 738 
L 3669 4666 
L 4325 4666 
L 2547 0 
L 1831 0 
z
" id="DejaVuSans-56" transform="scale(0.015625)"/>
      <path d="M 3122 3366 
L 3122 2828 
Q 2878 2963 2633 3030 
Q 2388 3097 2138 3097 
Q 1578 3097 1268 2742 
Q 959 2388 959 1747 
Q 959 1106 1268 751 
Q 1578 397 2138 397 
Q 2388 397 2633 464 
Q 2878 531 3122 666 
L 3122 134 
Q 2881 22 2623 -34 
Q 2366 -91 2075 -91 
Q 1284 -91 818 406 
Q 353 903 353 1747 
Q 353 2603 823 3093 
Q 1294 3584 2113 3584 
Q 2378 3584 2631 3529 
Q 2884 3475 3122 3366 
z
" id="DejaVuSans-63" transform="scale(0.015625)"/>
      <path d="M 2188 4044 
L 1331 1722 
L 3047 1722 
L 2188 4044 
z
M 1831 4666 
L 2547 4666 
L 4325 0 
L 3669 0 
L 3244 1197 
L 1141 1197 
L 716 0 
L 50 0 
L 1831 4666 
z
" id="DejaVuSans-41" transform="scale(0.015625)"/>
      <path d="M 1259 4147 
L 1259 2394 
L 2053 2394 
Q 2494 2394 2734 2622 
Q 2975 2850 2975 3272 
Q 2975 3691 2734 3919 
Q 2494 4147 2053 4147 
L 1259 4147 
z
M 628 4666 
L 2053 4666 
Q 2838 4666 3239 4311 
Q 3641 3956 3641 3272 
Q 3641 2581 3239 2228 
Q 2838 1875 2053 1875 
L 1259 1875 
L 1259 0 
L 628 0 
L 628 4666 
z
" id="DejaVuSans-50" transform="scale(0.015625)"/>
      <path d="M 1625 4666 
L 2156 4666 
L 531 -594 
L 0 -594 
L 1625 4666 
z
" id="DejaVuSans-2f" transform="scale(0.015625)"/>
     </defs>
     <use xlink:href="#DejaVuSans-54"/>
     <use x="61.083984" xlink:href="#DejaVuSans-68"/>
     <use x="124.462891" xlink:href="#DejaVuSans-65"/>
     <use x="185.986328" xlink:href="#DejaVuSans-66"/>
     <use x="219.441406" xlink:href="#DejaVuSans-74"/>
     <use x="258.650391" xlink:href="#DejaVuSans-20"/>
     <use x="290.4375" xlink:href="#DejaVuSans-61"/>
     <use x="351.716797" xlink:href="#DejaVuSans-6e"/>
     <use x="415.095703" xlink:href="#DejaVuSans-64"/>
     <use x="478.572266" xlink:href="#DejaVuSans-20"/>
     <use x="510.359375" xlink:href="#DejaVuSans-48"/>
     <use x="585.554688" xlink:href="#DejaVuSans-61"/>
     <use x="646.833984" xlink:href="#DejaVuSans-6e"/>
     <use x="710.212891" xlink:href="#DejaVuSans-64"/>
     <use x="773.689453" xlink:href="#DejaVuSans-6c"/>
     <use x="801.472656" xlink:href="#DejaVuSans-69"/>
     <use x="829.255859" xlink:href="#DejaVuSans-6e"/>
     <use x="892.634766" xlink:href="#DejaVuSans-67"/>
     <use x="956.111328" xlink:href="#DejaVuSans-2c"/>
     <use x="987.898438" xlink:href="#DejaVuSans-20"/>
     <use x="1019.685547" xlink:href="#DejaVuSans-56"/>
     <use x="1085.84375" xlink:href="#DejaVuSans-69"/>
     <use x="1113.626953" xlink:href="#DejaVuSans-6f"/>
     <use x="1174.808594" xlink:href="#DejaVuSans-6c"/>
     <use x="1202.591797" xlink:href="#DejaVuSans-65"/>
     <use x="1264.115234" xlink:href="#DejaVuSans-6e"/>
     <use x="1327.494141" xlink:href="#DejaVuSans-63"/>
     <use x="1382.474609" xlink:href="#DejaVuSans-65"/>
     <use x="1443.998047" xlink:href="#DejaVuSans-20"/>
     <use x="1475.785156" xlink:href="#DejaVuSans-41"/>
     <use x="1544.193359" xlink:href="#DejaVuSans-67"/>
     <use x="1607.669922" xlink:href="#DejaVuSans-61"/>
     <use x="1668.949219" xlink:href="#DejaVuSans-69"/>
     <use x="1696.732422" xlink:href="#DejaVuSans-6e"/>
     <use x="1760.111328" xlink:href="#DejaVuSans-73"/>
     <use x="1812.210938" xlink:href="#DejaVuSans-74"/>
     <use x="1851.419922" xlink:href="#DejaVuSans-20"/>
     <use x="1883.207031" xlink:href="#DejaVuSans-74"/>
     <use x="1922.416016" xlink:href="#DejaVuSans-68"/>
     <use x="1985.794922" xlink:href="#DejaVuSans-65"/>
     <use x="2047.318359" xlink:href="#DejaVuSans-20"/>
     <use x="2079.105469" xlink:href="#DejaVuSans-50"/>
     <use x="2135.783203" xlink:href="#DejaVuSans-65"/>
     <use x="2197.306641" xlink:href="#DejaVuSans-72"/>
     <use x="2238.419922" xlink:href="#DejaVuSans-73"/>
     <use x="2290.519531" xlink:href="#DejaVuSans-6f"/>
     <use x="2351.701172" xlink:href="#DejaVuSans-6e"/>
     <use x="2415.080078" xlink:href="#DejaVuSans-20"/>
     <use x="2446.867188" xlink:href="#DejaVuSans-28"/>
     <use x="2485.880859" xlink:href="#DejaVuSans-30"/>
     <use x="2549.503906" xlink:href="#DejaVuSans-31"/>
     <use x="2613.126953" xlink:href="#DejaVuSans-2f"/>
     <use x="2646.818359" xlink:href="#DejaVuSans-32"/>
     <use x="2710.441406" xlink:href="#DejaVuSans-30"/>
     <use x="2774.064453" xlink:href="#DejaVuSans-30"/>
     <use x="2837.6875" xlink:href="#DejaVuSans-38"/>
     <use x="2901.310547" xlink:href="#DejaVuSans-2d"/>
     <use x="2937.394531" xlink:href="#DejaVuSans-31"/>
     <use x="3001.017578" xlink:href="#DejaVuSans-31"/>
     <use x="3064.640625" xlink:href="#DejaVuSans-2f"/>
     <use x="3098.332031" xlink:href="#DejaVuSans-32"/>
     <use x="3161.955078" xlink:href="#DejaVuSans-30"/>
     <use x="3225.578125" xlink:href="#DejaVuSans-32"/>
     <use x="3289.201172" xlink:href="#DejaVuSans-31"/>
     <use x="3352.824219" xlink:href="#DejaVuSans-29"/>
    </g>
   </g>
   <g id="legend_1">
    <g id="patch_7">
     <path d="M 60.328125 80.63025 
L 231.865625 80.63025 
Q 233.865625 80.63025 233.865625 78.63025 
L 233.865625 50.274 
Q 233.865625 48.274 231.865625 48.274 
L 60.328125 48.274 
Q 58.328125 48.274 58.328125 50.274 
L 58.328125 78.63025 
Q 58.328125 80.63025 60.328125 80.63025 
z
" style="fill:#ffffff;opacity:0.8;stroke:#cccccc;stroke-linejoin:miter;"/>
    </g>
    <g id="line2d_65">
     <path d="M 62.328125 56.372437 
L 82.328125 56.372437 
" style="fill:none;stroke:#000000;stroke-linecap:square;stroke-width:1.5;"/>
    </g>
    <g id="line2d_66"/>
    <g id="text_66">
     <!-- Theft and Handling -->
     <g transform="translate(90.328125 59.872437)scale(0.1 -0.1)">
      <use xlink:href="#DejaVuSans-54"/>
      <use x="61.083984" xlink:href="#DejaVuSans-68"/>
      <use x="124.462891" xlink:href="#DejaVuSans-65"/>
      <use x="185.986328" xlink:href="#DejaVuSans-66"/>
      <use x="219.441406" xlink:href="#DejaVuSans-74"/>
      <use x="258.650391" xlink:href="#DejaVuSans-20"/>
      <use x="290.4375" xlink:href="#DejaVuSans-61"/>
      <use x="351.716797" xlink:href="#DejaVuSans-6e"/>
      <use x="415.095703" xlink:href="#DejaVuSans-64"/>
      <use x="478.572266" xlink:href="#DejaVuSans-20"/>
      <use x="510.359375" xlink:href="#DejaVuSans-48"/>
      <use x="585.554688" xlink:href="#DejaVuSans-61"/>
      <use x="646.833984" xlink:href="#DejaVuSans-6e"/>
      <use x="710.212891" xlink:href="#DejaVuSans-64"/>
      <use x="773.689453" xlink:href="#DejaVuSans-6c"/>
      <use x="801.472656" xlink:href="#DejaVuSans-69"/>
      <use x="829.255859" xlink:href="#DejaVuSans-6e"/>
      <use x="892.634766" xlink:href="#DejaVuSans-67"/>
     </g>
    </g>
    <g id="line2d_67">
     <path d="M 62.328125 71.050562 
L 82.328125 71.050562 
" style="fill:none;stroke:#ff8c00;stroke-linecap:square;stroke-width:1.5;"/>
    </g>
    <g id="line2d_68"/>
    <g id="text_67">
     <!-- Violence Against the Person -->
     <g transform="translate(90.328125 74.550562)scale(0.1 -0.1)">
      <use xlink:href="#DejaVuSans-56"/>
      <use x="66.158203" xlink:href="#DejaVuSans-69"/>
      <use x="93.941406" xlink:href="#DejaVuSans-6f"/>
      <use x="155.123047" xlink:href="#DejaVuSans-6c"/>
      <use x="182.90625" xlink:href="#DejaVuSans-65"/>
      <use x="244.429688" xlink:href="#DejaVuSans-6e"/>
      <use x="307.808594" xlink:href="#DejaVuSans-63"/>
      <use x="362.789062" xlink:href="#DejaVuSans-65"/>
      <use x="424.3125" xlink:href="#DejaVuSans-20"/>
      <use x="456.099609" xlink:href="#DejaVuSans-41"/>
      <use x="524.507812" xlink:href="#DejaVuSans-67"/>
      <use x="587.984375" xlink:href="#DejaVuSans-61"/>
      <use x="649.263672" xlink:href="#DejaVuSans-69"/>
      <use x="677.046875" xlink:href="#DejaVuSans-6e"/>
      <use x="740.425781" xlink:href="#DejaVuSans-73"/>
      <use x="792.525391" xlink:href="#DejaVuSans-74"/>
      <use x="831.734375" xlink:href="#DejaVuSans-20"/>
      <use x="863.521484" xlink:href="#DejaVuSans-74"/>
      <use x="902.730469" xlink:href="#DejaVuSans-68"/>
      <use x="966.109375" xlink:href="#DejaVuSans-65"/>
      <use x="1027.632812" xlink:href="#DejaVuSans-20"/>
      <use x="1059.419922" xlink:href="#DejaVuSans-50"/>
      <use x="1116.097656" xlink:href="#DejaVuSans-65"/>
      <use x="1177.621094" xlink:href="#DejaVuSans-72"/>
      <use x="1218.734375" xlink:href="#DejaVuSans-73"/>
      <use x="1270.833984" xlink:href="#DejaVuSans-6f"/>
      <use x="1332.015625" xlink:href="#DejaVuSans-6e"/>
     </g>
    </g>
   </g>
  </g>
 </g>
 <defs>
  <clipPath id="p026d33ef63">
   <rect height="815.4" width="1116" x="53.328125" y="43.274"/>
  </clipPath>
 </defs>
</svg>
